<?xml version="1.0" encoding="UTF-8"?>
<svg xmlns="http://www.w3.org/2000/svg" viewBox="0 0 294.44 99.92">
  <g>
    <path fill="#e5decd" d="M293.16,96.5c-12.92-2.64-25.96-4.66-39.02-6.54-12.92-1.86-25.88-3.46-38.87-4.72-26.02-2.51-52.24-3.61-78.36-2.38-7.37.35-14.73.87-22.08,1.59-7.27.71-14.72,1.5-21.83,3.24-1.25.31-1.01,2.34.31,2.27,6.45-.34,12.9-1.2,19.34-1.77,6.46-.57,12.92-1.06,19.4-1.38,12.96-.64,25.95-.76,38.91-.43,26.03.67,52,3.16,77.78,6.74,14.53,2.02,28.98,4.54,43.48,6.76.95.15,1.88-.24,2.16-1.23.25-.87-.3-1.97-1.23-2.16Z"/>
    <path fill="#e5decd" d="M80.05,79.2c-1.86-2.42-3.76-4.83-5.69-7.19-.97-1.18-2.01-2.3-3.03-3.43-.92-1.02-1.82-2.35-3.11-2.91-.35-.15-.66.09-.61.47.21,1.4,1.26,2.61,2.02,3.76.8,1.22,1.58,2.45,2.42,3.64.62.87,1.25,1.72,1.89,2.58-7.65.36-15.36-3.14-21.99-6.54-6.38-3.27-12.41-7.22-17.88-11.86-11.02-9.35-19.92-21.08-25.81-34.3C4.97,16.02,2.9,8.14.89.32.76-.17-.01-.07,0,.44c.08,3.78.57,7.38,1.46,11.05.89,3.66,2.1,7.25,3.49,10.74,2.77,6.96,6.32,13.58,10.64,19.7,8.62,12.2,20.05,22.63,33.4,29.45,3.85,1.97,7.85,3.68,11.97,5.01,4.63,1.49,9.47,2.46,14.24,1.4.39.52.79,1.04,1.19,1.56-2.24.98-4.48,1.98-6.7,3-1.38.63-2.75,1.27-4.11,1.93-1.27.61-2.86,1.22-3.78,2.32-.62.75-.28,2.16.87,2.09,1.45-.09,2.84-.9,4.11-1.53,1.42-.71,2.84-1.4,4.26-2.08,2.79-1.33,5.62-2.59,8.47-3.81.69-.3,1-1.48.54-2.07Z"/>
  </g>
</svg>
