<?xml version="1.0" encoding="UTF-8"?>
<svg xmlns="http://www.w3.org/2000/svg" viewBox="0 0 43.42 43.55">
  <g>
    <path fill="currentColor" d="M25.17,43.55v-15.56h5.01c.43-2.1.84-4.12,1.27-6.24h-6.17c0-1.79-.15-3.51.04-5.18.16-1.45,1.23-2.16,2.8-2.23,1.05-.04,2.11,0,3.29,0v-5.54c-2.29-.21-4.61-.56-6.94-.09-3.7.74-5.89,3.55-6.01,7.69-.05,1.74,0,3.48,0,5.3h-5.53v6.22h5.54v15.38c-.06.05-.1.12-.14.12-3.29-.05-6.61.11-9.88-.22-4.87-.49-7.99-3.96-8.33-8.88C.01,32.48,0,30.64,0,28.82c.02-6.52-.04-13.03.14-19.55C.29,3.98,4.04.2,9.34.11c8.17-.15,16.35-.13,24.52-.01,4.59.07,7.95,2.69,9.02,6.71.32,1.22.48,2.53.49,3.79.05,7.03.06,14.07.04,21.1,0,1.36-.07,2.74-.32,4.07-.73,3.97-3.7,6.92-7.74,7.35-3.34.35-6.73.3-10.19.43Z"/>
  </g>
</svg>
