<?xml version="1.0" encoding="UTF-8"?>
<svg id="Layer_2" xmlns="http://www.w3.org/2000/svg" viewBox="0 0 449.62 19.73">
  <defs>
    <style>
      .cls-1 {
        fill: #4ea8c5;
      }
    </style>
  </defs>
  <g id="Layer_1-2" data-name="Layer_1">
    <path class="cls-1" d="M446.41,10.83C389.61,3.56,331.13.56,272.79.07c-58.52-.49-116.98,1.53-174.88,6.08-16.03,1.26-31.97,2.78-47.95,4.18-7.86.69-15.73,1.3-23.62,1.83-3.95.27-7.92.51-11.89.7-2.14.1-4.28.21-6.42.35-2.68.17-4.28.89-6.35,1.71-2.14.85-2.33,2.38,0,3.2,1.47.52,3,1.17,4.74,1.43,1.89.28,4.25.15,6.2.13,3.66-.04,7.33-.16,10.98-.29,7.32-.26,14.61-.69,21.88-1.18,14.93-1.01,29.78-2.3,44.68-3.45,27.65-2.15,56.6-3.72,85.06-4.78,57.74-2.15,115.51-1.61,173.2.62,32.32,1.25,64.59,3.06,96.79,5,5.13.31,6.13-4.13,1.21-4.76Z"/>
  </g>
</svg>