<?xml version="1.0" encoding="UTF-8"?>
<svg xmlns="http://www.w3.org/2000/svg" viewBox="0 0 936 160.04">
  <g>
    <path fill="#fe8e00" d="M934.2,85.78c-21.59,8.43-44.07,14.35-66.99,18.69,9.02-13.68,9.13-30.65-4.63-42.87-8.01-7.11-18.46-11.74-28.79-15.7-13.16-5.05-26.59-9.57-40.17-13.67-28.34-8.54-57.44-15.1-86.88-20C647.76,2.41,587.57-.64,527.62.11c-60.99.76-121.82,5.4-182.46,10.9-60.61,5.49-121.59,10.41-181.57,20.07-29.61,4.77-59.21,10.65-87.69,19.29-13.08,3.97-25.92,8.6-38.22,14.17-10.91,4.94-22.91,10.4-30.98,18.74-6.19,6.4-9.01,14.91-4.45,22.7,4.54,7.75,14.19,12.3,23.07,15.37,26.96,9.33,56.74,13.19,85.43,15.71,52.36,4.58,105.17,4.56,157.78,3.48,57.73,3.36,115.46,6.72,173.19,10.08,59.93,3.49,119.96,8.09,180.03,9.22,56.3,1.06,113.5-1.73,167.71-16.07,13.21-3.49,26.23-7.63,38.83-12.58,11.41-4.48,22.63-9.93,31.36-17.91,2.17-1.98,4.11-4.12,5.81-6.35,23.99-4.43,47.51-10.61,69.94-19.37,1.38-.54.19-2.32-1.19-1.78ZM129.14,136.38c-29.05-1.86-58.14-5.07-86.2-12.14-11.8-2.98-25.21-6.15-34.17-13.99-10.51-9.2-6.47-20.99,3.46-29.02,9.48-7.66,21.86-13.02,33.4-17.86,13.08-5.48,26.69-9.96,40.5-13.8,56.73-15.76,116.33-22.7,175.27-28.56,58.06-5.78,116.21-11.4,174.5-15.13,116.69-7.47,236.5-6.24,348.76,25.9,13.35,3.82,26.54,8.07,39.52,12.77,11.6,4.2,23.67,8.57,33.34,15.76,10.11,7.52,15.77,18.09,13.44,29.81-1.08,5.44-3.53,10.44-6.9,14.93-31.4,5.74-63.6,8.58-95.5,10.87-60.71,4.36-121.51,7.88-182.32,10.95-61.21,3.09-122.45,5.63-183.71,7.73-44.43,1.52-88.9,3.13-133.38,3.9-36.34-2.11-72.67-4.23-109.01-6.34-29.37-1.71-59.02-2.54-88.27-5.41-12.52-1.23-25.27-3.32-36.66-8.23-10.07-4.33-27.82-14.87-21.06-26.63,5.56-9.68,22.21-12.04,32.87-14.55,14.46-3.4,29.07-6.28,43.75-8.81,29.44-5.08,59.18-8.8,88.91-12.29,60.04-7.06,120.32-12.46,180.74-16.22,120.23-7.48,240.99-8.43,361.36-2.82,29.33,1.37,58.63,3.13,87.9,5.27,1.51.11,1.5-1.95,0-2.06-62.5-4.56-125.16-7.38-187.86-8.41-62.7-1.03-125.44-.29-188.09,2.22-62.65,2.51-125.21,6.79-187.54,12.84-60.95,5.91-122.61,12.11-182.37,24.47-12.88,2.66-26.77,4.93-38.83,9.84-8,3.26-15.88,9.21-14.38,17.73,1.68,9.53,13.11,16.55,22.17,20.65,10.72,4.86,22.66,7.19,34.54,8.58,13.52,1.58,27.21,2.08,40.81,2.87,15.8.92,31.59,1.84,47.39,2.76,28.18,1.64,56.37,3.28,84.55,4.92-6.33.05-12.67.08-19,.09-30.66.02-61.34-.63-91.92-2.59ZM848.45,119.02c-10.49,6.61-22.57,11.11-34.55,15.2-12.86,4.39-26.04,8.05-39.4,11.07-26.67,6.03-54.02,9.46-81.47,11.19-55.56,3.5-111.29.22-166.75-3-61.33-3.57-122.66-7.14-183.99-10.71-16.14-.94-32.28-1.88-48.42-2.82,1.6-.04,3.2-.08,4.8-.12,63.41-1.64,126.81-3.79,190.18-6.41,63.4-2.63,126.78-5.78,190.1-9.59,31.01-1.86,62.02-3.82,93-6.08,28.53-2.08,57.08-4.64,85.22-9.35,1.63-.27,3.26-.55,4.89-.84-3.79,4.4-8.48,8.25-13.6,11.47Z"/>
  </g>
</svg>
