<?xml version="1.0" encoding="UTF-8"?>
<svg xmlns="http://www.w3.org/2000/svg" viewBox="0 0 44.32 44.32">
  <g>
    <g>
      <path fill="currentColor" d="M22.15,0C25.15,0,28.15,0,31.15,0c2.58,0,5.06.46,7.28,1.85,3.62,2.26,5.46,5.61,5.82,9.81.07.8.07,1.61.07,2.42,0,5.67,0,11.34,0,17.02,0,2.6-.44,5.09-1.79,7.35-1.95,3.25-4.9,5.03-8.58,5.65-.95.16-1.93.21-2.9.21-6,.02-12,0-18,.01-2.96,0-5.71-.71-8.12-2.5-2.85-2.12-4.35-5.01-4.78-8.49-.1-.81-.12-1.64-.12-2.47,0-6.15-.05-12.3.02-18.45.04-3.7,1.31-6.94,4.17-9.42C6.31,1.17,8.82.19,11.57.1c3.52-.12,7.05-.03,10.58-.03V0ZM22.16,40.22c2.79,0,5.57,0,8.36,0,.67,0,1.35,0,2.02-.08,3.29-.36,5.78-1.89,7.13-5.01.54-1.26.72-2.6.72-3.96,0-5.87,0-11.74,0-17.61,0-.64,0-1.29-.09-1.92-.35-2.58-1.43-4.75-3.69-6.19-1.47-.93-3.12-1.31-4.85-1.32-6.28-.01-12.56,0-18.84,0-.51,0-1.02.03-1.53.1-3.17.44-5.5,1.99-6.67,5.07-.46,1.22-.61,2.49-.61,3.79,0,6.02,0,12.03,0,18.05,0,.75.06,1.52.19,2.26.52,2.99,2.13,5.13,5.03,6.2,1.22.45,2.49.62,3.78.62,3.02,0,6.03,0,9.05,0Z"/>
      <path fill="currentColor" d="M33.58,22.08c0,6.31-5.13,11.45-11.45,11.44-6.31,0-11.41-5.1-11.41-11.41,0-6.31,5.13-11.46,11.44-11.45,6.27,0,11.42,5.16,11.42,11.42ZM22.15,29.4c4.03,0,7.34-3.3,7.34-7.32,0-4.01-3.34-7.34-7.35-7.33-4,.01-7.29,3.3-7.3,7.31-.01,4.04,3.27,7.34,7.3,7.34Z"/>
      <path fill="currentColor" d="M34,12.95c-1.43-.02-2.55-1.17-2.54-2.61.02-1.45,1.18-2.58,2.65-2.55,1.41.02,2.55,1.22,2.52,2.64-.03,1.42-1.2,2.54-2.63,2.53Z"/>
    </g>
  </g>
</svg>
