<?xml version="1.0" encoding="UTF-8"?>
<svg id="Layer_2" xmlns="http://www.w3.org/2000/svg" viewBox="0 0 50.81 63.51">
  <defs>
    <style>
      .cls-1 {
        fill: #e5decd;
      }
    </style>
  </defs>
  <g id="Layer_1-2" data-name="Layer_1">
    <g>
      <path class="cls-1" d="M40.73,27.98c-.07,0-.13.02-.18.03-2.06.64-3.45,1.96-4.11,4.03-.38,1.2-.43,2.42-.25,3.66.21,1.48.57,2.92,1.33,4.22.74,1.26,1.73,2.25,3.18,2.66,1.45.41,2.6.71,4.3.07,2.7-.91,3.08-4.83,3.13-5.65.12-2.3-.33-4.05-1.16-6.18-.32-.81-1.79-3.63-6.25-2.83ZM46.47,35.53l-1.11.47c-1.12.47-1.82,2.2-2,3.4l-.17,1.19c-.06.44-.67.52-.84.11l-.47-1.11c-.47-1.12-1.59-2.61-2.79-2.79l-1.19-.17c-.44-.06-.52-.67-.11-.84l1.11-.47c1.12-.47,1.85-1.99,2.03-3.19l.17-1.19c.06-.44.67-.52.84-.11l.47,1.11c.47,1.12,1.56,2.41,2.76,2.58l1.19.17c.44.06.52.67.11.84Z"/>
      <path class="cls-1" d="M28.71,42.86c.24-.94.33-1.92.24-2.87-.08-.77-.22-1.55-.43-2.31-.31-1.12-.77-2.19-1.42-3.11-.84-1.19-2.32-1.7-3.79-1.77-.49-.02-.98.04-1.46.12-.92.15-1.79.46-2.54,1.03-.84.64-1.5,1.41-1.98,2.28-.34.62-.61,1.28-.8,1.99-.25.93-.33,1.9-.14,2.89.14,1.12.45,2.22.95,3.26.34.71.75,1.36,1.27,1.91.36.38.78.72,1.28.98,1.05.55,2.14.96,3.35.76,2.21-.35,3.77-1.32,4.77-3.28.3-.58.53-1.19.7-1.82,0-.02,0-.03.01-.05ZM26.83,40.1l-1.11.47c-1.12.47-1.82,2.2-2,3.4l-.17,1.19c-.06.44-.67.52-.84.11l-.47-1.11c-.47-1.12-1.59-2.61-2.79-2.79l-1.19-.17c-.44-.06-.52-.67-.11-.84l1.11-.47c1.12-.47,1.85-1.99,2.03-3.19l.17-1.19c.06-.44.67-.52.84-.11l.47,1.11c.47,1.12,1.56,2.41,2.76,2.58l1.19.17c.44.06.52.67.11.84Z"/>
      <path class="cls-1" d="M49.43,28.33c-.7-1.81-1.74-3.42-3.02-4.87-1.42-1.61-3.13-2.87-4.95-3.98-1.99-1.22-4.11-2.14-6.38-2.68-1.33-.32-2.67-.48-4.03-.51-1.69-.04-3.38.04-4.9.24-1.01.08-1.84.22-2.66.43-1.25.31-2.48.7-3.7,1.14-.96.35-1.9.75-2.81,1.22-1.44.75-2.84,1.57-4.12,2.56-1.28.99-2.5,2.07-3.62,3.25-1.19,1.25-2.22,2.62-3.01,4.16-.61,1.18-1.05,2.41-1.39,3.7-.38,1.48-.56,2.99-.54,4.52.02,1.32.15,2.64.38,3.94.22,1.22.56,2.41,1.04,3.56.49,1.19,1.09,2.33,1.75,3.45,1.11,1.91,2.46,3.62,4.06,5.14,1.59,1.51,3.32,2.84,5.16,4.02,1.89,1.21,3.84,2.31,5.86,3.29,1.23.6,2.46,1.2,3.74,1.69,1.53.58,3.1,1.01,4.77.9.87-.06,1.71-.22,2.5-.59,1.42-.68,2.68-1.6,3.9-2.58,1.51-1.21,2.78-2.66,3.98-4.16,1.5-1.88,2.67-3.14,3.92-5.2.59-.98,1.47-2.61,2.02-3.62,1.18-2.14,2.11-4.37,2.72-6.74.43-1.66.7-3.34.71-5.05.01-2.49-.48-4.9-1.38-7.22ZM39.38,21.9c-.05-.18-.11-.35-.11-.54,0-.24.18-.57.4-.67.22-.1.44-.04.66.17.15.15.25.33.3.47.2.43.25.83.21,1.24-.03.27-.21.46-.39.63-.1.09-.24.02-.34-.06-.39-.33-.61-.75-.73-1.24ZM12.66,37.69c-.04.13-.13.26-.26.23-.24-.05-.49-.12-.66-.33-.26-.33-.42-.69-.47-1.16-.03-.15-.05-.36,0-.56.08-.3.24-.46.48-.49.24-.03.57.15.69.36.1.16.14.34.19.52.15.47.18.96.03,1.44ZM33.28,25.02c.63-.99,1.22-2.01,1.83-3.02.13-.21.27-.41.44-.58.25-.26.42-.3.69-.18.33.15.45.34.42.7-.03.35-.13.68-.22,1.02-.26.95-.67,1.82-1.27,2.6-.22.29-.44.6-.78.78-.1.05-.21.08-.33.11-.33.03-.63-.06-.82-.36-.23-.35-.19-.72.03-1.05ZM35.48,44.47c.21-.45.77-.5,1.08-.11.29.38.34,1.08.1,1.49-.15.25-.36.35-.6.3-.28-.05-.45-.31-.58-.6-.05-.11-.08-.24-.09-.36-.03-.26-.01-.5.09-.73ZM30.3,19.64c.01-.23.11-.38.33-.44.03,0,.06-.01.08-.03.5-.31.81.04.97.45.06.15.11.31.12.47-.02.39.09.8-.12,1.17-.13.23-.35.28-.58.3-.2.02-.29-.13-.36-.28-.26-.52-.48-1.05-.44-1.65ZM33.81,44.32c.25.05.39.26.47.54.02.08.04.17.05.24.02.39.05.75-.1,1.08-.18.41-.55.47-.83.14-.35-.4-.45-1.19-.22-1.66.14-.3.37-.38.63-.33ZM29.51,27.5c.04-.28.24-.49.51-.54.27-.05.49.07.64.34.22.39.25.82.27,1.25.01.26.04.53,0,.8-.06.31-.2.5-.47.54-.02,0-.04,0-.06,0-.08,0-.16-.01-.23-.05-.13-.06-.24-.18-.31-.36-.04-.11-.08-.21-.11-.32-.1-.32-.16-.66-.2-.99-.03-.22-.07-.44-.04-.66ZM23.75,19.35c-.04-.36.16-.59.45-.74.24-.12.49-.12.7.08.15.14.29.3.39.48.2.35.32.73.41,1.12.06.26.02.52-.1.76-.22.45-.67.53-1.04.21-.48-.42-.69-.96-.77-1.57-.01-.11-.03-.22-.04-.33ZM20.7,26.31c.59-.06,1.15.07,1.71.22.89.23,1.8.37,2.71.49.44.06.81.27,1.06.66.24.38.13.86-.23,1.13-.47.34-.99.34-1.53.24-.79-.14-1.57-.29-2.35-.49-.73-.19-1.4-.49-1.94-1.03-.2-.2-.31-.44-.22-.73.09-.26.28-.41.55-.46.08-.01.16-.02.24-.03ZM17.96,22.58c-.02-.35.21-.59.54-.67.62-.13.86.23,1,.82.02.07.02.15.03.22.03.24.04.49,0,.73-.04.22-.13.41-.36.49-.28.09-.5-.01-.67-.23-.32-.4-.51-.85-.54-1.36ZM7.12,40.83c-.02-.35.21-.59.54-.67.62-.13.86.23,1,.82.02.07.02.15.03.22.03.24.04.49,0,.73-.04.22-.13.41-.36.49-.28.09-.5-.01-.67-.23-.32-.4-.51-.85-.54-1.36ZM12.47,26.2c.12-.28.38-.45.64-.43.38.03.53.17.6.56.02.09.04.18.04.26,0,.24.03.47-.03.67-.03.24-.06.44-.12.63-.1.3-.32.48-.58.61-.18.09-.39.01-.47-.2-.27-.68-.38-1.38-.08-2.09ZM13.39,44.66c-.13.31-.37.39-.66.25-.47-.23-.9-1.08-.83-1.61.03-.21.06-.41.2-.58.15-.18.33-.3.57-.28.25.03.41.18.48.41.12.38.21.77.31,1.15.02.23.02.45-.07.66ZM16.98,52.18c-.23.32-.51.33-.79.1-.49-.4-.78-.94-.86-1.58-.06-.5.44-.81.82-.76.41.06.64.28.77.63.09.23.17.47.19.73.03.3.06.61-.14.88ZM27.78,60.19c-.23.32-.51.33-.79.1-.49-.4-.78-.94-.86-1.58-.06-.5.44-.81.82-.76.41.06.64.28.77.63.09.23.17.47.19.73.03.3.06.61-.14.88ZM25.37,49.08c-1.23.54-2.51.65-3.83.44-.96-.15-1.84-.48-2.65-.96-.23-.14-.46-.29-.69-.45-.98-.72-1.65-1.69-2.21-2.75-.69-1.27-1.08-2.63-1.26-4.19-.25-1.58-.07-3.24.64-4.83.07-.16.14-.31.23-.46.08-.12.06-.19-.06-.27-.86-.54-1.42-1.35-1.93-2.2,0,0,0-.01,0-.02-.15-.33-.12-.61.07-.76.19-.14.43-.07.7.21.58.58,1.18,1.15,1.91,1.55.15.09.26.1.34-.07,0,0,.01-.01.01-.02.26-.3.23-.28-.02-.57-.46-.54-.9-1.1-1.23-1.73-.04-.08-.05-.17-.06-.26-.02-.15.03-.28.16-.37.14-.09.29-.08.42,0,.11.06.21.14.3.23.19.18.39.33.6.48.36.26.73.49,1.09.74.1.07.16.03.23-.04.43-.36.88-.7,1.38-.96.07-.04.17-.07.27-.09,5.04-1.67,7.76,1.5,8.15,2.04.71.96,1.13,2.04,1.56,3.16.45,1.19,1.36,6.09-1.09,9.68-.74,1.13-1.78,1.94-3.01,2.48ZM31.36,54.9c.06.44.05.83-.07,1.21-.07.24-.19.45-.47.47-.27.02-.45-.12-.59-.36-.26-.46-.4-.95-.38-1.48.02-.5.36-.83.86-.8.22.01.32.16.43.31.14.2.22.43.22.64ZM25.15,53.83c.06.44.05.83-.07,1.21-.07.24-.19.45-.47.47-.27.02-.45-.12-.59-.36-.26-.46-.4-.95-.38-1.48.02-.5.36-.83.86-.8.22.01.32.16.43.31.14.2.22.43.22.64ZM35.2,58.35c0,.49-.09.95-.36,1.37-.12.19-.29.31-.54.26-.3-.06-.43-.3-.48-.55-.11-.54-.02-1.08.18-1.59.09-.24.28-.4.55-.37.26.03.44.21.54.45.06.13.1.28.11.43ZM19.94,55.06c.29.39.49.82.52,1.32.01.22-.06.42-.29.53-.28.13-.53,0-.71-.16-.41-.37-.65-.86-.79-1.39-.07-.25,0-.49.23-.62.23-.13.48-.09.7.04.13.08.25.16.34.28ZM42.93,49.93c0,.49-.09.95-.36,1.37-.12.19-.29.31-.54.26-.3-.06-.43-.3-.48-.55-.11-.54-.02-1.08.18-1.59.09-.24.28-.4.55-.37.26.03.44.21.54.45.06.13.1.28.11.43ZM38.44,55.65c-.12.19-.3.34-.55.31-.27-.03-.41-.22-.47-.47-.14-.58-.1-1.15.12-1.69.11-.27.28-.51.61-.54.22-.02.38.07.48.25.09.16.16.33.18.53-.02.56-.06,1.12-.37,1.62ZM10.54,48.38c-.03-.19,0-.38.04-.55.05-.2.18-.33.4-.36.34-.05.56.14.73.37.35.47.53,1.01.54,1.61,0,.26-.08.48-.34.57-.23.09-.44,0-.61-.16-.43-.4-.6-.93-.76-1.47ZM7.63,32.71c.04-.19.13-.35.24-.5.12-.16.28-.24.5-.19.33.08.47.34.54.61.15.57.13,1.14-.08,1.69-.09.24-.25.41-.52.41-.25,0-.41-.17-.51-.38-.25-.53-.22-1.09-.17-1.65ZM39.61,48.73c-.27.41-.66.7-1,1.03-.89.84-2.01,1.17-3.15,1.44-.29.07-.58.11-.89.17-1.19.1-2.4.08-3.58-.23-.42-.11-1.08-.3-1.39-.6-.28-.27-.31-.59-.23-.89.33-1.17,1.94-.34,2.35-.26,1.17.21,2.34.25,3.52.05.68-.12,1.31-.38,1.94-.64.6-.25,1.16-.6,1.75-.86.28-.13.55-.1.7.07.17.19.17.45,0,.72ZM49.31,37.05c-.13,2.07-.75,4-2.04,5.67-.64.83-1.5,1.36-2.5,1.64-1.93.55-3.79.27-5.61-.46-.71-.28-1.26-.8-1.8-1.33-1.08-1.06-1.8-2.34-2.28-3.77-.32-.97-.56-1.95-.66-2.99-.19-1.17-.21-2.35.09-3.52.42-1.62,1.17-3.05,2.46-4.13.87-.72,1.8-1.35,2.92-1.64.28-.07.44-.24.56-.48.35-.68.65-1.38.96-2.08.07-.14.14-.28.3-.35.28-.12.57.05.63.37.06.32-.03.62-.1.92-.09.4-.19.79-.3,1.19-.03.12-.02.17.11.16.04,0,.07,0,.11,0,.46.05.46.05.64-.37.22-.48.44-.96.66-1.43.05-.11.11-.21.18-.3.12-.15.28-.22.47-.16.19.06.27.21.28.39.01.14,0,.28-.02.42-.11.58-.22,1.17-.5,1.7-.09.18.06.17.14.19.83.27,1.56.71,2.19,1.32.76.74,1.36,1.59,1.81,2.54.96,2.05,1.4,4.22,1.26,6.47Z"/>
      <path class="cls-1" d="M28.7,43.01c0-.05,0-.1.01-.15,0,.02,0,.03-.01.05,0,.04,0,.07,0,.11Z"/>
      <path class="cls-1" d="M21.5,15.78c.19-.01.36-.1.52-.2.85-.54,1.42-1.34,1.92-2.17.89-1.47,1.85-2.9,2.78-4.35.25-.39.53-.77.88-1.09.09-.08.19-.16.32-.11.12.05.14.16.16.27.06.33.02.66-.07.98-.32,1.11-.78,2.17-1.3,3.2-.47.92-.95,1.84-1.48,2.73-.09.15-.05.25.07.35.22.18.46.12.7.07,1.74-.37,2.84-1.44,3.53-2.46.5-.74.85-1.58,1.06-2.46,1.05-4.43.19-4.8.25-7.4,0-.06,0-.12.02-.18.05-.25-.08-.22-.22-.14-.09.05-.18.11-.27.17,0,0,0,0,0,0-.04,0-.08.02-.11.03-.04.02-.08.04-.12.06-.02.01-.05.03-.07.04-2.21,1.25-4.2,2.78-5.91,4.67-1.17,1.3-2.19,2.7-2.72,4.4-.32,1.02-.46,2.05-.45,3.11,0,.35.17.5.53.48Z"/>
      <path class="cls-1" d="M30.88,12.72c-.06.12-.15.26-.03.38.12.12.28.06.41,0,.26-.11.49-.27.72-.43,1.19-.85,2.34-1.74,3.44-2.7.19-.17.39-.32.65-.4.34-.1.57.08.56.44,0,.2-.06.39-.17.55-.11.17-.23.34-.36.49-.66.78-1.43,1.45-2.2,2.12-.48.42-.96.83-1.44,1.25-.07.06-.14.13-.11.24.03.12.14.11.23.12.35.05.71.09,1.06.14.52.07,1.02.02,1.5-.17.77-.32,1.79-.75,2.39-1.31,2.08-1.96,3.08-4.37,3.84-7.1.08-.28-.07-.45-.36-.43-.28.03-.56.07-.83.1-1.6.23-3.15.63-4.61,1.3-1.23.57-2.43,1.22-3.42,2.18-.2.19-.34.41-.4.69-.19.87-.46,1.72-.85,2.53Z"/>
      <path class="cls-1" d="M12.65,2.7c.73,1.01,1.3,2.13,2.01,3.15,1.99,2.87,3.34,6.05,4.59,9.28.08.21.18.43.43.38.26-.05.21-.3.2-.48-.08-1.53.1-3.02.63-4.46.06-.16.04-.29-.03-.44-.23-.5-.44-1.01-.67-1.51-.74-1.63-1.42-3.28-2.26-4.87-.59-1.13-1.21-2.24-1.84-3.34C15.57.14,15.33,0,15,0c-.08.03-.18.05-.26.1-.73.46-1.47.91-2.19,1.39-.3.2-.31.36-.17.68.08.18.15.37.26.52Z"/>
      <path class="cls-1" d="M6.28,13.95c2.48,1.53,5.15,2.53,8.03,2.98.99.15,1.98.14,2.96-.04.25-.05.45-.19.5-.45.05-.25-.13-.39-.31-.51-.1-.06-.21-.12-.32-.16-.98-.37-1.99-.68-3.01-.95-1.27-.34-2.52-.74-3.78-1.12-.2-.06-.4-.15-.55-.3-.14-.14-.21-.32-.15-.51.05-.2.22-.27.41-.28.12-.01.24-.02.36-.01.46.04.93.08,1.39.14,1.28.16,2.56.34,3.83.5.34.04.69.06,1.04.05.16,0,.27-.09.33-.24.07-.16-.06-.23-.15-.31-.37-.32-.76-.6-1.19-.82-.88-.45-1.84-.66-2.8-.83-2.14-.39-5.14-.87-9.03.52-.18.06-.17.1-.06.23.75.8,1.56,1.54,2.5,2.12Z"/>
      <path class="cls-1" d="M5.8,22.85c.4-.05.81-.09,1.21-.16.9-.15,1.78-.41,2.53-.96.65-.48,1.26-1.01,1.88-1.52.11-.09.19-.21.28-.33.08-.11.16-.24.07-.37-.09-.14-.24-.19-.4-.16-.62.11-1.24.2-1.85.34-.93.23-1.85.5-2.78.75-.2.05-.4.09-.6.03-.27-.07-.35-.26-.19-.5.12-.19.3-.3.49-.4,1.2-.61,2.48-1.01,3.73-1.5.32-.12.36-.23.14-.5-.04-.05-.09-.1-.15-.14-.86-.61-1.11-1.49-3.06-1.33-.97.14-1.78.57-2.59,1.13-.84.59-1.56,1.97-4.31,4.61-.28.36-.22.63.14.81.04.02.07.04.11.05.48.18.97.3,1.48.33,1.3.06,2.6-.01,3.88-.2Z"/>
    </g>
  </g>
</svg>