<?xml version="1.0" encoding="UTF-8"?>
<svg xmlns="http://www.w3.org/2000/svg" viewBox="0 0 221.55 395.61">
  <g>
    <g>
      <path fill="#e5decd" d="M221.42,272.28c-.77-2.39-1.27-4.83-2.01-7.23-.72-2.38-1.39-4.78-2.13-7.16-1.39-4.51-2.75-9.04-4.01-13.59-2.62-9.43-4.98-18.94-7.16-28.48-4.38-19.2-7.93-38.59-11.29-57.99-.94-5.42-1.82-10.85-2.88-16.25-.53-2.7-1.03-5.42-1.73-8.08-.35-1.34-.73-2.67-1.02-4.01-.14-.65-.22-1.36-.47-1.97-.06-.14-.13-.29-.2-.43,1.12-1.89,1.79-4.09,2.03-6.1.26-2.23.03-4.48-.61-6.63-.29-.98-.68-1.93-1.19-2.82-.22-.39-.74-.94-.79-1.38-.04-.33.13-.4.49-.7,1.56-1.3,2.8-2.71,3.45-4.67.66-1.98.79-4.17.3-6.2-.56-2.35-1.81-4.43-3.54-6.11-1.32-1.29-2.84-2.22-4.44-3.05,2.02-4.86.11-11.19-4.27-14.13-5.02-3.37-12.71-2.3-15.99,3.01-.12.19-.2.39-.25.6-1.19-.4-2.5-.52-3.87-.29-.39.07-.76.17-1.13.28.57-.6,1.1-1.26,1.54-1.99,1.16-1.93,1.94-4.08,2.2-6.32.28-2.46-.21-4.7-.87-7.05-.3-1.08-.61-2.19-.57-3.32.05-1.19.32-2.41.61-3.56.53-2.11,1.34-4.33,1.45-6.59.06-1.33-.02-2.66-.32-3.94.53.08,1.11-.1,1.51-.53.93-1,1.18-2.45,1.54-3.74.39-1.39.73-2.79,1-4.21.51-2.67.76-5.36.69-8.07-.13-5.09-1.77-10.44-5.2-14.3-.19-.21-.39-.42-.59-.62,2.72-.46,5.33-1.65,7.5-3.36.73-.57,1.42-1.19,1.76-2.07.35-.9.2-1.95-.64-2.52-.93-.63-2.17-.25-3.18-.08-.49.08-.99.18-1.48.28.16-.95.31-1.91.34-2.85.04-1.46-.61-2.96-2.26-3.03-1.43-.06-2.82,1.01-3.73,2.01-.23.25-.43.52-.61.8-.51-.72-1.06-1.41-1.71-2.03-1.21-1.18-3.52-2.7-5-1.01-.79.9-.55,1.92-.23,2.97.35,1.13.68,2.26,1.09,3.37.41,1.11.86,2.18,1.38,3.24.23.47.44.96.67,1.44-2.14-.11-4.31.43-6.36.95-4.37,1.12-8.51,3.16-11.9,6.16-3.77,3.33-7.11,7.95-7.87,13.04-.19,1.3,1.77,2.21,2.49.99,1.01-1.7,1.89-3.46,3.03-5.08,1.14-1.62,2.43-3.21,3.79-4.66,2.62-2.79,5.88-5.19,9.36-6.79,1.8-.83,3.64-1.42,5.6-1.71,2.21-.33,4.08.08,5.7,1.68,3.25,3.19,4.39,8.1,4.61,12.49.13,2.61-.19,5.26-.7,7.82-.26,1.29-.57,2.56-.91,3.83-.25.94-.61,1.88-.79,2.84-1.36-2.25-3.36-3.3-5.59-3.65.67-1.12,1.01-2.53,1.37-3.69.6-1.94,1.11-3.93,1.32-5.96.37-3.53-.08-7.73-2.52-10.51-5.98-6.8-13.92,2.64-17.18,7.59-1.12,1.7-2.03,3.54-2.82,5.41-.8,1.89-1.45,3.83-1.28,5.9.08.96,1.32,1.11,1.86.47,1.88-2.25,2.86-5.21,4.47-7.67,1.66-2.54,3.43-4.95,5.48-7.19,1.47-1.61,4.33-4.52,6.55-2.47,2,1.84,2.12,5.37,1.84,7.86-.2,1.77-.64,3.49-1.2,5.18-.51,1.55-1.51,3.35-1.37,5.03-1.07.1-2.14.3-3.17.54-2.09.49-4.38.96-6.3,1.94-1.8.92-3.68,2.15-5.16,3.54-1.53,1.44-2.56,3.21-3.33,5.14-.73,1.83-1.23,3.77-2.15,5.53-1.13,2.18-3.1,3.27-5.12,4.52-1.98,1.23-3.68,2.76-4.92,4.74-2.26,3.59-3.13,7.79-3.74,11.94-3.93.78-7.15,4.01-8.37,7.8-.76,2.36-.86,4.89-.36,7.31.27,1.29.67,2.57,1.17,3.79.22.54.44,1.12.75,1.61.23.38.55.7.89,1.01-.81.84-1.64,1.65-2.51,2.43-1.18,1.07-2.4,2.16-3.67,3.2,1.18-3.39,1.54-7.05,1.52-10.62-.02-4.34-.46-9.06-2.07-13.13-.5-1.26-1.2-2.4-2.05-3.39.1-.08.21-.15.31-.23,1.07-.88,2.12-1.79,3.12-2.75,2.05-1.97,4.03-4.05,5.78-6.3.86-1.11-.19-2.51-1.45-2.42-1.35.1-2.7.2-4.05.3,1.7-2.49,3.26-5.06,4.65-7.74.58-1.12-.83-2.29-1.88-1.81-2.62,1.18-5.09,2.63-7.38,4.35.18-5.19-.02-10.44-2.26-15.21-.48-1.03-2-.79-2.17.32-.24,1.57-.68,3.1-.95,4.66-.28,1.56-.56,3.12-.83,4.68-.31,1.74-.63,3.48-.94,5.22-1.81-3.14-3.91-6.09-6.23-8.91-.8-.97-2.48-.28-2.27.99.56,3.53,1.29,7.1,2.3,10.56-.63-.61-1.27-1.21-1.92-1.8-1.06-.94-2.14-1.94-3.31-2.75-1-.69-2.24-1.16-3.39-.53-.62.34-.99,1.05-.67,1.74,2.45,5.45,5.49,10.63,8.87,15.56-1.61.88-3.08,2.06-4.34,3.46-1.63,1.81-2.97,4.02-3.87,6.29-.61,1.54-1.05,3.18-1.28,4.83-1.65-4.08-3.28-8.16-4.94-12.24-3.6-8.85-7.86-17.56-13.48-25.31-2.58-3.55-5.61-7.65-10.57-6.84-4.49.73-7.52,4.49-8.57,8.71-1.13,4.55-.37,9.54.47,14.07.95,5.11,2.45,10.11,4.23,14.99,3.86,10.62,8.99,20.73,13.39,31.12-1.71-.98-3.44-1.91-5.08-3.04-2.4-1.66-4.86-3.26-7.13-5.11-1.38-1.13-3.24.86-2.14,2.23.09.11.18.22.27.32.07,1.66.21,3.31.34,4.97.16,2.07.25,4.17.51,6.23.52,4.19,1.06,8.39,1.6,12.58,1.08,8.32,2.13,16.64,3.27,24.95,2.3,16.68,4.66,33.35,7.21,50,.72,4.69,1.41,9.38,2.2,14.05.2.12.41.23.62.35-.18-.01-.36-.07-.54-.19.36,2.01.78,4.01,1.33,5.98,0,.47.09.95.16,1.33.22,1.13.76,2.27,1.43,3.2.32.45.74.88,1.34.87.63,0,1.07-.5,1.26-1.05.4-1.14.4-2.54.43-3.75.1-3.91-.68-7.76-1.64-11.54-.31-2.27-.62-4.55-.95-6.82-1.18-8.24-2.38-16.47-3.63-24.69-2.53-16.65-5.18-33.28-7.96-49.89-.77-4.63-1.56-9.26-2.34-13.89-.54-3.19-1.16-6.41-1.92-9.59,1.1,1.14,2.28,2.2,3.57,3.15,2.47,1.81,5.19,3.7,8.1,4.69,1.24.42,2.28-.13,2.88-1.23,2.8-5.1,5.76-10.19,8.26-15.45.08-.16.15-.4.26-.56.08.03.16.07.25.1.44.4,1.15.68,1.65,1.01,1.02.68,2.01,1.43,2.95,2.22.82.68,1.84,1.44,2.44,2.32.67.99,1.11,2.26,1.55,3.37.52,1.29,2.3,2.03,3.56,1.38,1.43-.74,2.14-2.09,3.15-3.28.86-1.01,1.69-2.04,2.49-3.1,1.26-1.67,2.51-3.44,3.88-5.05,2.46,3.01,4.76,6.13,6.89,9.38.39.59,1.44.84,2.06.5,3.03-1.66,6.08-3.25,8.79-5.42,1.32-1.06,2.6-2.19,3.82-3.37.64-.62,1.27-1.27,1.89-1.92.02-.02.1-.11.2-.2.01,0,.04.03.05.03,2.73,2.02,5.31,4.16,7.63,6.65,1.18,1.26,2.58,2.43,4.41,1.68,1.48-.61,2.78-2.06,3.96-3.12,2.41-2.18,4.49-4.59,6.54-7.07.91,1.15,1.81,2.3,2.69,3.47,1.22,1.63,2.58,3.3,3.56,5.09.7,1.29,2.11,1.65,3.33.81,1.12-.77,2.07-1.72,3.03-2.68.99-1,2.05-2.01,2.9-3.14.01-.02.02-.03.04-.05,0,.06,0,.11.01.17.52,3.02.89,6.07,1.45,9.08.56,3.02,1.16,6.03,1.77,9.04,1.22,6.02,2.43,12.04,3.65,18.06,2.45,12.04,4.79,24.11,7.07,36.19,4.57,24.16,8.67,48.41,12.31,72.73,1.03,6.87,2.02,13.75,2.97,20.64.74,5.36,1.32,10.76,2.15,16.11-.6,0-1.18.05-1.79.19-1.11.26-2.19.71-3.28,1.06-1.83.59-3.68,1.15-5.52,1.7-3.42,1.02-7.06,1.89-10.61,2.65-7.43,1.58-14.95,2.73-22.5,3.64-7.66.93-15.34,1.64-23.01,2.37-7.75.73-15.5,1.43-23.28,1.8-6.63.31-13.71.7-20.29-.79-.07-.64-.15-1.26-.19-1.82-.12-1.73-.26-3.45-.42-5.18-.31-3.45-.69-6.89-1.17-10.32-.95-6.77-1.95-13.62-3.6-20.25-.04-.16-1.18-5.02-1.22-5.18-1.66-7.79-5.01-11.01-4.34-2.42.1.71,1.3,6.1,1.4,6.81.5,3.42,1.08,6.83,1.59,10.26,1.01,6.78,1.76,13.6,2.43,20.42.19,1.92.36,3.84.51,5.77.03.35.04.73.06,1.1-1.45.73-1.78,3.09.12,4.07.19.1.38.18.56.27.11.23.24.45.39.66.64.9,1.65.93,2.46.5,5.84,1.96,12.24,1.82,18.36,1.73,7.99-.12,15.96-.65,23.92-1.34,15.57-1.36,31.3-2.51,46.63-5.67,4.34-.9,8.64-1.97,12.9-3.21,2.09-.61,4.16-1.26,6.21-2.03,1.02-.38,2.06-.74,3.05-1.18.54-.24,1.01-.53,1.45-.85.38,1.47,1.76,2.52,3.32,2.29,1.69-.25,2.62-1.77,2.5-3.38-.03-.41-.07-.81-.1-1.22,8.93-3.97,17.75-8.2,26.79-11.92,1.02-.42,1.28-1.55.97-2.51ZM158.23,11.85c-.31,0-.6.06-.86.19-.03,0-.06-.02-.09-.03-.05-.47-.13-.93-.2-1.4-.13-.86-.21-1.75-.4-2.6-.35-1.59-.83-3.15-1.32-4.71.3.22.58.48.81.74.96,1.06,1.65,2.33,2.33,3.58.63,1.16,2.59,1.1,2.72-.4.07-.76.3-1.5.72-2.14.22-.32.47-.61.76-.86.16-.13.34-.27.52-.38.05-.03.12-.05.19-.08-.1.42-.12.91-.2,1.34-.19,1.11-.39,2.22-.58,3.34-.15.87.72,1.67,1.56,1.52.79-.14,1.59-.27,2.38-.41.15-.03.3-.06.45-.09-.3.19-.6.37-.91.54-2.41,1.28-5.16,1.84-7.88,1.83ZM84.1,61.76c.13.12.25.23.32.29.89.74,1.76,1.5,2.61,2.28,1.7,1.56,3.4,3.19,4.87,4.96,1.03,1.25,2.74.01,2.29-1.4-1.04-3.29-2.06-6.56-2.93-9.89,1.57,2.37,2.93,4.89,4.07,7.48.58,1.32,2.43.93,2.68-.4.57-3.11,1.02-6.25,1.52-9.38.22-1.36.44-2.72.66-4.09.66,3.98.35,8.12.03,12.14-.09,1.15,1.27,2.04,2.22,1.23,1.58-1.34,3.26-2.55,5.02-3.62-1.17,1.92-2.43,3.78-3.81,5.55-.82,1.06.19,2.31,1.35,2.25,1.07-.05,2.13-.1,3.2-.14-1.01,1-2.04,1.98-3.1,2.92-.99.88-1.99,1.75-3.02,2.58-.28.23-.55.47-.82.72-1.48-.87-3.17-1.4-5-1.46-2.16-.07-4.21.38-6.09,1.24-2.17-4.37-4.15-8.81-6.09-13.28ZM86.35,83.16c.07-.09.13-.17.2-.26.5.65.98,1.32,1.46,1.98-.49.26-.99.52-1.48.78-.84.44-1.62.98-2.47,1.41-.07.04-.12.09-.17.13.72-1.4,1.5-2.78,2.46-4.04ZM81.49,106.04c-1.16-.88-2.14-2.03-3.3-2.94-1.15-.9-2.35-1.73-3.6-2.47-1.24-.73-2.54-1.34-3.95-.67-1.26.6-2.07,2.19-2.78,3.32-.92,1.46-1.82,2.94-2.72,4.41-.94,1.53-1.89,3.06-2.83,4.59-2.94-8.51-6.87-16.64-10.2-25.01-3.5-8.81-6.81-18.18-7.01-27.76-.08-3.72.71-7.99,4.24-9.96,1.53-.85,3.36-1.12,4.93-.24,1.77.99,3.01,2.88,4.18,4.47,1.78,2.41,3.33,4.97,4.74,7.63-.44.08-.87.22-1.27.38-1.12.44-2.1,1.16-3.09,1.83-.91.61-1.9,1.04-2.9,1.47-.53.22-1.05.43-1.6.6-.26.08-.56.11-.81.22-.24.11-.47.3-.69.45-.51.35-.28,1.08.2,1.32,1,.49,2.19.33,3.27.2,1.17-.14,2.32-.52,3.4-.97.98-.41,1.88-.96,2.83-1.44.22-.11.43-.22.66-.31.12-.05.24-.09.36-.13.03,0,.08-.02.14-.03.52-.1.8-.22,1.16-.3,1.44,3.03,2.71,6.15,3.91,9.27-1.77.12-3.55.59-5.22,1.08-1.23.36-2.43.83-3.63,1.28-1.2.45-2.47.79-3.36,1.77-.51.56.03,1.31.62,1.45,1.16.27,2.41-.18,3.56-.38,1.24-.22,2.48-.38,3.72-.6,1.84-.33,3.79-.62,5.57-1.25.08.23.17.45.25.68,1.22,3.32,2.43,6.63,3.69,9.92-1.91-.14-3.82.25-5.71.55-1.01.16-2.03.31-3.04.47-1,.16-2.18.17-3.12.56-.94.39-1.02,2.01.04,2.32.98.29,2.1.18,3.12.18,1.13,0,2.26-.03,3.39-.07,2.14-.08,4.38-.2,6.35-1.1.03-.01.05-.04.08-.05,2.13,5.37,4.45,10.66,7.29,15.74.06.1.13.2.2.3-.36-.24-.72-.48-1.07-.74ZM103.26,107.2c-.19.13-.37.26-.56.38-2.31-3.26-4.78-6.39-7.43-9.37-.73-.82-1.8-.72-2.5.05-1.77,1.93-3.91,3.61-5.9,5.31-.34.29-.68.59-1.01.89-1.81-3.78-3.35-7.67-4.91-11.55.97-1.66,1.78-3.41,2.65-5.13-.03.56.47,1.14,1.15.85.84-.36,1.72-.58,2.57-.92.7-.28,1.4-.56,2.1-.83,1.13,1.63,2.22,3.29,3.29,4.96-.4.22-.79.44-1.19.65-2.45,1.35-4.78,2.92-7.29,4.19-.27.14-.09.56.19.43,2.52-1.2,5.17-2.07,7.73-3.18.49-.21.98-.42,1.47-.64,1.06,1.7,2.1,3.4,3.11,5.12.54.92,2.08.29,1.55-.69-.95-1.76-1.99-3.46-3.09-5.13,1.53-.69,3.05-1.4,4.53-2.22.22-.12.36-.3.44-.49.69,1.15,1.38,2.3,2.11,3.42.5.76,1.67-.01,1.33-.81-.94-2.2-2.3-4.19-3.72-6.11-1.42-1.93-2.97-3.76-4.62-5.49-.58-.61-1.6.18-1.03.83.12.14.24.28.35.42-.16-.01-.34,0-.53.07-.85.31-1.73.58-2.56.94-.85.37-1.67.79-2.49,1.22-.62-.73-1.24-1.45-1.88-2.16,2-2.29,4.66-4.12,7.74-4.4,1.41-.13,2.74.11,3.93.63.06.88.83,1.69,1.81,1.15h0c.78.68,1.44,1.52,1.92,2.55,1.55,3.37,2.03,7.45,2.37,11.11.41,4.44-.15,8.82-1.64,13.02-.13.36-.1.67,0,.93ZM90.64,86.36c.61-.25,1.21-.51,1.81-.78.86-.39,1.66-.92,2.48-1.38.4-.23.58-.58.6-.93,1.06,1.3,2.07,2.65,3.01,4.04.28.42.55.85.82,1.27-.12,0-.26.03-.39.09-1.66.71-3.24,1.52-4.82,2.37-1.12-1.6-2.29-3.16-3.51-4.69ZM177.23,78.96c3.4,2.35,4.04,6.83,2.41,10.58-.54,1.25.39,2.46,1.6,2.7,3.17.64,6.2,3.34,7.3,6.36.51,1.4.58,3.04.21,4.49-.4,1.56-1.29,2.61-2.44,3.68-1.66,1.54-2.17,3.32-.94,5.32.91,1.49,1.56,3.06,1.84,4.78.54,3.37-.22,7.34-2.66,9.87-1.19,1.23-2.83,1.96-4.42,1.04-.74-.42-1.35-1.06-1.88-1.76-.44-.93-.98-1.82-1.64-2.63-1.1-1.36-3.54,0-2.69,1.64.47.91,1.02,1.85,1.65,2.73.1.27.19.55.25.83.13.59.27,1.25.21,1.85,0,.09-.1.44-.04.38.09-.1.02,0,0,.01-1.38.85-3.27-4.07-3.59-4.78-1.65-3.69-2.8-7.62-3.43-11.62.59.69,1.25,1.33,1.97,1.86,1.32.96,2.87,1.96,4.57,1.86.97-.05,1.32-1.16,1.06-1.93-.43-1.26-1.58-2.28-2.35-3.33-.78-1.06-1.63-2.08-2.36-3.18-1.3-1.95-2.29-4.52-2.71-6.8-.45-2.49-.45-5.07.02-7.56.51-2.69,1.18-5.25,2.74-7.53.55-.8-.52-1.98-1.28-1.23-.33.32-.66.66-.99,1,.09-2.74-1.16-5.42-3.2-7.15,2.87-2.77,7.57-3.69,10.77-1.48ZM159.08,83.11c1.15-.36,2.39-.5,3.47-.04.06.02.31.16.36.18.21.13.4.28.59.43.04.03.06.05.07.06.08.09.17.18.25.26.18.2.34.42.49.64.02.02.02.03.03.05,0,.01.01.02.02.04.06.1.11.2.16.31.12.24.22.5.32.75.04.1.08.21.12.31.07.3.12.59.16.89,0,.03.02.22.03.3,0,.06,0,.12,0,.13-.02.27-.04.54-.09.8-.01.08-.03.15-.05.23,0,.02-.02.06-.05.12-.12.33-.25.66-.41.98-.11.2-.23.4-.37.59-.59-.77-1.2-1.53-1.79-2.3l-3.27-4.28c-.19-.25-.45-.3-.67-.22.2-.09.4-.17.61-.23ZM158.11,84.39c1.01,1.49,2.01,2.99,3.02,4.48.61.9,1.19,1.81,1.8,2.71-.64.59-1.37,1.14-2.11,1.64-1.83-2.57-3.84-5.01-5.72-7.55,1.06-.84,2.09-1.76,3.33-2.31-.36.15-.61.61-.33,1.04ZM145,98.94c-1.14-1.29-2.31-2.55-3.52-3.77-.7-.71-1.92-.88-2.56.05-1.85,2.66-4.24,5.04-6.64,7.19-.61.55-1.24,1.09-1.88,1.6-.14.11-1.33.88-1.71,1.24-.17-.25-.39-.48-.58-.71-.56-.69-1.14-1.36-1.73-2.02-.23-.25-.47-.49-.7-.74.11-.08.21-.18.28-.31.09-.17.19-.33.28-.5.24-.04.47-.19.57-.5.12-.36.22-.71.31-1.06,2.17-3.84,4.4-7.65,6.54-11.5.56,0,1.1-.42,1.05-1.2-.01-.2-.04-.39-.05-.59,2.71-4.97,5.45-9.92,8.08-14.93.39-.75-.14-1.73-.87-2.03-.85-.35-1.63.13-2.02.87-2,3.74-3.93,7.53-5.86,11.31-.07-.42-.15-.83-.23-1.25-.2-1.08-.46-2.15-.7-3.22-.24-1.06-.35-2.26-1.1-3.11-.33-.37-.93-.31-1.13.17-.41,1.01-.16,2.1-.03,3.15.13,1.13.25,2.26.43,3.38.25,1.56.5,3.1.84,4.64l-.13.26c-1.49,2.91-2.91,5.85-4.33,8.79-.06-1.04-.17-2.07-.33-3.09-.25-1.56-.7-3.09-1.13-4.61-.46-1.63-.85-3.28-1.28-4.92-.15-.55-1.03-.45-.9.13.66,3.06,1.15,6.05,1.36,9.18.18,2.67.17,5.35,0,8.02-.27.55-.54,1.11-.82,1.66-.57-.57-1.15-1.12-1.74-1.67-1.22-1.13-2.57-2.57-4.2-3.05-1.65-.48-2.82.26-3.87,1.28,0-.01,0-.03,0-.04-.14-.52-.4-1.01-.59-1.51-.34-.93-.59-1.87-.76-2.85-.33-1.92-.38-4.03.23-5.9,1.01-3.1,3.58-5.74,6.93-6.01.74-.06,1.37-.78,1.45-1.49.43-3.66.93-7.4,2.5-10.78.73-1.57,1.75-3.02,3.08-4.13,1.59-1.33,3.59-2.07,5.17-3.42,2.99-2.54,3.7-6.37,5.21-9.79.71-1.62,1.77-3.15,3.29-4.1,1.49-.93,3.47-1.17,5.16-1.54,1.88-.4,3.8-.72,5.71-.92.9-.09,1.4-.13,2.3-.02.19.02.38.05.57.09.09.02.14.03.19.04.01,0,.04.02.12.05.61.21.55.2,1.03.54.02.02.11.09.16.15.14.15.27.3.39.46.04.06.06.08.08.08.02.04.03.06.05.12.08.17.16.33.23.5.05.12.09.25.13.37.01.08.07.32.08.39.04.24.08.47.1.71,0,.07.04.51.05.56.03,1.96-.57,3.92-1.03,5.8-.55,2.26-.94,4.53-.54,6.86.41,2.32,1.58,4.44,1.94,6.77.56,3.59-.9,6.97-3.57,9.36-1.79,1.61-3.58,3.22-4.23,5.62-.59,2.17-.33,4.34-.34,6.56,0,2.02-.23,3.96-1.25,5.75-.84,1.48-2.12,2.64-3.52,3.59ZM155.11,96.75c-.06.04-.12.07-.18.11-1.61.95-3.89,1.82-4.85,3.49-.25.43-.29,1.05-.09,1.53-.14.14-.27.28-.4.41-.34.33-.68.65-1.02.97-.49-.62-.98-1.24-1.47-1.85,2.93-1.64,4.99-4.89,5.72-8.1.09.14.18.28.26.42.27.46.61.89.91,1.32.29.41.58.82.86,1.22.1.14.2.28.31.42-.02.02-.03.03-.05.05ZM156.12,95.33c-.34-.39-.68-.77-1.03-1.16-.34-.38-.66-.78-1.02-1.13-.33-.32-.66-.68-1.03-.94.21-1.72.11-3.52.28-5.23.28-.14.55-.3.81-.48,1.54,2.39,2.99,4.84,4.54,7.22-.39,0-.78.14-1.06.47-.43.5-.86.98-1.31,1.45-.06-.07-.11-.14-.17-.2ZM192.52,277.05c-.36-2.54-.75-5.08-1.11-7.62-.87-6.15-1.77-12.3-2.7-18.45-1.84-12.16-3.8-24.3-5.88-36.42-4.15-24.24-8.74-48.41-13.96-72.45-1.48-6.8-3-13.58-4.62-20.35-.81-3.39-1.63-6.77-2.53-10.14-.9-3.39-2-6.72-2.99-10.08-.27-.92-1.2-1.09-1.95-.79.2-.29.37-.6.56-.89,1.43-.79,2.87-1.55,4.3-2.35,1.09-.61,2.18-1.27,3.18-2.02-.77,2.64-1.01,5.39-.66,8.15.26,2.03.85,3.96,1.69,5.79-.18.2-.3.47-.3.81.03,7.24,1.61,14.7,5.32,20.98.89,1.5,2.09,2.88,3.91,3.16.87.13,1.81,0,2.6-.38-.18,3.38-.16,6.77.07,10.16.28,4.1.84,8.16,1.46,12.22,1.23,8.12,3.01,16.17,4.92,24.16,3.83,16.05,8.12,31.98,11.67,48.1.98,4.47,1.95,8.94,2.72,13.45.74,4.34,1.22,8.73,2.01,13.06-.86-.34-1.84.19-2.07,1.2-1.12,4.93-2.18,9.88-3.65,14.72-.61,2-1.28,3.99-1.99,5.97ZM194.19,282.5c1.24-3.5,2.25-7.06,3.21-10.67,1.03-3.91,2.01-7.83,2.97-11.75.44.67.89,1.35,1.38,1.99,1.13,1.49,2.28,2.96,3.45,4.42,2.2,2.74,4.44,5.44,6.69,8.14-5.87,2.68-11.8,5.23-17.68,7.87ZM216.87,272.29c-.09-.19-.2-.38-.35-.54-2.52-2.77-5.05-5.53-7.62-8.25-1.29-1.36-2.59-2.71-3.92-4.03-.68-.68-1.35-1.39-2.08-2.01-.01-.01-.03-.02-.04-.03.71-.26,1.26-.92,1.17-1.92-.37-4.08-1.3-8.15-2.11-12.16-.81-4.04-1.63-8.08-2.51-12.1-1.73-8-3.69-15.95-5.63-23.89-3.9-15.93-7.56-31.89-10.39-48.06-1.56-8.88-2.77-17.82-4.49-26.66.26-.46.4-.97.46-1.5,1.22.54,2.61.69,4.18.2.77-.24,1.48-.6,2.12-1.05.08.96.15,1.92.2,2.88.14,2.49.44,4.96.73,7.43.58,4.94,1.34,9.86,2.13,14.78,1.56,9.69,3.13,19.39,4.97,29.04,3.69,19.39,7.92,38.7,13.35,57.69,1.54,5.38,3.15,10.73,4.87,16.06.86,2.67,1.82,5.3,2.8,7.93.77,2.06,1.68,4.03,2.54,6.04-.12.06-.25.12-.37.18Z"/>
      <path fill="#e5decd" d="M94.64,36.72c-.8-1.6-1.91-3-3.23-4.21-2.72-2.5-6.59-3.44-10.18-2.64-1.87.41-3.61,1.16-5.22,2.12,0-.03.01-.06.01-.09.04-.55.08-1.1.15-1.64.14-1.03.36-2.06.58-3.08.21-.97.44-1.94.75-2.88.17-.53.39-1.04.58-1.56.2-.52.29-1.08.44-1.62.33-1.16-1.03-1.99-1.85-1.03-.41.48-.84.96-1.12,1.53-.24.5-.44,1.02-.63,1.55-.42,1.16-.74,2.36-.87,3.59-.13,1.19-.08,2.36.07,3.54.05.38.11.75.19,1.13-.09-.15-.17-.29-.27-.44-.96-1.49-2.33-2.75-3.85-3.66-3.45-2.07-7.48-2.39-11.28-1.14-1.17.38-1.12,1.99-.3,2.66,2.59,2.08,5.25,4.22,8.37,5.46,1.49.59,3.1.99,4.71,1.05.01,0,.03,0,.04,0-2.63,2.66-4.66,5.98-5.91,9.41-.67,1.83-1.22,3.81-1.4,5.76-.18,1.96-.37,4.28.69,6.03.35.59,1.27.71,1.57-.03.56-1.42.54-2.91.75-4.41.21-1.47.49-2.95.92-4.37.9-2.95,2.33-5.68,4.26-8.09,3.54-4.42,10.08-8.68,15.47-4.73,1.15.84,2.07,1.94,2.81,3.16.89,1.46,1.44,3.12,2.39,4.53.72,1.06,2.25.37,2.45-.7.32-1.7-.32-3.68-1.07-5.18ZM67.72,31.4c-1.64-.72-3.12-1.72-4.54-2.82,1.9.02,3.82.51,5.43,1.42,1.1.62,2.07,1.47,2.92,2.4-1.32-.12-2.59-.47-3.81-1Z"/>
      <path fill="#e5decd" d="M138.94,40.5c-4.19-.44-7.41-4.73-9.46-8.05-2.34-3.78-3.8-7.98-5.17-12.18-.33-1-1.68-1.68-2.68-1.48-1.28.25-2.59.62-3.82,1.12-.03,0-.07-.02-.1-.02-1.7-.24-3.56.3-4.78,1.54-.63.64-1,1.34-1.13,2.25-.1.68-.41,1.28-.6,1.94-.83,2.88-1.16,5.97-1.2,8.95-.08,6.07,1.12,12.05,3.71,17.55.72,1.53,1.58,2.98,2.53,4.37.97,1.42,1.95,2.77,3.45,3.66.61.36,1.26-.16,1.05-.84-.47-1.49-1.32-2.74-2.06-4.11-.69-1.27-1.3-2.58-1.89-3.9-1.22-2.72-2.11-5.57-2.72-8.48-.61-2.91-.91-5.9-.82-8.87.04-1.45.17-2.89.38-4.33.17-1.14.3-2.85.99-3.89.34-.19.68-.37,1.02-.55,1.19,4.32,2.87,8.63,5.06,12.48,1.14,2,2.45,3.96,3.97,5.7,1.41,1.61,3.28,3.76,5.46,4.16,1.03.19,1.43-1.03.98-1.76-.58-.93-1.51-1.51-2.29-2.27-.73-.7-1.4-1.47-2.02-2.26-1.3-1.66-2.31-3.47-3.15-5.41-1.67-3.85-2.35-7.93-3.31-11.97.03,0,.05,0,.08,0,1.87,4.1,3.87,8.22,6.56,11.83,1.48,1.99,3.22,3.82,5.2,5.34,1.97,1.51,4.67,2.89,7.14,1.77,1.07-.49.86-2.18-.34-2.31Z"/>
      <path fill="#e5decd" d="M125.35,53.18c-.8-.99-1.58-2.01-2.34-3.03-.74-1-1.44-2.03-2.01-3.14-.59-1.13-1.08-2.32-1.44-3.55-.18-.61-.32-1.22-.54-1.81-.21-.58-.6-1.07-.82-1.64-.15-.36-.61-.22-.69.1-.16.67-.44,1.25-.42,1.96.01.7.1,1.35.26,2.03.32,1.39.77,2.75,1.35,4.05,1.17,2.62,2.78,4.93,5.18,6.55.98.66,2.26-.56,1.47-1.53Z"/>
      <g>
        <path fill="#e5decd" d="M46.99,196.9c-3.79-1.06-7.58-2.13-11.38-3.19-1.87-.52-3.73-1.07-5.61-1.56-.94-.25-1.88-.49-2.82-.74-.18-.05-.37-.1-.55-.16-1.95-3.22-4.34-6.06-7.78-7.79-3.56-1.79-7.51-1.45-10.83.68-5.81,3.74-8.45,11.14-7.97,17.82.53,7.4,5.01,14.1,10.53,18.82,2.82,2.4,6.11,4.31,9.73,5.16,3.77.88,7.55.15,10.73-2.05,3.29-2.27,6.3-5.87,7.57-9.69,1.06-3.19.87-7.05-1.13-9.8.97-.33,1.94-.69,2.89-1.09,2.45-1.03,4.79-2.3,7.01-3.76.92-.61.69-2.34-.39-2.64ZM39,200.6c-1.11.48-2.23.92-3.38,1.31-1.17.4-2.52.59-3.55,1.3-.94.65-.4,2.18.66,2.31.48.06.97.01,1.46-.09,1.64,2.13,1.86,4.48,1.25,6.75-.49.17-.98.35-1.48.49-.86.23-1.78.37-2.67.37-1.72.02-3.44-.39-4.97-1.17-1.8-.92-3.17-2.4-4.39-3.98-.66-.86-1.33-1.75-1.84-2.71-.27-.52-.55-1.04-.74-1.6-.2-.57-.23-1.15-.35-1.72-.15-.68-1.13-.88-1.4-.16-.96,2.47.58,5.37,1.95,7.36,1.44,2.1,3.14,4.06,5.4,5.3,1.95,1.06,4.17,1.57,6.38,1.55.82,0,1.69-.07,2.56-.23-1,1.61-2.29,3.09-3.61,4.28-2.32,2.11-5.03,3.29-8.2,2.93-3.03-.34-5.87-1.76-8.31-3.53-5.1-3.68-9.29-9.08-10.54-15.34-1.07-5.39.2-11.55,4.25-15.47,1.23-1.19,2.68-2.26,4.34-2.76,1.6-.49,3.24-.28,4.79.3,2.63.98,4.63,3.01,6.55,5.03-.46.54-.36,1.49.44,1.92.84.45,1.84.65,2.74.94.92.29,1.85.58,2.77.87,1.85.58,3.71,1.11,5.57,1.65,2.64.78,5.28,1.56,7.92,2.33-1.17.65-2.37,1.24-3.6,1.78Z"/>
        <path fill="#e5decd" d="M139.49,271.51c-2.91-1.33-5.86-2.54-8.88-3.58,1.19-.16,2.36-.42,3.53-.86,2.56-.98,4.78-2.74,5.99-5.23.37-.75-.26-1.75-1.07-1.81-2.93-.22-5.88-.26-8.82-.13-2.64.13-5.42.28-8.01.9-1.54-.55-3.13-.64-4.79-.81-1.93-.2-3.86-.54-5.75-.99-3.82-.91-7.51-2.1-11.14-3.6-7.73-3.2-15.34-6.76-22.86-10.44-2.82-1.38-5.61-2.83-8.4-4.27-1.18-1.01-2.36-2.01-3.59-2.96-.47-.36-.96-.76-1.46-1.15-1.82-1.52-3.75-3.27-6.1-3.72-.48-.09-1.05.32-.86.86.56,1.62,1.79,2.92,2.92,4.17,1.11,1.23,2.31,2.39,3.57,3.47,2.52,2.18,5.25,4.13,8.11,5.84,5.93,3.55,12.28,6.29,18.62,9.01.83.36,1.67.73,2.52,1.09,5.39,2.54,10.95,4.75,16.8,5.87,2.33.44,4.71.58,7.08.54,1.45-.02,2.89-.11,4.2-.58.2.12.46.19.77.16,2.82-.21,5.6-.7,8.43-.83,2.08-.1,4.17-.08,6.25.03-2.85,3.19-8.14,3.63-12.14,3.53-1.17-.03-1.84,1.71-.55,2.14,3.92,1.29,7.82,2.69,11.62,4.29,1.93.81,3.84,1.68,5.71,2.6.27.13.55.27.82.41-.27-.08-.54-.16-.81-.23-1.78-.5-3.56-.94-5.36-1.37-1.74-.42-3.46-.92-5.19-1.34-.92-.22-1.85-.44-2.77-.66-.77-.18-1.72-.55-2.45-.13-.24.14-.45.45-.28.73.4.68,1.06.85,1.79,1.07.91.27,1.82.55,2.73.83,1.76.54,3.55,1.02,5.3,1.59,1.7.55,3.38,1.15,5.09,1.69.91.29,1.81.58,2.72.87.8.26,1.6.58,2.44.51.07.83-.29,1.55-1.09,1.94-1.47-.78-3.1-1.21-4.69-1.68-1.66-.49-3.33-.95-5-1.39-3.32-.89-6.6-1.8-10.03-2.2-.69-.08-.9.86-.29,1.15,3.14,1.46,6.44,2.4,9.76,3.39,1.34.4,2.69.78,4.04,1.15-3.77-.1-7.53-.48-11.23-1.22-1.29-.25-2.57-.55-3.84-.87-.15.18-.41.28-.66.11-.37-.25-.77-.43-1.18-.6-.22-.06-.44-.11-.66-.17-.34-.1-.68-.21-1.02-.32-1.7-.32-3.53-.25-5.17-.26-1.3,0-2.61,0-3.9-.16-1.64-.21-3.27-.55-4.87-.96-5.71-1.46-11.07-3.96-16.29-6.65-2.59-1.34-5.15-2.73-7.73-4.09-.75-.4-1.51-.78-2.27-1.16-.62-.21-1.25-.42-1.87-.65-1.73-.62-3.44-1.28-5.12-2.05-1.53-.7-2.97-1.53-4.41-2.39-.18-.11-.38-.22-.57-.32-4.9-2.13-9.78-4.29-14.63-6.53-3.48-1.61-6.93-3.28-10.43-4.86-1.74-.78-3.48-1.57-5.23-2.34-1.74-.77-3.44-1.67-5.25-2.26-.82-.27-1.3.7-.71,1.27,2.52,2.36,5.71,4.27,8.63,6.11,2.89,1.82,5.91,3.47,8.92,5.09,6.01,3.22,12.21,6.06,18.44,8.81.51.23,1.03.44,1.54.67,0,.06.02.12.03.18,1.16.77,2.38,1.43,3.6,2.08-.07-.26-.13-.52-.2-.79,4.75,2,9.55,3.9,14.35,5.78,6.23,2.44,12.47,4.89,18.81,7.03,3.51,1.19,7.08,2.24,10.71,3.01,1.85.39,3.74.76,5.63.9,1.94.14,3.7-.21,5.58-.64.07-.02.13-.05.19-.08,3.79.76,7.64,1.19,11.51,1.17,2.07-.01,4.37.12,6.34-.63,1.83-.7,2.95-2.38,2.89-4.33-.13-4.39-4.96-6.23-8.34-7.78Z"/>
        <g>
          <path fill="#e5decd" d="M133.15,346.43c-1.74.22-3.4.63-5.01,1.37-1.58.73-3.06,1.65-4.54,2.56-2.75,1.69-5.54,3.22-8.76,3.79-1.69.3-1.78,2.97.04,3.12,1.87.15,3.54-.22,5.26-.97,1.62-.71,3.14-1.66,4.63-2.62,1.45-.93,2.99-2,4.62-2.83-2.72,3.9-5.29,7.92-7.91,11.88-1.73,2.61-3.49,5.21-5.29,7.77-1.32,1.89-2.6,4.04-4.37,5.58-.03-.05-.05-.09-.08-.14-.76-1.09-1.74-2.01-2.66-2.96-1.01-1.03-2.02-2.05-3.04-3.07-1.96-1.95-3.94-3.88-5.86-5.87-3.9-4.02-8.11-7.8-12.28-11.54-8.44-7.56-16.94-15.08-25.61-22.37-2.46-2.07-4.89-4.17-7.39-6.18-.85-.69-1.7-1.39-2.56-2.08-.07-.32-.26-.61-.53-.86-3.53-3.16-7.37-5.94-10.98-9.01-3.47-2.96-6.83-6.02-9.93-9.36-6.52-7.03-11.83-14.94-15.65-23.73-1.07-2.47-2.01-5-2.76-7.58-.36-1.23-.69-2.47-1.01-3.71-.13-.51-.25-1.03-.39-1.54.13-.69.16-1.4.21-2.1.14-1.68.21-3.36.28-5.04.06-1.64.18-3.28.33-4.92.16-1.68.57-3.38.59-5.06,0-.97-.44-1.87-1.46-2.11-.9-.22-1.97.21-2.29,1.15-.59,1.69-.7,3.59-.87,5.37-.16,1.75-.21,3.5-.18,5.27.02,1.83.18,3.61.58,5.39.17.74.34,1.5.61,2.21.05,1.68.41,3.41.74,4.96.52,2.46,1.2,4.89,1.99,7.28,1.58,4.74,3.81,9.25,6.39,13.51,5.06,8.38,11.69,15.65,19.05,22.08,3.1,2.71,6.37,5.28,9.87,7.45-.05.05-.1.11-.13.17-.15.27-.29.39-.36.7-.07.27-.08.55-.15.82-.17.62-.19,1.23-.27,1.87-.15,1.24-.43,2.45-.66,3.68-.42,2.27-1.17,4.46-1.96,6.62-1.47,4-3.21,7.91-5.55,11.41-2.29,3.45-5.09,6.46-8.49,8.56-1.55.95-3.65,1.9-5.54,2.52-.76.25-1.39.42-2.46.64-1.05.21-2.11.37-3.18.46-1.34.12-1.84.12-3.07.07-1.16-.05-2.31-.18-3.46-.35-2.28-.35-4.29-.93-6.62-1.77-.98-.35-2.1,0-2.6.93-.37.69-.35,1.62.12,2.27-.15,1.46.63,3.02,1.13,4.34.59,1.57,1.2,3.13,1.84,4.68,1.26,3.05,2.55,6.08,4.02,9.03,1.49,3,3.09,5.95,4.85,8.8,1.75,2.86,3.79,5.44,5.94,8,1.01,1.2,2.9.61,3.15-.9.62-3.74,1.23-7.48,1.66-11.25.21-1.83.38-3.66.52-5.5.07-.95.12-1.89.15-2.84,0-.22.01-.43.02-.65.31-.08.62-.18.92-.27.88-.26,1.75-.55,2.62-.87,1.72-.63,3.38-1.37,4.98-2.25,3.27-1.81,6.28-4.01,9.01-6.56,5.47-5.1,9.92-11.54,12.49-18.57.72-1.98,1.3-4.02,1.77-6.07.46-2.02.91-4.38.66-6.45-.22-1.85-3.04-2.22-3.66-.43-.31.88-.43,1.78-.62,2.68-.23,1.07-.4,1.64-.66,2.68-.11.44-.37,1.37-.58,2.07-.27.87-.57,1.73-.89,2.59-.61,1.64-1.34,3.22-2.1,4.79-.82,1.69-1.36,2.66-2.36,4.25-3.8,6-8.42,10.62-14.26,14.65-1.57,1.08-2.96,1.94-4.62,2.86-.87.48-1.76.94-2.67,1.36-.34.16-.7.3-1.04.47-.56-.27-1.28-.22-1.63.38-.93,1.6-.8,3.78-.94,5.6-.14,1.89-.32,3.78-.54,5.66-.27,2.34-.58,4.68-.96,7-1.04-1.55-2.03-3.14-3.01-4.71-1.7-2.73-3.26-5.53-4.72-8.4-1.48-2.89-2.92-5.8-4.3-8.74-.69-1.47-1.39-2.94-2.08-4.4-.14-.3-.28-.62-.43-.94,7.53,3.19,16.92,2.3,23.95-1.61,8.54-4.74,13.59-13.37,16.73-22.34.98-2.79,1.87-5.64,2.37-8.55.26-1.5.26-3,.1-4.51-.06-.58-.17-1.17-.35-1.73.93.97,1.96,1.88,2.93,2.81,2.08,1.99,4.21,3.94,6.32,5.89,4.23,3.9,8.51,7.73,12.81,11.56,8.25,7.35,16.62,14.56,24.79,22,2.25,2.05,4.55,4.02,6.74,6.15,1.11,1.08,2.22,2.17,3.31,3.28,1.12,1.13,2.18,2.36,3.45,3.32,1.06.8,2.2.2,2.6-.75,2.52-1.03,4.32-3.01,6.02-5.1,2.04-2.52,4.05-5.07,6.03-7.64,3.98-5.19,7.81-10.63,10.88-16.41.58-1.1-.61-2.27-1.69-2.13Z"/>
          <path fill="#e5decd" d="M112.82,355.22c-.2-.76-.42-1.39-.91-2.02-.37-.47-.76-.92-1.14-1.38-.76-.92-1.52-1.85-2.32-2.74-1.54-1.69-3.08-3.38-4.64-5.05-3.19-3.43-6.48-6.77-9.8-10.08-6.66-6.64-13.44-13.18-20.6-19.29-1.98-1.69-3.98-3.37-5.99-5.04-1.01-.83-2.02-1.64-3.07-2.42-1.12-.84-2.35-1.12-3.63-1.63-.4-.16-.95.3-.7.72.56.97.95,2.11,1.69,2.95.82.92,1.74,1.77,2.63,2.62,1.62,1.53,3.23,3.07,4.83,4.62,3.31,3.22,6.62,6.43,9.92,9.66,6.66,6.52,13.14,13.18,19.58,19.92,1.81,1.89,3.6,3.8,5.38,5.71.86.92,1.73,1.82,2.62,2.71,1.06,1.07,2.02,2.33,3.46,2.87,1.29.49,3.11-.61,2.71-2.14Z"/>
        </g>
      </g>
    </g>
  </g>
</svg>
