<?xml version="1.0" encoding="UTF-8"?>
<svg xmlns="http://www.w3.org/2000/svg" viewBox="0 0 397.31 33.2">
  <g>
    <path fill="#4ea8c5" d="M394.88,26.08c-8.04-1.8-16.13-3.41-24.24-4.88.39-.39.68-.89.81-1.52.34-1.67-.79-3.47-2.5-3.78-43-7.79-86.5-12.71-130.15-14.78C195.43-.94,151.93-.16,108.67,3.48c-24.39,2.05-48.62,5.17-72.8,8.94-3.7.58-3.33,5.66.39,5.77,19.87.6,39.74,1.17,59.61,1.74-2.4.38-4.8.77-7.2,1.17-25.62,1.5-51.23,3.01-76.85,4.51-1.53.09-3.13.32-4.67.27-.29,0-.58-.08-.86-.12.08-.63-.05-1.29-.46-1.9-.81-1.22-2.87-1.8-4.08-.78-2.08,1.76-2.44,4.34-.47,6.38,1.75,1.83,4.21,2.38,6.65,2.26,6.74-.33,13.48-.77,20.22-1.16l20.32-1.17c-.99,1.52-.27,4.11,1.95,3.69,11.09-2.09,22.22-3.99,33.36-5.72,21.63-1.24,43.27-2.49,64.9-3.74,8.22-.48,16.44-.97,24.66-1.46,1.32.04,2.63.08,3.95.12,46.61,1.4,93.11,3.65,139.56,7.75,25.76,2.28,51.75,4.43,77.6,2.25,3.53-.3,3.9-5.43.42-6.21ZM165.87,6.41c38.33-.97,76.71.3,114.88,3.82-12.43-.52-24.86-.88-37.3-1-36.76-.35-73.51,1.48-110.03,5.62-6.14-.15-12.28-.31-18.41-.47-14.67-.38-29.33-.75-44-1.11,31.48-3.84,63.2-6.06,94.86-6.86ZM255.31,19.05c-3.81-.21-7.62-.39-11.43-.58,21.28-.7,42.57-.63,63.82.87,19.95,1.41,39.84,3.87,59.52,7.44-14.1-.19-28.19-1.18-42.25-2.4-23.21-2.02-46.4-4.05-69.67-5.33Z"/>
  </g>
</svg>
