<?xml version="1.0" encoding="UTF-8"?>
<svg xmlns="http://www.w3.org/2000/svg" viewBox="0 0 394.95 324.53">
  <g>
    <g>
      <path fill="#4ea8c5" d="M133.61,106.67c.8-.69.84-1.97.37-2.84-5.35-9.85-11.28-19.22-18.23-28.02-6.83-8.64-14.45-16.62-22.67-23.93-8.35-7.43-17.29-14.16-26.59-20.34-9.36-6.23-19.14-11.83-29.2-16.84C27.23,9.67,16.89,5.29,6.33,1.47,5.01.99,3.7.53,2.38.07,1.46-.25.63.58.59,1.44.35,5.74.29,10.04,0,14.34c-.1,1.47,2.2,1.47,2.29,0,.24-3.65.64-7.28.95-10.92,9.78,3.7,19.4,7.86,28.8,12.45,9.98,4.87,19.69,10.3,29.02,16.33,9.2,5.96,17.98,12.56,26.21,19.8,8.19,7.21,15.86,15.05,22.77,23.49,6.89,8.41,12.96,17.49,18.07,27.09.31.59.62,1.18.91,1.77-4.97,3.92-9.81,8.02-14.67,12.08-2.26-2.53-4.61-5.11-7.48-6.89-3.57-2.21-9.2-3.12-12.05.64-.86,1.13.74,2.24,1.76,1.76,3.04-1.43,6.05-1.13,8.82.73,1.5,1.01,2.78,2.34,4.01,3.66.73.79,1.45,1.59,2.18,2.39-1.86,1.54-3.71,3.08-5.57,4.62-.58-.65-1.16-1.3-1.74-1.95-2.54-2.86-4.96-5.92-7.76-8.54-.86-.8-2.31-.48-2.63.69-.13.46-.05.88.16,1.21h0c1.86,2.83,4.15,5.39,6.33,7.98.87,1.04,1.76,2.06,2.63,3.09-2.79,2.32-5.58,4.63-8.38,6.95-2.96,2.46-5.94,4.91-8.89,7.38l-4.43,3.71c-.71.6-1.43,1.2-2.14,1.79-.46.38-1.05,1.02-1.67,1.11-1.02.15-2.25-1.53-2.89-2.17-1.14-1.12-2.28-2.24-3.4-3.37-2.25-2.27-4.45-4.58-6.6-6.94-8.56-9.38-16.38-19.42-23.34-30.04-6.99-10.67-13.13-21.92-18.37-33.56-5.21-11.57-9.34-23.57-12.82-35.77-.44-1.53-1.02-3.03-1.53-4.54-.28-.82-1.74-.75-1.61.22.21,1.61.38,3.24.73,4.83.36,1.61.74,3.21,1.13,4.81.79,3.2,1.73,6.36,2.71,9.5,1.95,6.23,4.17,12.38,6.64,18.43,4.96,12.16,10.92,23.88,17.84,35.04,4.73,7.63,9.9,15,15.47,22.05-.01,0-.02,0-.04,0-1.16.05-2.04.97-2.82,1.76-.88.88-1.64,1.89-2.41,2.87-1.49,1.91-2.89,3.9-3.96,6.09-2.24,4.6-2.74,9.59-1.13,14.48,1.57,4.8,4.6,8.96,7.92,12.7,3.42,3.86,7.17,7.46,11.12,10.78,4.53,3.8,9.34,7.34,14.43,10.35,1.82,1.07,3.8-1.04,2.83-2.83-3.08-5.62-5.47-11.59-7.22-17.76-.84-2.97-1.62-6.01-2.08-9.06-.36-2.38-.27-4.79,1.2-6.79.43-.59.16-1.52-.38-1.92-.64-.48-1.35-.35-1.95.12-2.42,1.9-2.81,5.24-2.58,8.11.26,3.28,1.04,6.56,1.87,9.74,1.14,4.38,2.63,8.66,4.39,12.82-5.83-4.12-11.28-8.7-16.26-13.87-5.73-5.95-12.08-13.69-9.67-22.53.63-2.31,1.76-4.44,3.05-6.44.68-1.05,1.41-2.07,2.16-3.06.41-.54.83-1.07,1.22-1.62.15-.21.28-.43.42-.65.16-.26.78-.87.2-.69.52-.16.82-.59.9-1.05,2.23,2.78,4.53,5.51,6.89,8.18,2.15,2.43,4.35,4.81,6.6,7.15,2.27,2.36,4.55,4.8,7.03,6.94,1.46,1.26,3.15,2.2,5.14,1.84,1.87-.34,3.31-1.77,4.74-2.92,3.09-2.5,6.19-5.01,9.27-7.52,4.55-3.71,9.09-7.43,13.64-11.14.36.42.71.84,1.07,1.26,4.44,5.15,9.03,10.18,13.63,15.19,1.26,1.37,2.52,2.75,3.81,4.1,1.35,1.42,2.67,2.99,4.16,4.27,1.29,1.11,3.54.43,3.51-1.45-.03-2.21-.06-4.36-.41-6.56-.34-2.12-.82-4.2-1.52-6.23-1.4-4.05-3.44-7.85-5.88-11.37-2.09-3.02-4.44-5.85-6.87-8.6,3.85-3.15,7.7-6.29,11.54-9.45,1.54-1.26,3.08-2.52,4.58-3.82ZM126.31,139.8c.75,2.01,1.34,4.08,1.71,6.2.09.52.16,1.06.22,1.62-.03-.03-.06-.06-.08-.09-1.15-1.24-2.31-2.46-3.46-3.69-2.31-2.46-4.6-4.93-6.87-7.41-2.92-3.19-5.82-6.4-8.71-9.62,1.87-1.53,3.74-3.07,5.62-4.6,4.66,5.28,9.09,10.96,11.58,17.6Z"/>
      <path fill="#4ea8c5" d="M81.7,63.04c-5.62-9.17-15.15-15.33-24.58-20-1.8-.89-3.25,1.57-1.57,2.69,7.03,4.67,14.45,9.06,19.92,15.62,4.76,5.71,7.94,13.78,6.24,21.25-.77,3.38-2.55,6.63-5.64,8.35-1.35.75-2.77.99-4.25.58-1.92-.53-3.6-1.91-5.15-3.1-6.53-5.03-11.99-11.43-15.98-18.64-2.16-3.91-4.32-8.71-2.77-13.22.56-1.62,1.82-3.12,3.24-4.06.73-.48,1.5-.89,2.36-1.09.48-.11.92-.05,1.39-.11.43-.05.82-.28,1.25-.37.13-.03.2-.2.13-.31-.5-.74-.94-1.16-1.84-1.34-1.02-.2-2.03-.18-3.04,0-1.93.35-3.72,1.52-5.02,2.97-3.37,3.76-3.44,8.9-1.98,13.51,1.46,4.63,4.11,8.94,6.95,12.85,2.74,3.78,5.85,7.28,9.33,10.39,1.85,1.65,3.79,3.22,5.83,4.63,1.98,1.37,4.22,2.41,6.66,2.44,4.56.05,8.47-3.24,10.65-7.01,4.65-8.05,2.5-18.49-2.12-26.03Z"/>
      <path fill="#4ea8c5" d="M175.69,98.47c-3.73-10.15-9.2-20.13-17.89-26.86-7.84-6.08-18.31-9.06-28.05-6.28-2.47.71-4.87,1.76-7.01,3.18-2.23,1.49-4.01,3.37-5.47,5.62-.5.78.63,1.63,1.27.98,6.02-6.12,15.19-8.06,23.4-6.44,9.23,1.82,16.64,8.23,21.81,15.93,1.83,2.72,3.42,5.59,4.83,8.55-.41-.24-.81-.48-1.22-.71-2.61-1.49-5.33-2.79-8.11-3.92-2.88-1.17-6.01-2.37-9.17-2.16-2.7.18-5.26,1.22-7.44,2.81-2.53,1.85-4.64,4.14-6.61,6.56-.56.68-.67,1.65,0,2.32.61.61,1.71.65,2.32,0,2.1-2.23,4.24-4.55,6.88-6.16,1.23-.75,2.52-1.36,3.95-1.63,1.61-.31,3.21-.04,4.76.41,3.33.97,6.56,2.45,9.59,4.13,1.53.85,3.01,1.78,4.47,2.73,1.4.92,2.62,2.08,3.93,3.13.79.63,1.8.9,2.73.35.81-.47,1.37-1.62,1.03-2.54Z"/>
      <path fill="#4ea8c5" d="M177.03,219.93c-4.97-5.76-10.46-11.04-15.92-16.33-5.46-5.3-10.96-10.55-16.65-15.61-1.63-1.45-3.26-2.88-4.9-4.32-1.59-1.39-3.11-2.77-4.89-3.9-.21-.13-.51.14-.35.35,2.22,2.94,5.1,5.4,7.69,8.01,2.68,2.7,5.35,5.4,8.04,8.08,5.38,5.38,10.68,10.83,15.91,16.35,2.99,3.16,5.99,6.29,9.12,9.31,1.3,1.25,3.11-.62,1.95-1.95Z"/>
      <path fill="#4ea8c5" d="M193.68,208.88c-5.8-6.2-11.89-12.08-17.98-17.98-6.04-5.86-12.08-11.72-18.14-17.56-3.46-3.34-7.11-6.46-10.56-9.81-.55-.54-1.39.3-.84.84,1.5,1.5,3.01,2.99,4.41,4.58,1.4,1.59,2.86,3.14,4.34,4.65,2.98,3.02,5.95,6.04,8.94,9.04,5.93,5.97,11.87,11.93,17.8,17.9,3.39,3.41,6.87,6.7,10.43,9.94,1.08.98,2.61-.53,1.61-1.61Z"/>
      <path fill="#4ea8c5" d="M137.74,139.14s-.05.07,0,.07.05-.07,0-.07Z"/>
      <path fill="#4ea8c5" d="M203.05,176.84c-6.06-9.77-13.58-18.66-21.53-26.94-7.94-8.27-16.48-15.93-25.53-22.97-2.55-1.99-5.13-3.94-7.76-5.82-1.32-.94-2.64-1.94-4.03-2.78-.47-.28-.95-.53-1.27-.98-.29-.4-.56-1.13-1.15-1.19-.16-.02-.31-.03-.47-.05-1.03-.1-1.83,1.11-1.55,2.03.8,2.56,3.25,3.96,5.26,5.52,2.23,1.74,4.44,3.51,6.63,5.3,4.34,3.56,8.56,7.26,12.69,11.06,8.35,7.68,16.23,15.85,23.78,24.31,4.23,4.74,8.31,9.61,12.52,14.38,1.16,1.32,3.35-.39,2.43-1.87Z"/>
      <path fill="#4ea8c5" d="M329.8,187.21c-1.76-8.11-5.66-17.67-14.28-20.4-2.87-.91-6.1-.92-8.9.14-.12-6.48-.88-12.98-2.17-19.31-.78-3.83-1.79-7.62-3-11.33-1.07-3.26-2.33-6.51-4.45-9.25-4.36-5.65-11.76-7.3-18.58-6.88-6.24.38-12.35,2.44-17.58,5.85-5.52,3.6-10.15,8.63-12.93,14.62-8.21,1.21-14.37,7.57-17.6,15.05-1.77,4.09-2.82,8.45-3,12.91-.24,5.82.7,11.64,1.71,17.35,1.05,5.92,2.24,11.82,2.52,17.83-6.04.92-11.17,4.92-14.58,9.95-3.57,5.26-5.18,11.49-6.36,17.69-3.87-3.05-9.04-4.19-14.03-3.57-7.23.91-13.2,5.23-17.72,10.78-1.75,2.14-3.32,4.41-4.79,6.74-3.19-7.11-8.55-13.17-15.29-17.17-8.43-5.01-18.95-6.23-28.36-3.53-5.29,1.52-10.26,4.28-14.18,8.15-.96.95.34,2.78,1.49,1.93,7.33-5.41,16.39-8.27,25.52-7.39,8.43.82,16.2,5.27,21.65,11.67,3,3.52,5.25,7.71,6.49,12.17.52,1.86,3.2,2.27,4.17.55,3.21-5.71,6.69-11.54,11.97-15.6,4.45-3.42,10.21-5.11,15.69-3.75,2.71.67,5.26,2.1,6.91,4.43.92,1.3,3.49,1.44,3.82-.5,1.13-6.75,2.19-13.93,5.88-19.84,2.97-4.76,7.94-8.79,13.74-8.98,1.05-.03,1.98-.87,1.96-1.96-.15-11.24-3.84-22.06-4.25-33.27-.3-8,1.8-16.54,7.55-22.4,2.93-2.99,6.58-4.79,10.63-4.84.75,0,1.64-.41,1.97-1.13,2.3-4.96,5.6-9.34,10.02-12.61,4.39-3.24,9.65-5.51,15-6.2,5.4-.7,12.05-.23,16.01,3.98,1.97,2.1,3.1,4.87,4.01,7.56,1.15,3.39,2.09,6.86,2.86,10.35,1.78,8.05,2.54,16.17,2.48,24.41-.01,1.98,2.7,3.3,4.1,1.7,1.96-2.25,4.95-2.77,7.86-2.06,3.33.81,5.82,3.23,7.59,6.13,1.93,3.15,3.14,6.75,4.01,10.32.82,3.36,1.23,6.83.92,10.28-.32,3.58-1.59,7.09-4.37,9.48-1.86,1.61.85,4.3,2.7,2.7,6.56-5.66,6.91-14.84,5.19-22.75Z"/>
      <path fill="#4ea8c5" d="M394.87,314.21c-.32-3.22-1.29-6.36-2.98-9.13-1.75-2.87-4.14-5.03-6.92-6.87-2.57-1.7-5.62-3.35-6.48-6.55-.95-3.55.31-7.43.72-10.97.35-2.96-.05-6.05-1.32-8.75-1.35-2.87-4.04-4.83-7.24-4.95-3.68-.14-7.65,1.9-10.83,3.55-4.2,2.17-8,5-11.34,8.29,2.11-13.39,1.61-27.29-1.13-40.47-1.46-7.02-3.87-14.42-11.34-16.94-6.15-2.08-13.23.04-18.12,4.02-4.05,3.29-6.76,7.78-8.9,12.53-1.4-3.49-3.73-6.65-6.55-9.33-5.17-4.94-12.71-9.86-20.18-9.19-7.15.64-11.84,6.16-14.96,12.15-1.73,3.33-3.13,6.85-4.55,10.33-1.62,3.98-3.16,7.99-4.61,12.04-2.28,6.37-4.43,12.83-6.33,19.35-2.31-3.43-6.13-5.95-10.33-7.04-8.46-2.21-16.41,2.12-21.84,8.46-2.07,2.42-3.83,5.06-5.38,7.83-5.34-12.29-16.58-22.51-30.03-24.39-17.14-2.39-32.32,9.39-39.98,23.89-4.85,9.18-7.19,19.44-8.63,29.65-.17,1.21,1.6,1.79,1.9.52,3.65-15.64,9.02-32.65,22.5-42.65,5.92-4.39,13.06-7.28,20.52-7.02,6.71.24,13.18,3.12,18.28,7.41,6.02,5.07,10.47,11.92,12.67,19.47.54,1.85,3.6,2.62,4.5.59,2.9-6.61,6.74-13.58,13.1-17.43,2.83-1.71,5.93-2.66,9.25-2.28,2.79.32,5.63,1.48,7.77,3.31,2.24,1.91,3.92,4.71,3.49,7.72-.17,1.21.29,2.43,1.58,2.78,1.16.32,2.48-.39,2.78-1.58,1.9-7.57,3.92-15.04,6.43-22.44,2.49-7.35,5.27-14.62,8.35-21.74,2.16-5,4.77-10.81,9.85-13.47,5.97-3.13,12.95.77,17.68,4.46,5.05,3.94,10.4,10.21,9.38,17.11-.44,3,3.51,4.19,4.59,1.27,2.21-5.99,4.54-12.34,9.05-17.02,3.54-3.68,8.99-6.13,14.15-4.95,6.38,1.46,7.92,8.09,9.1,13.68,1.54,7.31,2.28,14.76,2.28,22.23,0,8.64-1.14,17.1-3.03,25.51-.61,2.7,2.96,4.27,4.47,1.89,3.39-5.34,8.09-9.82,13.49-13.1,2.73-1.66,5.7-3.16,8.79-4.03,2.51-.71,4.37-.06,5.43,2.34,1.04,2.36.93,5.04.56,7.53-.51,3.39-1.21,6.82-.52,10.24.68,3.37,2.91,5.84,5.63,7.77,2.42,1.72,5.07,3,7.12,5.2,2.13,2.29,3.47,5.25,4.07,8.3.57,2.91.47,6.49-.65,9.26-.78,1.94,2.36,2.79,3.14.87,1.23-3.04,1.93-5.91,1.6-9.23Z"/>
    </g>
  </g>
</svg>
