<?xml version="1.0" encoding="UTF-8"?>
<svg xmlns="http://www.w3.org/2000/svg" viewBox="0 0 551.57 186.16">
  <g>
    <g>
      <g>
        <path fill="#e5decd" d="M82.12,37c-4.38-5.18-9.15-10.04-14.15-14.62-5.07-4.65-10.41-9-15.96-13.06-3.1-2.26-6.27-4.42-9.51-6.47-.64-.41-1.63-.28-2.15.28-4.6,4.96-9.05,10.07-13.37,15.27.01-.4.02-.8.02-1.21,0-1.11-.03-2.23-.08-3.34-.05-1.08-.13-2.15-.2-3.23-.07-1.07-.08-2.36-.59-3.34.3-.19.59-.39.89-.58,1.76-1.14,3.65-2.16,5.3-3.46.74-.59.67-1.83.15-2.5-.6-.78-1.6-.92-2.46-.49-.86.43-1.66,1.03-2.46,1.57-.81.54-1.62,1.07-2.43,1.62-1.62,1.08-3.24,2.17-4.83,3.29-1.6,1.12-3.19,2.25-4.74,3.44-.83.64-1.65,1.28-2.46,1.95-.35.28-.72.55-1.03.87-.19.2-.43.47-.57.71-.17.29-.18.56-.15.85-.04.29-.04.61.23.77.47.27,1.02.37,1.54.2.55-.18,1.03-.46,1.52-.77.83-.51,1.65-1.01,2.47-1.54.34-.22.67-.44,1.01-.66,0,.29.03.59.06.87.13,1.15.31,2.21.44,3.35.13,1.12.23,2.25.29,3.37.07,1.29.07,2.58.09,3.87.02,1.28-.06,2.67.29,3.91-3.95,5.01-7.79,10.12-11.43,15.35-1.37,1.96-2.72,3.94-4.05,5.93-.66.98-1.29,1.98-1.93,2.97-.34.52-.7,1.04-.96,1.6-.26.57-.53,1.13-.79,1.7-.21.46-.17.98.26,1.31.39.29.98.29,1.33-.08.76-.81,1.5-1.6,2.14-2.5.63-.89,1.27-1.78,1.91-2.66,1.26-1.74,2.5-3.5,3.77-5.23,2.52-3.44,5.05-6.88,7.64-10.27,1.26-1.64,2.47-3.21,3.81-4.9,1.31-1.66,2.64-3.31,3.97-4.95,2.69-3.3,5.44-6.56,8.23-9.78,2.85-3.28,5.77-6.52,8.71-9.72,2.43,1.57,4.82,3.19,7.17,4.88,1.39,1,2.77,2.01,4.13,3.05.14.11.28.21.42.32.09.07.19.14.28.22,0,0,.05.04.09.07.05.04.17.13.19.14.07.05.14.11.21.16.19.15.37.29.56.44.67.53,1.34,1.06,2.01,1.6,4.89,3.96,9.58,8.17,14.03,12.62-.32.56-.33,1.2-.42,1.84-.11.82-.23,1.62-.28,2.44-.1,1.53-.15,3.07-.2,4.6-.12,3.06-.18,6.13-.19,9.2-.01,6.07-.05,12.14-.03,18.2,0,2.15.04,4.3.12,6.44-.27,0-.54.02-.83.08-.42.08-.84.16-1.26.23-.84.15-1.68.31-2.51.47-1.67.32-3.35.62-5.03.91-3.36.58-6.72,1.11-10.09,1.59-1.69.24-3.03.42-4.79.63-1.69.21-3.38.41-5.07.62-3.39.4-6.78.72-10.17,1.05-1.93.19-3.85.36-5.78.52-1.31.11-2.63.23-3.93.45,0-.71-.06-1.43-.08-2.12-.03-1.25-.05-2.49-.11-3.74-.11-2.49-.29-4.98-.49-7.47-.4-5-.92-10-1.61-14.97-.19-1.37-.39-2.73-.6-4.09-.11-.71-.22-1.43-.34-2.14-.12-.74-.19-1.46-.57-2.13-.37-.67-1.61-.6-1.75.23-.21,1.25.21,2.61.41,3.85.2,1.23.39,2.46.58,3.7.36,2.44.71,4.88,1.01,7.33.61,4.89,1.08,9.8,1.41,14.72.09,1.38.2,2.75.3,4.13.05.72.09,1.44.14,2.17.02.29.03.59.04.88-.08.02-.16.04-.24.06-.83.21-.92,1.61,0,1.77,3.4.59,6.92.28,10.35.12,3.4-.16,6.79-.44,10.18-.74,6.9-.63,13.78-1.59,20.62-2.73,1.87-.31,3.74-.64,5.61-.99.97-.18,1.93-.36,2.89-.56.63-.13,1.28-.23,1.9-.41.01.19.02.37.03.56.11,1.64,2.45,1.65,2.56,0,.41-6.13.32-12.26.31-18.4-.01-6.07.07-12.14-.16-18.2-.07-1.73-.1-3.47-.21-5.2-.06-.89-.15-1.77-.27-2.66-.04-.29-.06-.6-.1-.91,2.53,2.58,4.99,5.24,7.4,7.94.6.67,1.83.66,2.43,0,.67-.73.62-1.69,0-2.43ZM23.51,22.62c-.53.65-1.06,1.31-1.58,1.97,0,0,0,0,0-.01.09-1.12.09-2.26.07-3.38-.04-2.33-.18-4.67-.54-6.97-.15-.99-.27-2.44-1.06-3.18.56-.37,1.11-.73,1.67-1.1.53-.34,1.05-.69,1.58-1.04.06.68.21,1.36.31,1.98.16,1.01.27,2.03.38,3.05.1,1.05.18,2.09.26,3.14.08,1.14.11,2.27.35,3.4.02.1.06.18.11.26-.51.63-1.03,1.25-1.54,1.88Z"/>
        <path fill="#e5decd" d="M42.06,39.15c-.16-.78-.36-1.55-.56-2.32-.21-.82-.39-1.67-.7-2.45-.16-.4-.32-.79-.48-1.19-.18-.43-.69-.81-1.16-.52-.47.29-.45.72-.46,1.21,0,.42-.04.84-.01,1.26.04.84.17,1.68.26,2.52.1.87.21,1.73.35,2.6.08.48.17.98.41,1.42.38.66,1.16,1.03,1.87.64,1.13-.62.7-2.14.5-3.15Z"/>
        <path fill="#e5decd" d="M52.44,36.74s-.15-.34-.16-.35c-.04-.11-.09-.21-.13-.32-.12-.3-.25-.6-.37-.9-.27-.66-.55-1.31-.83-1.97-.24-.57-.47-1.13-.95-1.49-.02-.02-.04-.04-.07-.06-.26-.25-.64-.33-.97-.18-.29.13-.43.35-.5.62-.27.66,0,1.43.18,2.08.18.62.36,1.23.54,1.85.18.62.37,1.23.53,1.85.2.75.48,1.58.98,2.18.36.44,1.09.5,1.57.3.53-.22.88-.73.88-1.31,0-.77-.38-1.62-.7-2.31Z"/>
        <path fill="#e5decd" d="M63.84,36.34c-.1-1.66-2.29-1.93-2.85-.39-.66,1.83-.93,3.74-1.32,5.64-.39,1.9-.81,3.79-1.26,5.68-.43,1.85-.87,3.7-1.32,5.54-.2.79-.4,1.58-.67,2.35-.06.18-.13.36-.2.53,0,.03-.04.09-.05.13-.02.04-.03.07-.05.11-.17.36-.35.72-.57,1.06-.09.15-.2.3-.3.44-.02.02-.18.22-.23.27-.22.24-.46.47-.71.67-.05.03-.2.14-.26.18-.14.09-.29.18-.44.27-.15.08-.3.16-.46.24-.02,0-.06.03-.1.05-.08.03-.22.08-.22.09-.33.12-.66.22-1,.3-.17.04-.34.07-.51.1-.07.01-.15.02-.22.04.41-.07.05,0-.04,0-.72.07-1.44.07-2.17,0,0,0,0,0,0,0-.09-.02-.19-.03-.28-.05-.19-.04-.39-.08-.58-.12-.41-.1-.81-.22-1.21-.35-.18-.06-.37-.13-.55-.21-.02,0-.02,0-.03-.01,0,0,0,0-.02,0-.08-.03-.15-.07-.23-.1-.41-.19-.81-.4-1.2-.61-1.49-.79-2.77-1.72-3.96-2.74-1.49-1.27-2.84-2.69-4.11-4.17-.64-.74-1.28-1.46-1.92-2.2-.66-.76-1.28-1.51-2.05-2.17-.4-.34-1.16-.03-.96.56.6,1.72,1.63,3.38,2.69,4.86,1.12,1.56,2.31,3.06,3.6,4.47,2.51,2.74,5.48,5.2,9.16,6.13,3.46.87,7.38.21,10.01-2.32,2.72-2.62,3.3-6.74,4.13-10.24.54-2.27,1.06-4.55,1.52-6.84.48-2.35,1.06-4.76.91-7.17Z"/>
      </g>
      <g>
        <path fill="#e5decd" d="M175.91,37c-4.38-5.18-9.15-10.04-14.15-14.62-5.07-4.65-10.41-9-15.96-13.06-3.1-2.26-6.27-4.42-9.51-6.47-.64-.41-1.63-.28-2.15.28-4.6,4.96-9.05,10.07-13.37,15.27.01-.4.02-.8.02-1.21,0-1.11-.03-2.23-.08-3.34-.05-1.08-.13-2.15-.2-3.23-.07-1.07-.08-2.36-.59-3.34.3-.19.59-.39.89-.58,1.76-1.14,3.65-2.16,5.3-3.46.74-.59.67-1.83.15-2.5-.6-.78-1.6-.92-2.46-.49-.86.43-1.66,1.03-2.46,1.57-.81.54-1.62,1.07-2.43,1.62-1.62,1.08-3.24,2.17-4.83,3.29-1.6,1.12-3.19,2.25-4.74,3.44-.83.64-1.65,1.28-2.46,1.95-.35.28-.72.55-1.03.87-.19.2-.43.47-.57.71-.17.29-.18.56-.15.85-.04.29-.04.61.23.77.47.27,1.02.37,1.54.2.55-.18,1.03-.46,1.52-.77.83-.51,1.65-1.01,2.47-1.54.34-.22.67-.44,1.01-.66,0,.29.03.59.06.87.13,1.15.31,2.21.44,3.35.13,1.12.23,2.25.29,3.37.07,1.29.07,2.58.09,3.87.02,1.28-.06,2.67.29,3.91-3.95,5.01-7.79,10.12-11.43,15.35-1.37,1.96-2.72,3.94-4.05,5.93-.66.98-1.29,1.98-1.93,2.97-.34.52-.7,1.04-.96,1.6-.26.57-.53,1.13-.79,1.7-.21.46-.17.98.26,1.31.39.29.98.29,1.33-.08.76-.81,1.5-1.6,2.14-2.5.63-.89,1.27-1.78,1.91-2.66,1.26-1.74,2.5-3.5,3.77-5.23,2.52-3.44,5.05-6.88,7.64-10.27,1.26-1.64,2.47-3.21,3.81-4.9,1.31-1.66,2.64-3.31,3.97-4.95,2.69-3.3,5.44-6.56,8.23-9.78,2.85-3.28,5.77-6.52,8.71-9.72,2.43,1.57,4.82,3.19,7.17,4.88,1.39,1,2.77,2.01,4.13,3.05.14.11.28.21.42.32.09.07.19.14.28.22,0,0,.05.04.09.07.05.04.17.13.19.14.07.05.14.11.21.16.19.15.37.29.56.44.67.53,1.34,1.06,2.01,1.6,4.89,3.96,9.58,8.17,14.03,12.62-.32.56-.33,1.2-.42,1.84-.11.82-.23,1.62-.28,2.44-.1,1.53-.15,3.07-.2,4.6-.12,3.06-.18,6.13-.19,9.2-.01,6.07-.05,12.14-.03,18.2,0,2.15.04,4.3.12,6.44-.27,0-.54.02-.83.08-.42.08-.84.16-1.26.23-.84.15-1.68.31-2.51.47-1.67.32-3.35.62-5.03.91-3.36.58-6.72,1.11-10.09,1.59-1.69.24-3.03.42-4.79.63-1.69.21-3.38.41-5.07.62-3.39.4-6.78.72-10.17,1.05-1.93.19-3.85.36-5.78.52-1.31.11-2.63.23-3.93.45,0-.71-.06-1.43-.08-2.12-.03-1.25-.05-2.49-.11-3.74-.11-2.49-.29-4.98-.49-7.47-.4-5-.92-10-1.61-14.97-.19-1.37-.39-2.73-.6-4.09-.11-.71-.22-1.43-.34-2.14-.12-.74-.19-1.46-.57-2.13-.37-.67-1.61-.6-1.75.23-.21,1.25.21,2.61.41,3.85.2,1.23.39,2.46.58,3.7.36,2.44.71,4.88,1.01,7.33.61,4.89,1.08,9.8,1.41,14.72.09,1.38.2,2.75.3,4.13.05.72.09,1.44.14,2.17.02.29.03.59.04.88-.08.02-.16.04-.24.06-.83.21-.92,1.61,0,1.77,3.4.59,6.92.28,10.35.12,3.4-.16,6.79-.44,10.18-.74,6.9-.63,13.78-1.59,20.62-2.73,1.87-.31,3.74-.64,5.61-.99.97-.18,1.93-.36,2.89-.56.63-.13,1.28-.23,1.9-.41.01.19.02.37.03.56.11,1.64,2.45,1.65,2.56,0,.41-6.13.32-12.26.31-18.4-.01-6.07.07-12.14-.16-18.2-.07-1.73-.1-3.47-.21-5.2-.06-.89-.15-1.77-.27-2.66-.04-.29-.06-.6-.1-.91,2.53,2.58,4.99,5.24,7.4,7.94.6.67,1.83.66,2.43,0,.67-.73.62-1.69,0-2.43ZM117.3,22.62c-.53.65-1.06,1.31-1.58,1.97,0,0,0,0,0-.01.09-1.12.09-2.26.07-3.38-.04-2.33-.18-4.67-.54-6.97-.15-.99-.27-2.44-1.06-3.18.56-.37,1.11-.73,1.67-1.1.53-.34,1.05-.69,1.58-1.04.06.68.21,1.36.31,1.98.16,1.01.27,2.03.38,3.05.1,1.05.18,2.09.26,3.14.08,1.14.11,2.27.35,3.4.02.1.06.18.11.26-.51.63-1.03,1.25-1.54,1.88Z"/>
        <path fill="#e5decd" d="M135.86,39.15c-.16-.78-.36-1.55-.56-2.32-.21-.82-.39-1.67-.7-2.45-.16-.4-.32-.79-.48-1.19-.18-.43-.69-.81-1.16-.52-.47.29-.45.72-.46,1.21,0,.42-.04.84-.01,1.26.04.84.17,1.68.26,2.52.1.87.21,1.73.35,2.6.08.48.17.98.41,1.42.38.66,1.16,1.03,1.87.64,1.13-.62.7-2.14.5-3.15Z"/>
        <path fill="#e5decd" d="M146.23,36.74s-.15-.34-.16-.35c-.04-.11-.09-.21-.13-.32-.12-.3-.25-.6-.37-.9-.27-.66-.55-1.31-.83-1.97-.24-.57-.47-1.13-.95-1.49-.02-.02-.04-.04-.07-.06-.26-.25-.64-.33-.97-.18-.29.13-.43.35-.5.62-.27.66,0,1.43.18,2.08.18.62.36,1.23.54,1.85.18.62.37,1.23.53,1.85.2.75.48,1.58.98,2.18.36.44,1.09.5,1.57.3.53-.22.88-.73.88-1.31,0-.77-.38-1.62-.7-2.31Z"/>
        <path fill="#e5decd" d="M157.63,36.34c-.1-1.66-2.29-1.93-2.85-.39-.66,1.83-.93,3.74-1.32,5.64-.39,1.9-.81,3.79-1.26,5.68-.43,1.85-.87,3.7-1.32,5.54-.2.79-.4,1.58-.67,2.35-.06.18-.13.36-.2.53,0,.03-.04.09-.05.13-.02.04-.03.07-.05.11-.17.36-.35.72-.57,1.06-.09.15-.2.3-.3.44-.02.02-.18.22-.23.27-.22.24-.46.47-.71.67-.05.03-.2.14-.26.18-.14.09-.29.18-.44.27-.15.08-.3.16-.46.24-.02,0-.06.03-.1.05-.08.03-.22.08-.22.09-.33.12-.66.22-1,.3-.17.04-.34.07-.51.1-.07.01-.15.02-.22.04.41-.07.05,0-.04,0-.72.07-1.44.07-2.17,0,0,0,0,0,0,0-.09-.02-.19-.03-.28-.05-.19-.04-.39-.08-.58-.12-.41-.1-.81-.22-1.21-.35-.18-.06-.37-.13-.55-.21-.02,0-.02,0-.03-.01,0,0,0,0-.02,0-.08-.03-.15-.07-.23-.1-.41-.19-.81-.4-1.2-.61-1.49-.79-2.77-1.72-3.96-2.74-1.49-1.27-2.84-2.69-4.11-4.17-.64-.74-1.28-1.46-1.92-2.2-.66-.76-1.28-1.51-2.05-2.17-.4-.34-1.16-.03-.96.56.6,1.72,1.63,3.38,2.69,4.86,1.12,1.56,2.31,3.06,3.6,4.47,2.51,2.74,5.48,5.2,9.16,6.13,3.46.87,7.38.21,10.01-2.32,2.72-2.62,3.3-6.74,4.13-10.24.54-2.27,1.06-4.55,1.52-6.84.48-2.35,1.06-4.76.91-7.17Z"/>
      </g>
      <g>
        <path fill="#e5decd" d="M269.71,37c-4.38-5.18-9.15-10.04-14.15-14.62-5.07-4.65-10.41-9-15.96-13.06-3.1-2.26-6.27-4.42-9.51-6.47-.64-.41-1.63-.28-2.15.28-4.6,4.96-9.05,10.07-13.37,15.27.01-.4.02-.8.02-1.21,0-1.11-.03-2.23-.08-3.34-.05-1.08-.13-2.15-.2-3.23-.07-1.07-.08-2.36-.59-3.34.3-.19.59-.39.89-.58,1.76-1.14,3.65-2.16,5.3-3.46.74-.59.67-1.83.15-2.5-.6-.78-1.6-.92-2.46-.49-.86.43-1.66,1.03-2.46,1.57-.81.54-1.62,1.07-2.43,1.62-1.62,1.08-3.24,2.17-4.83,3.29-1.6,1.12-3.19,2.25-4.74,3.44-.83.64-1.65,1.28-2.46,1.95-.35.28-.72.55-1.03.87-.19.2-.43.47-.57.71-.17.29-.18.56-.15.85-.04.29-.04.61.23.77.47.27,1.02.37,1.54.2.55-.18,1.03-.46,1.52-.77.83-.51,1.65-1.01,2.47-1.54.34-.22.67-.44,1.01-.66,0,.29.03.59.06.87.13,1.15.31,2.21.44,3.35.13,1.12.23,2.25.29,3.37.07,1.29.07,2.58.09,3.87.02,1.28-.06,2.67.29,3.91-3.95,5.01-7.79,10.12-11.43,15.35-1.37,1.96-2.72,3.94-4.05,5.93-.66.98-1.29,1.98-1.93,2.97-.34.52-.7,1.04-.96,1.6-.26.57-.53,1.13-.79,1.7-.21.46-.17.98.26,1.31.39.29.98.29,1.33-.08.76-.81,1.5-1.6,2.14-2.5.63-.89,1.27-1.78,1.91-2.66,1.26-1.74,2.5-3.5,3.77-5.23,2.52-3.44,5.05-6.88,7.64-10.27,1.26-1.64,2.47-3.21,3.81-4.9,1.31-1.66,2.64-3.31,3.97-4.95,2.69-3.3,5.44-6.56,8.23-9.78,2.85-3.28,5.77-6.52,8.71-9.72,2.43,1.57,4.82,3.19,7.17,4.88,1.39,1,2.77,2.01,4.13,3.05.14.11.28.21.42.32.09.07.19.14.28.22,0,0,.05.04.09.07.05.04.17.13.19.14.07.05.14.11.21.16.19.15.37.29.56.44.67.53,1.34,1.06,2.01,1.6,4.89,3.96,9.58,8.17,14.03,12.62-.32.56-.33,1.2-.42,1.84-.11.82-.23,1.62-.28,2.44-.1,1.53-.15,3.07-.2,4.6-.12,3.06-.18,6.13-.19,9.2-.01,6.07-.05,12.14-.03,18.2,0,2.15.04,4.3.12,6.44-.27,0-.54.02-.83.08-.42.08-.84.16-1.26.23-.84.15-1.68.31-2.51.47-1.67.32-3.35.62-5.03.91-3.36.58-6.72,1.11-10.09,1.59-1.69.24-3.03.42-4.79.63-1.69.21-3.38.41-5.07.62-3.39.4-6.78.72-10.17,1.05-1.93.19-3.85.36-5.78.52-1.31.11-2.63.23-3.93.45,0-.71-.06-1.43-.08-2.12-.03-1.25-.05-2.49-.11-3.74-.11-2.49-.29-4.98-.49-7.47-.4-5-.92-10-1.61-14.97-.19-1.37-.39-2.73-.6-4.09-.11-.71-.22-1.43-.34-2.14-.12-.74-.19-1.46-.57-2.13-.37-.67-1.61-.6-1.75.23-.21,1.25.21,2.61.41,3.85.2,1.23.39,2.46.58,3.7.36,2.44.71,4.88,1.01,7.33.61,4.89,1.08,9.8,1.41,14.72.09,1.38.2,2.75.3,4.13.05.72.09,1.44.14,2.17.02.29.03.59.04.88-.08.02-.16.04-.24.06-.83.21-.92,1.61,0,1.77,3.4.59,6.92.28,10.35.12,3.4-.16,6.79-.44,10.18-.74,6.9-.63,13.78-1.59,20.62-2.73,1.87-.31,3.74-.64,5.61-.99.97-.18,1.93-.36,2.89-.56.63-.13,1.28-.23,1.9-.41.01.19.02.37.03.56.11,1.64,2.45,1.65,2.56,0,.41-6.13.32-12.26.31-18.4-.01-6.07.07-12.14-.16-18.2-.07-1.73-.1-3.47-.21-5.2-.06-.89-.15-1.77-.27-2.66-.04-.29-.06-.6-.1-.91,2.53,2.58,4.99,5.24,7.4,7.94.6.67,1.83.66,2.43,0,.67-.73.62-1.69,0-2.43ZM211.09,22.62c-.53.65-1.06,1.31-1.58,1.97,0,0,0,0,0-.01.09-1.12.09-2.26.07-3.38-.04-2.33-.18-4.67-.54-6.97-.15-.99-.27-2.44-1.06-3.18.56-.37,1.11-.73,1.67-1.1.53-.34,1.05-.69,1.58-1.04.06.68.21,1.36.31,1.98.16,1.01.27,2.03.38,3.05.1,1.05.18,2.09.26,3.14.08,1.14.11,2.27.35,3.4.02.1.06.18.11.26-.51.63-1.03,1.25-1.54,1.88Z"/>
        <path fill="#e5decd" d="M229.65,39.15c-.16-.78-.36-1.55-.56-2.32-.21-.82-.39-1.67-.7-2.45-.16-.4-.32-.79-.48-1.19-.18-.43-.69-.81-1.16-.52-.47.29-.45.72-.46,1.21,0,.42-.04.84-.01,1.26.04.84.17,1.68.26,2.52.1.87.21,1.73.35,2.6.08.48.17.98.41,1.42.38.66,1.16,1.03,1.87.64,1.13-.62.7-2.14.5-3.15Z"/>
        <path fill="#e5decd" d="M240.03,36.74s-.15-.34-.16-.35c-.04-.11-.09-.21-.13-.32-.12-.3-.25-.6-.37-.9-.27-.66-.55-1.31-.83-1.97-.24-.57-.47-1.13-.95-1.49-.02-.02-.04-.04-.07-.06-.26-.25-.64-.33-.97-.18-.29.13-.43.35-.5.62-.27.66,0,1.43.18,2.08.18.62.36,1.23.54,1.85.18.62.37,1.23.53,1.85.2.75.48,1.58.98,2.18.36.44,1.09.5,1.57.3.53-.22.88-.73.88-1.31,0-.77-.38-1.62-.7-2.31Z"/>
        <path fill="#e5decd" d="M251.42,36.34c-.1-1.66-2.29-1.93-2.85-.39-.66,1.83-.93,3.74-1.32,5.64-.39,1.9-.81,3.79-1.26,5.68-.43,1.85-.87,3.7-1.32,5.54-.2.79-.4,1.58-.67,2.35-.06.18-.13.36-.2.53,0,.03-.04.09-.05.13-.02.04-.03.07-.05.11-.17.36-.35.72-.57,1.06-.09.15-.2.3-.3.44-.02.02-.18.22-.23.27-.22.24-.46.47-.71.67-.05.03-.2.14-.26.18-.14.09-.29.18-.44.27-.15.08-.3.16-.46.24-.02,0-.06.03-.1.05-.08.03-.22.08-.22.09-.33.12-.66.22-1,.3-.17.04-.34.07-.51.1-.07.01-.15.02-.22.04.41-.07.05,0-.04,0-.72.07-1.44.07-2.17,0,0,0,0,0,0,0-.09-.02-.19-.03-.28-.05-.19-.04-.39-.08-.58-.12-.41-.1-.81-.22-1.21-.35-.18-.06-.37-.13-.55-.21-.02,0-.02,0-.03-.01,0,0,0,0-.02,0-.08-.03-.15-.07-.23-.1-.41-.19-.81-.4-1.2-.61-1.49-.79-2.77-1.72-3.96-2.74-1.49-1.27-2.84-2.69-4.11-4.17-.64-.74-1.28-1.46-1.92-2.2-.66-.76-1.28-1.51-2.05-2.17-.4-.34-1.16-.03-.96.56.6,1.72,1.63,3.38,2.69,4.86,1.12,1.56,2.31,3.06,3.6,4.47,2.51,2.74,5.48,5.2,9.16,6.13,3.46.87,7.38.21,10.01-2.32,2.72-2.62,3.3-6.74,4.13-10.24.54-2.27,1.06-4.55,1.52-6.84.48-2.35,1.06-4.76.91-7.17Z"/>
      </g>
      <g>
        <path fill="#e5decd" d="M363.5,37c-4.38-5.18-9.15-10.04-14.15-14.62-5.07-4.65-10.41-9-15.96-13.06-3.1-2.26-6.27-4.42-9.51-6.47-.64-.41-1.63-.28-2.15.28-4.6,4.96-9.05,10.07-13.37,15.27.01-.4.02-.8.02-1.21,0-1.11-.03-2.23-.08-3.34-.05-1.08-.13-2.15-.2-3.23-.07-1.07-.08-2.36-.59-3.34.3-.19.59-.39.89-.58,1.76-1.14,3.65-2.16,5.3-3.46.74-.59.67-1.83.15-2.5-.6-.78-1.6-.92-2.46-.49-.86.43-1.66,1.03-2.46,1.57-.81.54-1.62,1.07-2.43,1.62-1.62,1.08-3.24,2.17-4.83,3.29-1.6,1.12-3.19,2.25-4.74,3.44-.83.64-1.65,1.28-2.46,1.95-.35.28-.72.55-1.03.87-.19.2-.43.47-.57.71-.17.29-.18.56-.15.85-.04.29-.04.61.23.77.47.27,1.02.37,1.54.2.55-.18,1.03-.46,1.52-.77.83-.51,1.65-1.01,2.47-1.54.34-.22.67-.44,1.01-.66,0,.29.03.59.06.87.13,1.15.31,2.21.44,3.35.13,1.12.23,2.25.29,3.37.07,1.29.07,2.58.09,3.87.02,1.28-.06,2.67.29,3.91-3.95,5.01-7.79,10.12-11.43,15.35-1.37,1.96-2.72,3.94-4.05,5.93-.66.98-1.29,1.98-1.93,2.97-.34.52-.7,1.04-.96,1.6-.26.57-.53,1.13-.79,1.7-.21.46-.17.98.26,1.31.39.29.98.29,1.33-.08.76-.81,1.5-1.6,2.14-2.5.63-.89,1.27-1.78,1.91-2.66,1.26-1.74,2.5-3.5,3.77-5.23,2.52-3.44,5.05-6.88,7.64-10.27,1.26-1.64,2.47-3.21,3.81-4.9,1.31-1.66,2.64-3.31,3.97-4.95,2.69-3.3,5.44-6.56,8.23-9.78,2.85-3.28,5.77-6.52,8.71-9.72,2.43,1.57,4.82,3.19,7.17,4.88,1.39,1,2.77,2.01,4.13,3.05.14.11.28.21.42.32.09.07.19.14.28.22,0,0,.05.04.09.07.05.04.17.13.19.14.07.05.14.11.21.16.19.15.37.29.56.44.67.53,1.34,1.06,2.01,1.6,4.89,3.96,9.58,8.17,14.03,12.62-.32.56-.33,1.2-.42,1.84-.11.82-.23,1.62-.28,2.44-.1,1.53-.15,3.07-.2,4.6-.12,3.06-.18,6.13-.19,9.2-.01,6.07-.05,12.14-.03,18.2,0,2.15.04,4.3.12,6.44-.27,0-.54.02-.83.08-.42.08-.84.16-1.26.23-.84.15-1.68.31-2.51.47-1.67.32-3.35.62-5.03.91-3.36.58-6.72,1.11-10.09,1.59-1.69.24-3.03.42-4.79.63-1.69.21-3.38.41-5.07.62-3.39.4-6.78.72-10.17,1.05-1.93.19-3.85.36-5.78.52-1.31.11-2.63.23-3.93.45,0-.71-.06-1.43-.08-2.12-.03-1.25-.05-2.49-.11-3.74-.11-2.49-.29-4.98-.49-7.47-.4-5-.92-10-1.61-14.97-.19-1.37-.39-2.73-.6-4.09-.11-.71-.22-1.43-.34-2.14-.12-.74-.19-1.46-.57-2.13-.37-.67-1.61-.6-1.75.23-.21,1.25.21,2.61.41,3.85.2,1.23.39,2.46.58,3.7.36,2.44.71,4.88,1.01,7.33.61,4.89,1.08,9.8,1.41,14.72.09,1.38.2,2.75.3,4.13.05.72.09,1.44.14,2.17.02.29.03.59.04.88-.08.02-.16.04-.24.06-.83.21-.92,1.61,0,1.77,3.4.59,6.92.28,10.35.12,3.4-.16,6.79-.44,10.18-.74,6.9-.63,13.78-1.59,20.62-2.73,1.87-.31,3.74-.64,5.61-.99.97-.18,1.93-.36,2.89-.56.63-.13,1.28-.23,1.9-.41.01.19.02.37.03.56.11,1.64,2.45,1.65,2.56,0,.41-6.13.32-12.26.31-18.4-.01-6.07.07-12.14-.16-18.2-.07-1.73-.1-3.47-.21-5.2-.06-.89-.15-1.77-.27-2.66-.04-.29-.06-.6-.1-.91,2.53,2.58,4.99,5.24,7.4,7.94.6.67,1.83.66,2.43,0,.67-.73.62-1.69,0-2.43ZM304.89,22.62c-.53.65-1.06,1.31-1.58,1.97,0,0,0,0,0-.01.09-1.12.09-2.26.07-3.38-.04-2.33-.18-4.67-.54-6.97-.15-.99-.27-2.44-1.06-3.18.56-.37,1.11-.73,1.67-1.1.53-.34,1.05-.69,1.58-1.04.06.68.21,1.36.31,1.98.16,1.01.27,2.03.38,3.05.1,1.05.18,2.09.26,3.14.08,1.14.11,2.27.35,3.4.02.1.06.18.11.26-.51.63-1.03,1.25-1.54,1.88Z"/>
        <path fill="#e5decd" d="M323.44,39.15c-.16-.78-.36-1.55-.56-2.32-.21-.82-.39-1.67-.7-2.45-.16-.4-.32-.79-.48-1.19-.18-.43-.69-.81-1.16-.52-.47.29-.45.72-.46,1.21,0,.42-.04.84-.01,1.26.04.84.17,1.68.26,2.52.1.87.21,1.73.35,2.6.08.48.17.98.41,1.42.38.66,1.16,1.03,1.87.64,1.13-.62.7-2.14.5-3.15Z"/>
        <path fill="#e5decd" d="M333.82,36.74s-.15-.34-.16-.35c-.04-.11-.09-.21-.13-.32-.12-.3-.25-.6-.37-.9-.27-.66-.55-1.31-.83-1.97-.24-.57-.47-1.13-.95-1.49-.02-.02-.04-.04-.07-.06-.26-.25-.64-.33-.97-.18-.29.13-.43.35-.5.62-.27.66,0,1.43.18,2.08.18.62.36,1.23.54,1.85.18.62.37,1.23.53,1.85.2.75.48,1.58.98,2.18.36.44,1.09.5,1.57.3.53-.22.88-.73.88-1.31,0-.77-.38-1.62-.7-2.31Z"/>
        <path fill="#e5decd" d="M345.22,36.34c-.1-1.66-2.29-1.93-2.85-.39-.66,1.83-.93,3.74-1.32,5.64-.39,1.9-.81,3.79-1.26,5.68-.43,1.85-.87,3.7-1.32,5.54-.2.79-.4,1.58-.67,2.35-.06.18-.13.36-.2.53,0,.03-.04.09-.05.13-.02.04-.03.07-.05.11-.17.36-.35.72-.57,1.06-.09.15-.2.3-.3.44-.02.02-.18.22-.23.27-.22.24-.46.47-.71.67-.05.03-.2.14-.26.18-.14.09-.29.18-.44.27-.15.08-.3.16-.46.24-.02,0-.06.03-.1.05-.08.03-.22.08-.22.09-.33.12-.66.22-1,.3-.17.04-.34.07-.51.1-.07.01-.15.02-.22.04.41-.07.05,0-.04,0-.72.07-1.44.07-2.17,0,0,0,0,0,0,0-.09-.02-.19-.03-.28-.05-.19-.04-.39-.08-.58-.12-.41-.1-.81-.22-1.21-.35-.18-.06-.37-.13-.55-.21-.02,0-.02,0-.03-.01,0,0,0,0-.02,0-.08-.03-.15-.07-.23-.1-.41-.19-.81-.4-1.2-.61-1.49-.79-2.77-1.72-3.96-2.74-1.49-1.27-2.84-2.69-4.11-4.17-.64-.74-1.28-1.46-1.92-2.2-.66-.76-1.28-1.51-2.05-2.17-.4-.34-1.16-.03-.96.56.6,1.72,1.63,3.38,2.69,4.86,1.12,1.56,2.31,3.06,3.6,4.47,2.51,2.74,5.48,5.2,9.16,6.13,3.46.87,7.38.21,10.01-2.32,2.72-2.62,3.3-6.74,4.13-10.24.54-2.27,1.06-4.55,1.52-6.84.48-2.35,1.06-4.76.91-7.17Z"/>
      </g>
      <g>
        <path fill="#e5decd" d="M457.3,37c-4.38-5.18-9.15-10.04-14.15-14.62-5.07-4.65-10.41-9-15.96-13.06-3.1-2.26-6.27-4.42-9.51-6.47-.64-.41-1.63-.28-2.15.28-4.6,4.96-9.05,10.07-13.37,15.27.01-.4.02-.8.02-1.21,0-1.11-.03-2.23-.08-3.34-.05-1.08-.13-2.15-.2-3.23-.07-1.07-.08-2.36-.59-3.34.3-.19.59-.39.89-.58,1.76-1.14,3.65-2.16,5.3-3.46.74-.59.67-1.83.15-2.5-.6-.78-1.6-.92-2.46-.49-.86.43-1.66,1.03-2.46,1.57-.81.54-1.62,1.07-2.43,1.62-1.62,1.08-3.24,2.17-4.83,3.29-1.6,1.12-3.19,2.25-4.74,3.44-.83.64-1.65,1.28-2.46,1.95-.35.28-.72.55-1.03.87-.19.2-.43.47-.57.71-.17.29-.18.56-.15.85-.04.29-.04.61.23.77.47.27,1.02.37,1.54.2.55-.18,1.03-.46,1.52-.77.83-.51,1.65-1.01,2.47-1.54.34-.22.67-.44,1.01-.66,0,.29.03.59.06.87.13,1.15.31,2.21.44,3.35.13,1.12.23,2.25.29,3.37.07,1.29.07,2.58.09,3.87.02,1.28-.06,2.67.29,3.91-3.95,5.01-7.79,10.12-11.43,15.35-1.37,1.96-2.72,3.94-4.05,5.93-.66.98-1.29,1.98-1.93,2.97-.34.52-.7,1.04-.96,1.6-.26.57-.53,1.13-.79,1.7-.21.46-.17.98.26,1.31.39.29.98.29,1.33-.08.76-.81,1.5-1.6,2.14-2.5.63-.89,1.27-1.78,1.91-2.66,1.26-1.74,2.5-3.5,3.77-5.23,2.52-3.44,5.05-6.88,7.64-10.27,1.26-1.64,2.47-3.21,3.81-4.9,1.31-1.66,2.64-3.31,3.97-4.95,2.69-3.3,5.44-6.56,8.23-9.78,2.85-3.28,5.77-6.52,8.71-9.72,2.43,1.57,4.82,3.19,7.17,4.88,1.39,1,2.77,2.01,4.13,3.05.14.11.28.21.42.32.09.07.19.14.28.22,0,0,.05.04.09.07.05.04.17.13.19.14.07.05.14.11.21.16.19.15.37.29.56.44.67.53,1.34,1.06,2.01,1.6,4.89,3.96,9.58,8.17,14.03,12.62-.32.56-.33,1.2-.42,1.84-.11.82-.23,1.62-.28,2.44-.1,1.53-.15,3.07-.2,4.6-.12,3.06-.18,6.13-.19,9.2-.01,6.07-.05,12.14-.03,18.2,0,2.15.04,4.3.12,6.44-.27,0-.54.02-.83.08-.42.08-.84.16-1.26.23-.84.15-1.68.31-2.51.47-1.67.32-3.35.62-5.03.91-3.36.58-6.72,1.11-10.09,1.59-1.69.24-3.03.42-4.79.63-1.69.21-3.38.41-5.07.62-3.39.4-6.78.72-10.17,1.05-1.93.19-3.85.36-5.78.52-1.31.11-2.63.23-3.93.45,0-.71-.06-1.43-.08-2.12-.03-1.25-.05-2.49-.11-3.74-.11-2.49-.29-4.98-.49-7.47-.4-5-.92-10-1.61-14.97-.19-1.37-.39-2.73-.6-4.09-.11-.71-.22-1.43-.34-2.14-.12-.74-.19-1.46-.57-2.13-.37-.67-1.61-.6-1.75.23-.21,1.25.21,2.61.41,3.85.2,1.23.39,2.46.58,3.7.36,2.44.71,4.88,1.01,7.33.61,4.89,1.08,9.8,1.41,14.72.09,1.38.2,2.75.3,4.13.05.72.09,1.44.14,2.17.02.29.03.59.04.88-.08.02-.16.04-.24.06-.83.21-.92,1.61,0,1.77,3.4.59,6.92.28,10.35.12,3.4-.16,6.79-.44,10.18-.74,6.9-.63,13.78-1.59,20.62-2.73,1.87-.31,3.74-.64,5.61-.99.97-.18,1.93-.36,2.89-.56.63-.13,1.28-.23,1.9-.41.01.19.02.37.03.56.11,1.64,2.45,1.65,2.56,0,.41-6.13.32-12.26.31-18.4-.01-6.07.07-12.14-.16-18.2-.07-1.73-.1-3.47-.21-5.2-.06-.89-.15-1.77-.27-2.66-.04-.29-.06-.6-.1-.91,2.53,2.58,4.99,5.24,7.4,7.94.6.67,1.83.66,2.43,0,.67-.73.62-1.69,0-2.43ZM398.68,22.62c-.53.65-1.06,1.31-1.58,1.97,0,0,0,0,0-.01.09-1.12.09-2.26.07-3.38-.04-2.33-.18-4.67-.54-6.97-.15-.99-.27-2.44-1.06-3.18.56-.37,1.11-.73,1.67-1.1.53-.34,1.05-.69,1.58-1.04.06.68.21,1.36.31,1.98.16,1.01.27,2.03.38,3.05.1,1.05.18,2.09.26,3.14.08,1.14.11,2.27.35,3.4.02.1.06.18.11.26-.51.63-1.03,1.25-1.54,1.88Z"/>
        <path fill="#e5decd" d="M417.24,39.15c-.16-.78-.36-1.55-.56-2.32-.21-.82-.39-1.67-.7-2.45-.16-.4-.32-.79-.48-1.19-.18-.43-.69-.81-1.16-.52-.47.29-.45.72-.46,1.21,0,.42-.04.84-.01,1.26.04.84.17,1.68.26,2.52.1.87.21,1.73.35,2.6.08.48.17.98.41,1.42.38.66,1.16,1.03,1.87.64,1.13-.62.7-2.14.5-3.15Z"/>
        <path fill="#e5decd" d="M427.61,36.74s-.15-.34-.16-.35c-.04-.11-.09-.21-.13-.32-.12-.3-.25-.6-.37-.9-.27-.66-.55-1.31-.83-1.97-.24-.57-.47-1.13-.95-1.49-.02-.02-.04-.04-.07-.06-.26-.25-.64-.33-.97-.18-.29.13-.43.35-.5.62-.27.66,0,1.43.18,2.08.18.62.36,1.23.54,1.85.18.62.37,1.23.53,1.85.2.75.48,1.58.98,2.18.36.44,1.09.5,1.57.3.53-.22.88-.73.88-1.31,0-.77-.38-1.62-.7-2.31Z"/>
        <path fill="#e5decd" d="M439.01,36.34c-.1-1.66-2.29-1.93-2.85-.39-.66,1.83-.93,3.74-1.32,5.64-.39,1.9-.81,3.79-1.26,5.68-.43,1.85-.87,3.7-1.32,5.54-.2.79-.4,1.58-.67,2.35-.06.18-.13.36-.2.53,0,.03-.04.09-.05.13-.02.04-.03.07-.05.11-.17.36-.35.72-.57,1.06-.09.15-.2.3-.3.44-.02.02-.18.22-.23.27-.22.24-.46.47-.71.67-.05.03-.2.14-.26.18-.14.09-.29.18-.44.27-.15.08-.3.16-.46.24-.02,0-.06.03-.1.05-.08.03-.22.08-.22.09-.33.12-.66.22-1,.3-.17.04-.34.07-.51.1-.07.01-.15.02-.22.04.41-.07.05,0-.04,0-.72.07-1.44.07-2.17,0,0,0,0,0,0,0-.09-.02-.19-.03-.28-.05-.19-.04-.39-.08-.58-.12-.41-.1-.81-.22-1.21-.35-.18-.06-.37-.13-.55-.21-.02,0-.02,0-.03-.01,0,0,0,0-.02,0-.08-.03-.15-.07-.23-.1-.41-.19-.81-.4-1.2-.61-1.49-.79-2.77-1.72-3.96-2.74-1.49-1.27-2.84-2.69-4.11-4.17-.64-.74-1.28-1.46-1.92-2.2-.66-.76-1.28-1.51-2.05-2.17-.4-.34-1.16-.03-.96.56.6,1.72,1.63,3.38,2.69,4.86,1.12,1.56,2.31,3.06,3.6,4.47,2.51,2.74,5.48,5.2,9.16,6.13,3.46.87,7.38.21,10.01-2.32,2.72-2.62,3.3-6.74,4.13-10.24.54-2.27,1.06-4.55,1.52-6.84.48-2.35,1.06-4.76.91-7.17Z"/>
      </g>
      <g>
        <path fill="#e5decd" d="M551.09,37c-4.38-5.18-9.15-10.04-14.15-14.62-5.07-4.65-10.41-9-15.96-13.06-3.1-2.26-6.27-4.42-9.51-6.47-.64-.41-1.63-.28-2.15.28-4.6,4.96-9.05,10.07-13.37,15.27.01-.4.02-.8.02-1.21,0-1.11-.03-2.23-.08-3.34-.05-1.08-.13-2.15-.2-3.23-.07-1.07-.08-2.36-.59-3.34.3-.19.59-.39.89-.58,1.76-1.14,3.65-2.16,5.3-3.46.74-.59.67-1.83.15-2.5-.6-.78-1.6-.92-2.46-.49-.86.43-1.66,1.03-2.46,1.57-.81.54-1.62,1.07-2.43,1.62-1.62,1.08-3.24,2.17-4.83,3.29-1.6,1.12-3.19,2.25-4.74,3.44-.83.64-1.65,1.28-2.46,1.95-.35.28-.72.55-1.03.87-.19.2-.43.47-.57.71-.17.29-.18.56-.15.85-.04.29-.04.61.23.77.47.27,1.02.37,1.54.2.55-.18,1.03-.46,1.52-.77.83-.51,1.65-1.01,2.47-1.54.34-.22.67-.44,1.01-.66,0,.29.03.59.06.87.13,1.15.31,2.21.44,3.35.13,1.12.23,2.25.29,3.37.07,1.29.07,2.58.09,3.87.02,1.28-.06,2.67.29,3.91-3.95,5.01-7.79,10.12-11.43,15.35-1.37,1.96-2.72,3.94-4.05,5.93-.66.98-1.29,1.98-1.93,2.97-.34.52-.7,1.04-.96,1.6-.26.57-.53,1.13-.79,1.7-.21.46-.17.98.26,1.31.39.29.98.29,1.33-.08.76-.81,1.5-1.6,2.14-2.5.63-.89,1.27-1.78,1.91-2.66,1.26-1.74,2.5-3.5,3.77-5.23,2.52-3.44,5.05-6.88,7.64-10.27,1.26-1.64,2.47-3.21,3.81-4.9,1.31-1.66,2.64-3.31,3.97-4.95,2.69-3.3,5.44-6.56,8.23-9.78,2.85-3.28,5.77-6.52,8.71-9.72,2.43,1.57,4.82,3.19,7.17,4.88,1.39,1,2.77,2.01,4.13,3.05.14.11.28.21.42.32.09.07.19.14.28.22,0,0,.05.04.09.07.05.04.17.13.19.14.07.05.14.11.21.16.19.15.37.29.56.44.67.53,1.34,1.06,2.01,1.6,4.89,3.96,9.58,8.17,14.03,12.62-.32.56-.33,1.2-.42,1.84-.11.82-.23,1.62-.28,2.44-.1,1.53-.15,3.07-.2,4.6-.12,3.06-.18,6.13-.19,9.2-.01,6.07-.05,12.14-.03,18.2,0,2.15.04,4.3.12,6.44-.27,0-.54.02-.83.08-.42.08-.84.16-1.26.23-.84.15-1.68.31-2.51.47-1.67.32-3.35.62-5.03.91-3.36.58-6.72,1.11-10.09,1.59-1.69.24-3.03.42-4.79.63-1.69.21-3.38.41-5.07.62-3.39.4-6.78.72-10.17,1.05-1.93.19-3.85.36-5.78.52-1.31.11-2.63.23-3.93.45,0-.71-.06-1.43-.08-2.12-.03-1.25-.05-2.49-.11-3.74-.11-2.49-.29-4.98-.49-7.47-.4-5-.92-10-1.61-14.97-.19-1.37-.39-2.73-.6-4.09-.11-.71-.22-1.43-.34-2.14-.12-.74-.19-1.46-.57-2.13-.37-.67-1.61-.6-1.75.23-.21,1.25.21,2.61.41,3.85.2,1.23.39,2.46.58,3.7.36,2.44.71,4.88,1.01,7.33.61,4.89,1.08,9.8,1.41,14.72.09,1.38.2,2.75.3,4.13.05.72.09,1.44.14,2.17.02.29.03.59.04.88-.08.02-.16.04-.24.06-.83.21-.92,1.61,0,1.77,3.4.59,6.92.28,10.35.12,3.4-.16,6.79-.44,10.18-.74,6.9-.63,13.78-1.59,20.62-2.73,1.87-.31,3.74-.64,5.61-.99.97-.18,1.93-.36,2.89-.56.63-.13,1.28-.23,1.9-.41.01.19.02.37.03.56.11,1.64,2.45,1.65,2.56,0,.41-6.13.32-12.26.31-18.4-.01-6.07.07-12.14-.16-18.2-.07-1.73-.1-3.47-.21-5.2-.06-.89-.15-1.77-.27-2.66-.04-.29-.06-.6-.1-.91,2.53,2.58,4.99,5.24,7.4,7.94.6.67,1.83.66,2.43,0,.67-.73.62-1.69,0-2.43ZM492.48,22.62c-.53.65-1.06,1.31-1.58,1.97,0,0,0,0,0-.01.09-1.12.09-2.26.07-3.38-.04-2.33-.18-4.67-.54-6.97-.15-.99-.27-2.44-1.06-3.18.56-.37,1.11-.73,1.67-1.1.53-.34,1.05-.69,1.58-1.04.06.68.21,1.36.31,1.98.16,1.01.27,2.03.38,3.05.1,1.05.18,2.09.26,3.14.08,1.14.11,2.27.35,3.4.02.1.06.18.11.26-.51.63-1.03,1.25-1.54,1.88Z"/>
        <path fill="#e5decd" d="M511.03,39.15c-.16-.78-.36-1.55-.56-2.32-.21-.82-.39-1.67-.7-2.45-.16-.4-.32-.79-.48-1.19-.18-.43-.69-.81-1.16-.52-.47.29-.45.72-.46,1.21,0,.42-.04.84-.01,1.26.04.84.17,1.68.26,2.52.1.87.21,1.73.35,2.6.08.48.17.98.41,1.42.38.66,1.16,1.03,1.87.64,1.13-.62.7-2.14.5-3.15Z"/>
        <path fill="#e5decd" d="M521.41,36.74s-.15-.34-.16-.35c-.04-.11-.09-.21-.13-.32-.12-.3-.25-.6-.37-.9-.27-.66-.55-1.31-.83-1.97-.24-.57-.47-1.13-.95-1.49-.02-.02-.04-.04-.07-.06-.26-.25-.64-.33-.97-.18-.29.13-.43.35-.5.62-.27.66,0,1.43.18,2.08.18.62.36,1.23.54,1.85.18.62.37,1.23.53,1.85.2.75.48,1.58.98,2.18.36.44,1.09.5,1.57.3.53-.22.88-.73.88-1.31,0-.77-.38-1.62-.7-2.31Z"/>
        <path fill="#e5decd" d="M532.81,36.34c-.1-1.66-2.29-1.93-2.85-.39-.66,1.83-.93,3.74-1.32,5.64-.39,1.9-.81,3.79-1.26,5.68-.43,1.85-.87,3.7-1.32,5.54-.2.79-.4,1.58-.67,2.35-.06.18-.13.36-.2.53,0,.03-.04.09-.05.13-.02.04-.03.07-.05.11-.17.36-.35.72-.57,1.06-.09.15-.2.3-.3.44-.02.02-.18.22-.23.27-.22.24-.46.47-.71.67-.05.03-.2.14-.26.18-.14.09-.29.18-.44.27-.15.08-.3.16-.46.24-.02,0-.06.03-.1.05-.08.03-.22.08-.22.09-.33.12-.66.22-1,.3-.17.04-.34.07-.51.1-.07.01-.15.02-.22.04.41-.07.05,0-.04,0-.72.07-1.44.07-2.17,0,0,0,0,0,0,0-.09-.02-.19-.03-.28-.05-.19-.04-.39-.08-.58-.12-.41-.1-.81-.22-1.21-.35-.18-.06-.37-.13-.55-.21-.02,0-.02,0-.03-.01,0,0,0,0-.02,0-.08-.03-.15-.07-.23-.1-.41-.19-.81-.4-1.2-.61-1.49-.79-2.77-1.72-3.96-2.74-1.49-1.27-2.84-2.69-4.11-4.17-.64-.74-1.28-1.46-1.92-2.2-.66-.76-1.28-1.51-2.05-2.17-.4-.34-1.16-.03-.96.56.6,1.72,1.63,3.38,2.69,4.86,1.12,1.56,2.31,3.06,3.6,4.47,2.51,2.74,5.48,5.2,9.16,6.13,3.46.87,7.38.21,10.01-2.32,2.72-2.62,3.3-6.74,4.13-10.24.54-2.27,1.06-4.55,1.52-6.84.48-2.35,1.06-4.76.91-7.17Z"/>
      </g>
      <g>
        <path fill="#e5decd" d="M82.12,141.2c-4.38-5.18-9.15-10.04-14.15-14.62-5.07-4.65-10.41-9-15.96-13.06-3.1-2.26-6.27-4.42-9.51-6.47-.64-.41-1.63-.28-2.15.28-4.6,4.96-9.05,10.07-13.37,15.27.01-.4.02-.8.02-1.21,0-1.11-.03-2.23-.08-3.34-.05-1.08-.13-2.15-.2-3.23-.07-1.07-.08-2.36-.59-3.34.3-.19.59-.39.89-.58,1.76-1.14,3.65-2.16,5.3-3.46.74-.59.67-1.83.15-2.5-.6-.78-1.6-.92-2.46-.49-.86.43-1.66,1.03-2.46,1.57-.81.54-1.62,1.07-2.43,1.62-1.62,1.08-3.24,2.17-4.83,3.29-1.6,1.12-3.19,2.25-4.74,3.44-.83.64-1.65,1.28-2.46,1.95-.35.28-.72.55-1.03.87-.19.2-.43.47-.57.71-.17.29-.18.56-.15.85-.04.29-.04.61.23.77.47.27,1.02.37,1.54.2.55-.18,1.03-.46,1.52-.77.83-.51,1.65-1.01,2.47-1.54.34-.22.67-.44,1.01-.66,0,.29.03.59.06.87.13,1.15.31,2.21.44,3.35.13,1.12.23,2.25.29,3.37.07,1.29.07,2.58.09,3.87.02,1.28-.06,2.67.29,3.91-3.95,5.01-7.79,10.12-11.43,15.35-1.37,1.96-2.72,3.94-4.05,5.93-.66.98-1.29,1.98-1.93,2.97-.34.52-.7,1.04-.96,1.6-.26.57-.53,1.13-.79,1.7-.21.46-.17.98.26,1.31.39.29.98.29,1.33-.08.76-.81,1.5-1.6,2.14-2.5.63-.89,1.27-1.78,1.91-2.66,1.26-1.74,2.5-3.5,3.77-5.23,2.52-3.44,5.05-6.88,7.64-10.27,1.26-1.64,2.47-3.21,3.81-4.9,1.31-1.66,2.64-3.31,3.97-4.95,2.69-3.3,5.44-6.56,8.23-9.78,2.85-3.28,5.77-6.52,8.71-9.72,2.43,1.57,4.82,3.19,7.17,4.88,1.39,1,2.77,2.01,4.13,3.05.14.11.28.21.42.32.09.07.19.14.28.22,0,0,.05.04.09.07.05.04.17.13.19.14.07.05.14.11.21.16.19.15.37.29.56.44.67.53,1.34,1.06,2.01,1.6,4.89,3.96,9.58,8.17,14.03,12.62-.32.56-.33,1.2-.42,1.84-.11.82-.23,1.62-.28,2.44-.1,1.53-.15,3.07-.2,4.6-.12,3.06-.18,6.13-.19,9.2-.01,6.07-.05,12.14-.03,18.2,0,2.15.04,4.3.12,6.44-.27,0-.54.02-.83.08-.42.08-.84.16-1.26.23-.84.15-1.68.31-2.51.47-1.67.32-3.35.62-5.03.91-3.36.58-6.72,1.11-10.09,1.59-1.69.24-3.03.42-4.79.63-1.69.21-3.38.41-5.07.62-3.39.4-6.78.72-10.17,1.05-1.93.19-3.85.36-5.78.52-1.31.11-2.63.23-3.93.45,0-.71-.06-1.43-.08-2.12-.03-1.25-.05-2.49-.11-3.74-.11-2.49-.29-4.98-.49-7.47-.4-5-.92-10-1.61-14.97-.19-1.37-.39-2.73-.6-4.09-.11-.71-.22-1.43-.34-2.14-.12-.74-.19-1.46-.57-2.13-.37-.67-1.61-.6-1.75.23-.21,1.25.21,2.61.41,3.85.2,1.23.39,2.46.58,3.7.36,2.44.71,4.88,1.01,7.33.61,4.89,1.08,9.8,1.41,14.72.09,1.38.2,2.75.3,4.13.05.72.09,1.44.14,2.17.02.29.03.59.04.88-.08.02-.16.04-.24.06-.83.21-.92,1.61,0,1.77,3.4.59,6.92.28,10.35.12,3.4-.16,6.79-.44,10.18-.74,6.9-.63,13.78-1.59,20.62-2.73,1.87-.31,3.74-.64,5.61-.99.97-.18,1.93-.36,2.89-.56.63-.13,1.28-.23,1.9-.41.01.19.02.37.03.56.11,1.64,2.45,1.65,2.56,0,.41-6.13.32-12.26.31-18.4-.01-6.07.07-12.14-.16-18.2-.07-1.73-.1-3.47-.21-5.2-.06-.89-.15-1.77-.27-2.66-.04-.29-.06-.6-.1-.91,2.53,2.58,4.99,5.24,7.4,7.94.6.67,1.83.66,2.43,0,.67-.73.62-1.69,0-2.43ZM23.51,126.82c-.53.65-1.06,1.31-1.58,1.97,0,0,0,0,0-.01.09-1.12.09-2.26.07-3.38-.04-2.33-.18-4.67-.54-6.97-.15-.99-.27-2.44-1.06-3.18.56-.37,1.11-.73,1.67-1.1.53-.34,1.05-.69,1.58-1.04.06.68.21,1.36.31,1.98.16,1.01.27,2.03.38,3.05.1,1.05.18,2.09.26,3.14.08,1.14.11,2.27.35,3.4.02.1.06.18.11.26-.51.63-1.03,1.25-1.54,1.88Z"/>
        <path fill="#e5decd" d="M42.06,143.34c-.16-.78-.36-1.55-.56-2.32-.21-.82-.39-1.67-.7-2.45-.16-.4-.32-.79-.48-1.19-.18-.43-.69-.81-1.16-.52-.47.29-.45.72-.46,1.21,0,.42-.04.84-.01,1.26.04.84.17,1.68.26,2.52.1.87.21,1.73.35,2.6.08.48.17.98.41,1.42.38.66,1.16,1.03,1.87.64,1.13-.62.7-2.14.5-3.15Z"/>
        <path fill="#e5decd" d="M52.44,140.94s-.15-.34-.16-.35c-.04-.11-.09-.21-.13-.32-.12-.3-.25-.6-.37-.9-.27-.66-.55-1.31-.83-1.97-.24-.57-.47-1.13-.95-1.49-.02-.02-.04-.04-.07-.06-.26-.25-.64-.33-.97-.18-.29.13-.43.35-.5.62-.27.66,0,1.43.18,2.08.18.62.36,1.23.54,1.85.18.62.37,1.23.53,1.85.2.75.48,1.58.98,2.18.36.44,1.09.5,1.57.3.53-.22.88-.73.88-1.31,0-.77-.38-1.62-.7-2.31Z"/>
        <path fill="#e5decd" d="M63.84,140.53c-.1-1.66-2.29-1.93-2.85-.39-.66,1.83-.93,3.74-1.32,5.64-.39,1.9-.81,3.79-1.26,5.68-.43,1.85-.87,3.7-1.32,5.54-.2.79-.4,1.58-.67,2.35-.06.18-.13.36-.2.53,0,.03-.04.09-.05.13-.02.04-.03.07-.05.11-.17.36-.35.72-.57,1.06-.09.15-.2.3-.3.44-.02.02-.18.22-.23.27-.22.24-.46.47-.71.67-.05.03-.2.14-.26.18-.14.09-.29.18-.44.27-.15.08-.3.16-.46.24-.02,0-.06.03-.1.05-.08.03-.22.08-.22.09-.33.12-.66.22-1,.3-.17.04-.34.07-.51.1-.07.01-.15.02-.22.04.41-.07.05,0-.04,0-.72.07-1.44.07-2.17,0,0,0,0,0,0,0-.09-.02-.19-.03-.28-.05-.19-.04-.39-.08-.58-.12-.41-.1-.81-.22-1.21-.35-.18-.06-.37-.13-.55-.21-.02,0-.02,0-.03-.01,0,0,0,0-.02,0-.08-.03-.15-.07-.23-.1-.41-.19-.81-.4-1.2-.61-1.49-.79-2.77-1.72-3.96-2.74-1.49-1.27-2.84-2.69-4.11-4.17-.64-.74-1.28-1.46-1.92-2.2-.66-.76-1.28-1.51-2.05-2.17-.4-.34-1.16-.03-.96.56.6,1.72,1.63,3.38,2.69,4.86,1.12,1.56,2.31,3.06,3.6,4.47,2.51,2.74,5.48,5.2,9.16,6.13,3.46.87,7.38.21,10.01-2.32,2.72-2.62,3.3-6.74,4.13-10.24.54-2.27,1.06-4.55,1.52-6.84.48-2.35,1.06-4.76.91-7.17Z"/>
      </g>
      <g>
        <path fill="#e5decd" d="M175.91,141.2c-4.38-5.18-9.15-10.04-14.15-14.62-5.07-4.65-10.41-9-15.96-13.06-3.1-2.26-6.27-4.42-9.51-6.47-.64-.41-1.63-.28-2.15.28-4.6,4.96-9.05,10.07-13.37,15.27.01-.4.02-.8.02-1.21,0-1.11-.03-2.23-.08-3.34-.05-1.08-.13-2.15-.2-3.23-.07-1.07-.08-2.36-.59-3.34.3-.19.59-.39.89-.58,1.76-1.14,3.65-2.16,5.3-3.46.74-.59.67-1.83.15-2.5-.6-.78-1.6-.92-2.46-.49-.86.43-1.66,1.03-2.46,1.57-.81.54-1.62,1.07-2.43,1.62-1.62,1.08-3.24,2.17-4.83,3.29-1.6,1.12-3.19,2.25-4.74,3.44-.83.64-1.65,1.28-2.46,1.95-.35.28-.72.55-1.03.87-.19.2-.43.47-.57.71-.17.29-.18.56-.15.85-.04.29-.04.61.23.77.47.27,1.02.37,1.54.2.55-.18,1.03-.46,1.52-.77.83-.51,1.65-1.01,2.47-1.54.34-.22.67-.44,1.01-.66,0,.29.03.59.06.87.13,1.15.31,2.21.44,3.35.13,1.12.23,2.25.29,3.37.07,1.29.07,2.58.09,3.87.02,1.28-.06,2.67.29,3.91-3.95,5.01-7.79,10.12-11.43,15.35-1.37,1.96-2.72,3.94-4.05,5.93-.66.98-1.29,1.98-1.93,2.97-.34.52-.7,1.04-.96,1.6-.26.57-.53,1.13-.79,1.7-.21.46-.17.98.26,1.31.39.29.98.29,1.33-.08.76-.81,1.5-1.6,2.14-2.5.63-.89,1.27-1.78,1.91-2.66,1.26-1.74,2.5-3.5,3.77-5.23,2.52-3.44,5.05-6.88,7.64-10.27,1.26-1.64,2.47-3.21,3.81-4.9,1.31-1.66,2.64-3.31,3.97-4.95,2.69-3.3,5.44-6.56,8.23-9.78,2.85-3.28,5.77-6.52,8.71-9.72,2.43,1.57,4.82,3.19,7.17,4.88,1.39,1,2.77,2.01,4.13,3.05.14.11.28.21.42.32.09.07.19.14.28.22,0,0,.05.04.09.07.05.04.17.13.19.14.07.05.14.11.21.16.19.15.37.29.56.44.67.53,1.34,1.06,2.01,1.6,4.89,3.96,9.58,8.17,14.03,12.62-.32.56-.33,1.2-.42,1.84-.11.82-.23,1.62-.28,2.44-.1,1.53-.15,3.07-.2,4.6-.12,3.06-.18,6.13-.19,9.2-.01,6.07-.05,12.14-.03,18.2,0,2.15.04,4.3.12,6.44-.27,0-.54.02-.83.08-.42.08-.84.16-1.26.23-.84.15-1.68.31-2.51.47-1.67.32-3.35.62-5.03.91-3.36.58-6.72,1.11-10.09,1.59-1.69.24-3.03.42-4.79.63-1.69.21-3.38.41-5.07.62-3.39.4-6.78.72-10.17,1.05-1.93.19-3.85.36-5.78.52-1.31.11-2.63.23-3.93.45,0-.71-.06-1.43-.08-2.12-.03-1.25-.05-2.49-.11-3.74-.11-2.49-.29-4.98-.49-7.47-.4-5-.92-10-1.61-14.97-.19-1.37-.39-2.73-.6-4.09-.11-.71-.22-1.43-.34-2.14-.12-.74-.19-1.46-.57-2.13-.37-.67-1.61-.6-1.75.23-.21,1.25.21,2.61.41,3.85.2,1.23.39,2.46.58,3.7.36,2.44.71,4.88,1.01,7.33.61,4.89,1.08,9.8,1.41,14.72.09,1.38.2,2.75.3,4.13.05.72.09,1.44.14,2.17.02.29.03.59.04.88-.08.02-.16.04-.24.06-.83.21-.92,1.61,0,1.77,3.4.59,6.92.28,10.35.12,3.4-.16,6.79-.44,10.18-.74,6.9-.63,13.78-1.59,20.62-2.73,1.87-.31,3.74-.64,5.61-.99.97-.18,1.93-.36,2.89-.56.63-.13,1.28-.23,1.9-.41.01.19.02.37.03.56.11,1.64,2.45,1.65,2.56,0,.41-6.13.32-12.26.31-18.4-.01-6.07.07-12.14-.16-18.2-.07-1.73-.1-3.47-.21-5.2-.06-.89-.15-1.77-.27-2.66-.04-.29-.06-.6-.1-.91,2.53,2.58,4.99,5.24,7.4,7.94.6.67,1.83.66,2.43,0,.67-.73.62-1.69,0-2.43ZM117.3,126.82c-.53.65-1.06,1.31-1.58,1.97,0,0,0,0,0-.01.09-1.12.09-2.26.07-3.38-.04-2.33-.18-4.67-.54-6.97-.15-.99-.27-2.44-1.06-3.18.56-.37,1.11-.73,1.67-1.1.53-.34,1.05-.69,1.58-1.04.06.68.21,1.36.31,1.98.16,1.01.27,2.03.38,3.05.1,1.05.18,2.09.26,3.14.08,1.14.11,2.27.35,3.4.02.1.06.18.11.26-.51.63-1.03,1.25-1.54,1.88Z"/>
        <path fill="#e5decd" d="M135.86,143.34c-.16-.78-.36-1.55-.56-2.32-.21-.82-.39-1.67-.7-2.45-.16-.4-.32-.79-.48-1.19-.18-.43-.69-.81-1.16-.52-.47.29-.45.72-.46,1.21,0,.42-.04.84-.01,1.26.04.84.17,1.68.26,2.52.1.87.21,1.73.35,2.6.08.48.17.98.41,1.42.38.66,1.16,1.03,1.87.64,1.13-.62.7-2.14.5-3.15Z"/>
        <path fill="#e5decd" d="M146.23,140.94s-.15-.34-.16-.35c-.04-.11-.09-.21-.13-.32-.12-.3-.25-.6-.37-.9-.27-.66-.55-1.31-.83-1.97-.24-.57-.47-1.13-.95-1.49-.02-.02-.04-.04-.07-.06-.26-.25-.64-.33-.97-.18-.29.13-.43.35-.5.62-.27.66,0,1.43.18,2.08.18.62.36,1.23.54,1.85.18.62.37,1.23.53,1.85.2.75.48,1.58.98,2.18.36.44,1.09.5,1.57.3.53-.22.88-.73.88-1.31,0-.77-.38-1.62-.7-2.31Z"/>
        <path fill="#e5decd" d="M157.63,140.53c-.1-1.66-2.29-1.93-2.85-.39-.66,1.83-.93,3.74-1.32,5.64-.39,1.9-.81,3.79-1.26,5.68-.43,1.85-.87,3.7-1.32,5.54-.2.79-.4,1.58-.67,2.35-.06.18-.13.36-.2.53,0,.03-.04.09-.05.13-.02.04-.03.07-.05.11-.17.36-.35.72-.57,1.06-.09.15-.2.3-.3.44-.02.02-.18.22-.23.27-.22.24-.46.47-.71.67-.05.03-.2.14-.26.18-.14.09-.29.18-.44.27-.15.08-.3.16-.46.24-.02,0-.06.03-.1.05-.08.03-.22.08-.22.09-.33.12-.66.22-1,.3-.17.04-.34.07-.51.1-.07.01-.15.02-.22.04.41-.07.05,0-.04,0-.72.07-1.44.07-2.17,0,0,0,0,0,0,0-.09-.02-.19-.03-.28-.05-.19-.04-.39-.08-.58-.12-.41-.1-.81-.22-1.21-.35-.18-.06-.37-.13-.55-.21-.02,0-.02,0-.03-.01,0,0,0,0-.02,0-.08-.03-.15-.07-.23-.1-.41-.19-.81-.4-1.2-.61-1.49-.79-2.77-1.72-3.96-2.74-1.49-1.27-2.84-2.69-4.11-4.17-.64-.74-1.28-1.46-1.92-2.2-.66-.76-1.28-1.51-2.05-2.17-.4-.34-1.16-.03-.96.56.6,1.72,1.63,3.38,2.69,4.86,1.12,1.56,2.31,3.06,3.6,4.47,2.51,2.74,5.48,5.2,9.16,6.13,3.46.87,7.38.21,10.01-2.32,2.72-2.62,3.3-6.74,4.13-10.24.54-2.27,1.06-4.55,1.52-6.84.48-2.35,1.06-4.76.91-7.17Z"/>
      </g>
      <g>
        <path fill="#e5decd" d="M269.71,141.2c-4.38-5.18-9.15-10.04-14.15-14.62-5.07-4.65-10.41-9-15.96-13.06-3.1-2.26-6.27-4.42-9.51-6.47-.64-.41-1.63-.28-2.15.28-4.6,4.96-9.05,10.07-13.37,15.27.01-.4.02-.8.02-1.21,0-1.11-.03-2.23-.08-3.34-.05-1.08-.13-2.15-.2-3.23-.07-1.07-.08-2.36-.59-3.34.3-.19.59-.39.89-.58,1.76-1.14,3.65-2.16,5.3-3.46.74-.59.67-1.83.15-2.5-.6-.78-1.6-.92-2.46-.49-.86.43-1.66,1.03-2.46,1.57-.81.54-1.62,1.07-2.43,1.62-1.62,1.08-3.24,2.17-4.83,3.29-1.6,1.12-3.19,2.25-4.74,3.44-.83.64-1.65,1.28-2.46,1.95-.35.28-.72.55-1.03.87-.19.2-.43.47-.57.71-.17.29-.18.56-.15.85-.04.29-.04.61.23.77.47.27,1.02.37,1.54.2.55-.18,1.03-.46,1.52-.77.83-.51,1.65-1.01,2.47-1.54.34-.22.67-.44,1.01-.66,0,.29.03.59.06.87.13,1.15.31,2.21.44,3.35.13,1.12.23,2.25.29,3.37.07,1.29.07,2.58.09,3.87.02,1.28-.06,2.67.29,3.91-3.95,5.01-7.79,10.12-11.43,15.35-1.37,1.96-2.72,3.94-4.05,5.93-.66.98-1.29,1.98-1.93,2.97-.34.52-.7,1.04-.96,1.6-.26.57-.53,1.13-.79,1.7-.21.46-.17.98.26,1.31.39.29.98.29,1.33-.08.76-.81,1.5-1.6,2.14-2.5.63-.89,1.27-1.78,1.91-2.66,1.26-1.74,2.5-3.5,3.77-5.23,2.52-3.44,5.05-6.88,7.64-10.27,1.26-1.64,2.47-3.21,3.81-4.9,1.31-1.66,2.64-3.31,3.97-4.95,2.69-3.3,5.44-6.56,8.23-9.78,2.85-3.28,5.77-6.52,8.71-9.72,2.43,1.57,4.82,3.19,7.17,4.88,1.39,1,2.77,2.01,4.13,3.05.14.11.28.21.42.32.09.07.19.14.28.22,0,0,.05.04.09.07.05.04.17.13.19.14.07.05.14.11.21.16.19.15.37.29.56.44.67.53,1.34,1.06,2.01,1.6,4.89,3.96,9.58,8.17,14.03,12.62-.32.56-.33,1.2-.42,1.84-.11.82-.23,1.62-.28,2.44-.1,1.53-.15,3.07-.2,4.6-.12,3.06-.18,6.13-.19,9.2-.01,6.07-.05,12.14-.03,18.2,0,2.15.04,4.3.12,6.44-.27,0-.54.02-.83.08-.42.08-.84.16-1.26.23-.84.15-1.68.31-2.51.47-1.67.32-3.35.62-5.03.91-3.36.58-6.72,1.11-10.09,1.59-1.69.24-3.03.42-4.79.63-1.69.21-3.38.41-5.07.62-3.39.4-6.78.72-10.17,1.05-1.93.19-3.85.36-5.78.52-1.31.11-2.63.23-3.93.45,0-.71-.06-1.43-.08-2.12-.03-1.25-.05-2.49-.11-3.74-.11-2.49-.29-4.98-.49-7.47-.4-5-.92-10-1.61-14.97-.19-1.37-.39-2.73-.6-4.09-.11-.71-.22-1.43-.34-2.14-.12-.74-.19-1.46-.57-2.13-.37-.67-1.61-.6-1.75.23-.21,1.25.21,2.61.41,3.85.2,1.23.39,2.46.58,3.7.36,2.44.71,4.88,1.01,7.33.61,4.89,1.08,9.8,1.41,14.72.09,1.38.2,2.75.3,4.13.05.72.09,1.44.14,2.17.02.29.03.59.04.88-.08.02-.16.04-.24.06-.83.21-.92,1.61,0,1.77,3.4.59,6.92.28,10.35.12,3.4-.16,6.79-.44,10.18-.74,6.9-.63,13.78-1.59,20.62-2.73,1.87-.31,3.74-.64,5.61-.99.97-.18,1.93-.36,2.89-.56.63-.13,1.28-.23,1.9-.41.01.19.02.37.03.56.11,1.64,2.45,1.65,2.56,0,.41-6.13.32-12.26.31-18.4-.01-6.07.07-12.14-.16-18.2-.07-1.73-.1-3.47-.21-5.2-.06-.89-.15-1.77-.27-2.66-.04-.29-.06-.6-.1-.91,2.53,2.58,4.99,5.24,7.4,7.94.6.67,1.83.66,2.43,0,.67-.73.62-1.69,0-2.43ZM211.09,126.82c-.53.65-1.06,1.31-1.58,1.97,0,0,0,0,0-.01.09-1.12.09-2.26.07-3.38-.04-2.33-.18-4.67-.54-6.97-.15-.99-.27-2.44-1.06-3.18.56-.37,1.11-.73,1.67-1.1.53-.34,1.05-.69,1.58-1.04.06.68.21,1.36.31,1.98.16,1.01.27,2.03.38,3.05.1,1.05.18,2.09.26,3.14.08,1.14.11,2.27.35,3.4.02.1.06.18.11.26-.51.63-1.03,1.25-1.54,1.88Z"/>
        <path fill="#e5decd" d="M229.65,143.34c-.16-.78-.36-1.55-.56-2.32-.21-.82-.39-1.67-.7-2.45-.16-.4-.32-.79-.48-1.19-.18-.43-.69-.81-1.16-.52-.47.29-.45.72-.46,1.21,0,.42-.04.84-.01,1.26.04.84.17,1.68.26,2.52.1.87.21,1.73.35,2.6.08.48.17.98.41,1.42.38.66,1.16,1.03,1.87.64,1.13-.62.7-2.14.5-3.15Z"/>
        <path fill="#e5decd" d="M240.03,140.94s-.15-.34-.16-.35c-.04-.11-.09-.21-.13-.32-.12-.3-.25-.6-.37-.9-.27-.66-.55-1.31-.83-1.97-.24-.57-.47-1.13-.95-1.49-.02-.02-.04-.04-.07-.06-.26-.25-.64-.33-.97-.18-.29.13-.43.35-.5.62-.27.66,0,1.43.18,2.08.18.62.36,1.23.54,1.85.18.62.37,1.23.53,1.85.2.75.48,1.58.98,2.18.36.44,1.09.5,1.57.3.53-.22.88-.73.88-1.31,0-.77-.38-1.62-.7-2.31Z"/>
        <path fill="#e5decd" d="M251.42,140.53c-.1-1.66-2.29-1.93-2.85-.39-.66,1.83-.93,3.74-1.32,5.64-.39,1.9-.81,3.79-1.26,5.68-.43,1.85-.87,3.7-1.32,5.54-.2.79-.4,1.58-.67,2.35-.06.18-.13.36-.2.53,0,.03-.04.09-.05.13-.02.04-.03.07-.05.11-.17.36-.35.72-.57,1.06-.09.15-.2.3-.3.44-.02.02-.18.22-.23.27-.22.24-.46.47-.71.67-.05.03-.2.14-.26.18-.14.09-.29.18-.44.27-.15.08-.3.16-.46.24-.02,0-.06.03-.1.05-.08.03-.22.08-.22.09-.33.12-.66.22-1,.3-.17.04-.34.07-.51.1-.07.01-.15.02-.22.04.41-.07.05,0-.04,0-.72.07-1.44.07-2.17,0,0,0,0,0,0,0-.09-.02-.19-.03-.28-.05-.19-.04-.39-.08-.58-.12-.41-.1-.81-.22-1.21-.35-.18-.06-.37-.13-.55-.21-.02,0-.02,0-.03-.01,0,0,0,0-.02,0-.08-.03-.15-.07-.23-.1-.41-.19-.81-.4-1.2-.61-1.49-.79-2.77-1.72-3.96-2.74-1.49-1.27-2.84-2.69-4.11-4.17-.64-.74-1.28-1.46-1.92-2.2-.66-.76-1.28-1.51-2.05-2.17-.4-.34-1.16-.03-.96.56.6,1.72,1.63,3.38,2.69,4.86,1.12,1.56,2.31,3.06,3.6,4.47,2.51,2.74,5.48,5.2,9.16,6.13,3.46.87,7.38.21,10.01-2.32,2.72-2.62,3.3-6.74,4.13-10.24.54-2.27,1.06-4.55,1.52-6.84.48-2.35,1.06-4.76.91-7.17Z"/>
      </g>
      <g>
        <path fill="#e5decd" d="M363.5,141.2c-4.38-5.18-9.15-10.04-14.15-14.62-5.07-4.65-10.41-9-15.96-13.06-3.1-2.26-6.27-4.42-9.51-6.47-.64-.41-1.63-.28-2.15.28-4.6,4.96-9.05,10.07-13.37,15.27.01-.4.02-.8.02-1.21,0-1.11-.03-2.23-.08-3.34-.05-1.08-.13-2.15-.2-3.23-.07-1.07-.08-2.36-.59-3.34.3-.19.59-.39.89-.58,1.76-1.14,3.65-2.16,5.3-3.46.74-.59.67-1.83.15-2.5-.6-.78-1.6-.92-2.46-.49-.86.43-1.66,1.03-2.46,1.57-.81.54-1.62,1.07-2.43,1.62-1.62,1.08-3.24,2.17-4.83,3.29-1.6,1.12-3.19,2.25-4.74,3.44-.83.64-1.65,1.28-2.46,1.95-.35.28-.72.55-1.03.87-.19.2-.43.47-.57.71-.17.29-.18.56-.15.85-.04.29-.04.61.23.77.47.27,1.02.37,1.54.2.55-.18,1.03-.46,1.52-.77.83-.51,1.65-1.01,2.47-1.54.34-.22.67-.44,1.01-.66,0,.29.03.59.06.87.13,1.15.31,2.21.44,3.35.13,1.12.23,2.25.29,3.37.07,1.29.07,2.58.09,3.87.02,1.28-.06,2.67.29,3.91-3.95,5.01-7.79,10.12-11.43,15.35-1.37,1.96-2.72,3.94-4.05,5.93-.66.98-1.29,1.98-1.93,2.97-.34.52-.7,1.04-.96,1.6-.26.57-.53,1.13-.79,1.7-.21.46-.17.98.26,1.31.39.29.98.29,1.33-.08.76-.81,1.5-1.6,2.14-2.5.63-.89,1.27-1.78,1.91-2.66,1.26-1.74,2.5-3.5,3.77-5.23,2.52-3.44,5.05-6.88,7.64-10.27,1.26-1.64,2.47-3.21,3.81-4.9,1.31-1.66,2.64-3.31,3.97-4.95,2.69-3.3,5.44-6.56,8.23-9.78,2.85-3.28,5.77-6.52,8.71-9.72,2.43,1.57,4.82,3.19,7.17,4.88,1.39,1,2.77,2.01,4.13,3.05.14.11.28.21.42.32.09.07.19.14.28.22,0,0,.05.04.09.07.05.04.17.13.19.14.07.05.14.11.21.16.19.15.37.29.56.44.67.53,1.34,1.06,2.01,1.6,4.89,3.96,9.58,8.17,14.03,12.62-.32.56-.33,1.2-.42,1.84-.11.82-.23,1.62-.28,2.44-.1,1.53-.15,3.07-.2,4.6-.12,3.06-.18,6.13-.19,9.2-.01,6.07-.05,12.14-.03,18.2,0,2.15.04,4.3.12,6.44-.27,0-.54.02-.83.08-.42.08-.84.16-1.26.23-.84.15-1.68.31-2.51.47-1.67.32-3.35.62-5.03.91-3.36.58-6.72,1.11-10.09,1.59-1.69.24-3.03.42-4.79.63-1.69.21-3.38.41-5.07.62-3.39.4-6.78.72-10.17,1.05-1.93.19-3.85.36-5.78.52-1.31.11-2.63.23-3.93.45,0-.71-.06-1.43-.08-2.12-.03-1.25-.05-2.49-.11-3.74-.11-2.49-.29-4.98-.49-7.47-.4-5-.92-10-1.61-14.97-.19-1.37-.39-2.73-.6-4.09-.11-.71-.22-1.43-.34-2.14-.12-.74-.19-1.46-.57-2.13-.37-.67-1.61-.6-1.75.23-.21,1.25.21,2.61.41,3.85.2,1.23.39,2.46.58,3.7.36,2.44.71,4.88,1.01,7.33.61,4.89,1.08,9.8,1.41,14.72.09,1.38.2,2.75.3,4.13.05.72.09,1.44.14,2.17.02.29.03.59.04.88-.08.02-.16.04-.24.06-.83.21-.92,1.61,0,1.77,3.4.59,6.92.28,10.35.12,3.4-.16,6.79-.44,10.18-.74,6.9-.63,13.78-1.59,20.62-2.73,1.87-.31,3.74-.64,5.61-.99.97-.18,1.93-.36,2.89-.56.63-.13,1.28-.23,1.9-.41.01.19.02.37.03.56.11,1.64,2.45,1.65,2.56,0,.41-6.13.32-12.26.31-18.4-.01-6.07.07-12.14-.16-18.2-.07-1.73-.1-3.47-.21-5.2-.06-.89-.15-1.77-.27-2.66-.04-.29-.06-.6-.1-.91,2.53,2.58,4.99,5.24,7.4,7.94.6.67,1.83.66,2.43,0,.67-.73.62-1.69,0-2.43ZM304.89,126.82c-.53.65-1.06,1.31-1.58,1.97,0,0,0,0,0-.01.09-1.12.09-2.26.07-3.38-.04-2.33-.18-4.67-.54-6.97-.15-.99-.27-2.44-1.06-3.18.56-.37,1.11-.73,1.67-1.1.53-.34,1.05-.69,1.58-1.04.06.68.21,1.36.31,1.98.16,1.01.27,2.03.38,3.05.1,1.05.18,2.09.26,3.14.08,1.14.11,2.27.35,3.4.02.1.06.18.11.26-.51.63-1.03,1.25-1.54,1.88Z"/>
        <path fill="#e5decd" d="M323.44,143.34c-.16-.78-.36-1.55-.56-2.32-.21-.82-.39-1.67-.7-2.45-.16-.4-.32-.79-.48-1.19-.18-.43-.69-.81-1.16-.52-.47.29-.45.72-.46,1.21,0,.42-.04.84-.01,1.26.04.84.17,1.68.26,2.52.1.87.21,1.73.35,2.6.08.48.17.98.41,1.42.38.66,1.16,1.03,1.87.64,1.13-.62.7-2.14.5-3.15Z"/>
        <path fill="#e5decd" d="M333.82,140.94s-.15-.34-.16-.35c-.04-.11-.09-.21-.13-.32-.12-.3-.25-.6-.37-.9-.27-.66-.55-1.31-.83-1.97-.24-.57-.47-1.13-.95-1.49-.02-.02-.04-.04-.07-.06-.26-.25-.64-.33-.97-.18-.29.13-.43.35-.5.62-.27.66,0,1.43.18,2.08.18.62.36,1.23.54,1.85.18.62.37,1.23.53,1.85.2.75.48,1.58.98,2.18.36.44,1.09.5,1.57.3.53-.22.88-.73.88-1.31,0-.77-.38-1.62-.7-2.31Z"/>
        <path fill="#e5decd" d="M345.22,140.53c-.1-1.66-2.29-1.93-2.85-.39-.66,1.83-.93,3.74-1.32,5.64-.39,1.9-.81,3.79-1.26,5.68-.43,1.85-.87,3.7-1.32,5.54-.2.79-.4,1.58-.67,2.35-.06.18-.13.36-.2.53,0,.03-.04.09-.05.13-.02.04-.03.07-.05.11-.17.36-.35.72-.57,1.06-.09.15-.2.3-.3.44-.02.02-.18.22-.23.27-.22.24-.46.47-.71.67-.05.03-.2.14-.26.18-.14.09-.29.18-.44.27-.15.08-.3.16-.46.24-.02,0-.06.03-.1.05-.08.03-.22.08-.22.09-.33.12-.66.22-1,.3-.17.04-.34.07-.51.1-.07.01-.15.02-.22.04.41-.07.05,0-.04,0-.72.07-1.44.07-2.17,0,0,0,0,0,0,0-.09-.02-.19-.03-.28-.05-.19-.04-.39-.08-.58-.12-.41-.1-.81-.22-1.21-.35-.18-.06-.37-.13-.55-.21-.02,0-.02,0-.03-.01,0,0,0,0-.02,0-.08-.03-.15-.07-.23-.1-.41-.19-.81-.4-1.2-.61-1.49-.79-2.77-1.72-3.96-2.74-1.49-1.27-2.84-2.69-4.11-4.17-.64-.74-1.28-1.46-1.92-2.2-.66-.76-1.28-1.51-2.05-2.17-.4-.34-1.16-.03-.96.56.6,1.72,1.63,3.38,2.69,4.86,1.12,1.56,2.31,3.06,3.6,4.47,2.51,2.74,5.48,5.2,9.16,6.13,3.46.87,7.38.21,10.01-2.32,2.72-2.62,3.3-6.74,4.13-10.24.54-2.27,1.06-4.55,1.52-6.84.48-2.35,1.06-4.76.91-7.17Z"/>
      </g>
      <g>
        <path fill="#e5decd" d="M457.3,141.2c-4.38-5.18-9.15-10.04-14.15-14.62-5.07-4.65-10.41-9-15.96-13.06-3.1-2.26-6.27-4.42-9.51-6.47-.64-.41-1.63-.28-2.15.28-4.6,4.96-9.05,10.07-13.37,15.27.01-.4.02-.8.02-1.21,0-1.11-.03-2.23-.08-3.34-.05-1.08-.13-2.15-.2-3.23-.07-1.07-.08-2.36-.59-3.34.3-.19.59-.39.89-.58,1.76-1.14,3.65-2.16,5.3-3.46.74-.59.67-1.83.15-2.5-.6-.78-1.6-.92-2.46-.49-.86.43-1.66,1.03-2.46,1.57-.81.54-1.62,1.07-2.43,1.62-1.62,1.08-3.24,2.17-4.83,3.29-1.6,1.12-3.19,2.25-4.74,3.44-.83.64-1.65,1.28-2.46,1.95-.35.28-.72.55-1.03.87-.19.2-.43.47-.57.71-.17.29-.18.56-.15.85-.04.29-.04.61.23.77.47.27,1.02.37,1.54.2.55-.18,1.03-.46,1.52-.77.83-.51,1.65-1.01,2.47-1.54.34-.22.67-.44,1.01-.66,0,.29.03.59.06.87.13,1.15.31,2.21.44,3.35.13,1.12.23,2.25.29,3.37.07,1.29.07,2.58.09,3.87.02,1.28-.06,2.67.29,3.91-3.95,5.01-7.79,10.12-11.43,15.35-1.37,1.96-2.72,3.94-4.05,5.93-.66.98-1.29,1.98-1.93,2.97-.34.52-.7,1.04-.96,1.6-.26.57-.53,1.13-.79,1.7-.21.46-.17.98.26,1.31.39.29.98.29,1.33-.08.76-.81,1.5-1.6,2.14-2.5.63-.89,1.27-1.78,1.91-2.66,1.26-1.74,2.5-3.5,3.77-5.23,2.52-3.44,5.05-6.88,7.64-10.27,1.26-1.64,2.47-3.21,3.81-4.9,1.31-1.66,2.64-3.31,3.97-4.95,2.69-3.3,5.44-6.56,8.23-9.78,2.85-3.28,5.77-6.52,8.71-9.72,2.43,1.57,4.82,3.19,7.17,4.88,1.39,1,2.77,2.01,4.13,3.05.14.11.28.21.42.32.09.07.19.14.28.22,0,0,.05.04.09.07.05.04.17.13.19.14.07.05.14.11.21.16.19.15.37.29.56.44.67.53,1.34,1.06,2.01,1.6,4.89,3.96,9.58,8.17,14.03,12.62-.32.56-.33,1.2-.42,1.84-.11.82-.23,1.62-.28,2.44-.1,1.53-.15,3.07-.2,4.6-.12,3.06-.18,6.13-.19,9.2-.01,6.07-.05,12.14-.03,18.2,0,2.15.04,4.3.12,6.44-.27,0-.54.02-.83.08-.42.08-.84.16-1.26.23-.84.15-1.68.31-2.51.47-1.67.32-3.35.62-5.03.91-3.36.58-6.72,1.11-10.09,1.59-1.69.24-3.03.42-4.79.63-1.69.21-3.38.41-5.07.62-3.39.4-6.78.72-10.17,1.05-1.93.19-3.85.36-5.78.52-1.31.11-2.63.23-3.93.45,0-.71-.06-1.43-.08-2.12-.03-1.25-.05-2.49-.11-3.74-.11-2.49-.29-4.98-.49-7.47-.4-5-.92-10-1.61-14.97-.19-1.37-.39-2.73-.6-4.09-.11-.71-.22-1.43-.34-2.14-.12-.74-.19-1.46-.57-2.13-.37-.67-1.61-.6-1.75.23-.21,1.25.21,2.61.41,3.85.2,1.23.39,2.46.58,3.7.36,2.44.71,4.88,1.01,7.33.61,4.89,1.08,9.8,1.41,14.72.09,1.38.2,2.75.3,4.13.05.72.09,1.44.14,2.17.02.29.03.59.04.88-.08.02-.16.04-.24.06-.83.21-.92,1.61,0,1.77,3.4.59,6.92.28,10.35.12,3.4-.16,6.79-.44,10.18-.74,6.9-.63,13.78-1.59,20.62-2.73,1.87-.31,3.74-.64,5.61-.99.97-.18,1.93-.36,2.89-.56.63-.13,1.28-.23,1.9-.41.01.19.02.37.03.56.11,1.64,2.45,1.65,2.56,0,.41-6.13.32-12.26.31-18.4-.01-6.07.07-12.14-.16-18.2-.07-1.73-.1-3.47-.21-5.2-.06-.89-.15-1.77-.27-2.66-.04-.29-.06-.6-.1-.91,2.53,2.58,4.99,5.24,7.4,7.94.6.67,1.83.66,2.43,0,.67-.73.62-1.69,0-2.43ZM398.68,126.82c-.53.65-1.06,1.31-1.58,1.97,0,0,0,0,0-.01.09-1.12.09-2.26.07-3.38-.04-2.33-.18-4.67-.54-6.97-.15-.99-.27-2.44-1.06-3.18.56-.37,1.11-.73,1.67-1.1.53-.34,1.05-.69,1.58-1.04.06.68.21,1.36.31,1.98.16,1.01.27,2.03.38,3.05.1,1.05.18,2.09.26,3.14.08,1.14.11,2.27.35,3.4.02.1.06.18.11.26-.51.63-1.03,1.25-1.54,1.88Z"/>
        <path fill="#e5decd" d="M417.24,143.34c-.16-.78-.36-1.55-.56-2.32-.21-.82-.39-1.67-.7-2.45-.16-.4-.32-.79-.48-1.19-.18-.43-.69-.81-1.16-.52-.47.29-.45.72-.46,1.21,0,.42-.04.84-.01,1.26.04.84.17,1.68.26,2.52.1.87.21,1.73.35,2.6.08.48.17.98.41,1.42.38.66,1.16,1.03,1.87.64,1.13-.62.7-2.14.5-3.15Z"/>
        <path fill="#e5decd" d="M427.61,140.94s-.15-.34-.16-.35c-.04-.11-.09-.21-.13-.32-.12-.3-.25-.6-.37-.9-.27-.66-.55-1.31-.83-1.97-.24-.57-.47-1.13-.95-1.49-.02-.02-.04-.04-.07-.06-.26-.25-.64-.33-.97-.18-.29.13-.43.35-.5.62-.27.66,0,1.43.18,2.08.18.62.36,1.23.54,1.85.18.62.37,1.23.53,1.85.2.75.48,1.58.98,2.18.36.44,1.09.5,1.57.3.53-.22.88-.73.88-1.31,0-.77-.38-1.62-.7-2.31Z"/>
        <path fill="#e5decd" d="M439.01,140.53c-.1-1.66-2.29-1.93-2.85-.39-.66,1.83-.93,3.74-1.32,5.64-.39,1.9-.81,3.79-1.26,5.68-.43,1.85-.87,3.7-1.32,5.54-.2.79-.4,1.58-.67,2.35-.06.18-.13.36-.2.53,0,.03-.04.09-.05.13-.02.04-.03.07-.05.11-.17.36-.35.72-.57,1.06-.09.15-.2.3-.3.44-.02.02-.18.22-.23.27-.22.24-.46.47-.71.67-.05.03-.2.14-.26.18-.14.09-.29.18-.44.27-.15.08-.3.16-.46.24-.02,0-.06.03-.1.05-.08.03-.22.08-.22.09-.33.12-.66.22-1,.3-.17.04-.34.07-.51.1-.07.01-.15.02-.22.04.41-.07.05,0-.04,0-.72.07-1.44.07-2.17,0,0,0,0,0,0,0-.09-.02-.19-.03-.28-.05-.19-.04-.39-.08-.58-.12-.41-.1-.81-.22-1.21-.35-.18-.06-.37-.13-.55-.21-.02,0-.02,0-.03-.01,0,0,0,0-.02,0-.08-.03-.15-.07-.23-.1-.41-.19-.81-.4-1.2-.61-1.49-.79-2.77-1.72-3.96-2.74-1.49-1.27-2.84-2.69-4.11-4.17-.64-.74-1.28-1.46-1.92-2.2-.66-.76-1.28-1.51-2.05-2.17-.4-.34-1.16-.03-.96.56.6,1.72,1.63,3.38,2.69,4.86,1.12,1.56,2.31,3.06,3.6,4.47,2.51,2.74,5.48,5.2,9.16,6.13,3.46.87,7.38.21,10.01-2.32,2.72-2.62,3.3-6.74,4.13-10.24.54-2.27,1.06-4.55,1.52-6.84.48-2.35,1.06-4.76.91-7.17Z"/>
      </g>
      <g>
        <path fill="#e5decd" d="M551.09,141.2c-4.38-5.18-9.15-10.04-14.15-14.62-5.07-4.65-10.41-9-15.96-13.06-3.1-2.26-6.27-4.42-9.51-6.47-.64-.41-1.63-.28-2.15.28-4.6,4.96-9.05,10.07-13.37,15.27.01-.4.02-.8.02-1.21,0-1.11-.03-2.23-.08-3.34-.05-1.08-.13-2.15-.2-3.23-.07-1.07-.08-2.36-.59-3.34.3-.19.59-.39.89-.58,1.76-1.14,3.65-2.16,5.3-3.46.74-.59.67-1.83.15-2.5-.6-.78-1.6-.92-2.46-.49-.86.43-1.66,1.03-2.46,1.57-.81.54-1.62,1.07-2.43,1.62-1.62,1.08-3.24,2.17-4.83,3.29-1.6,1.12-3.19,2.25-4.74,3.44-.83.64-1.65,1.28-2.46,1.95-.35.28-.72.55-1.03.87-.19.2-.43.47-.57.71-.17.29-.18.56-.15.85-.04.29-.04.61.23.77.47.27,1.02.37,1.54.2.55-.18,1.03-.46,1.52-.77.83-.51,1.65-1.01,2.47-1.54.34-.22.67-.44,1.01-.66,0,.29.03.59.06.87.13,1.15.31,2.21.44,3.35.13,1.12.23,2.25.29,3.37.07,1.29.07,2.58.09,3.87.02,1.28-.06,2.67.29,3.91-3.95,5.01-7.79,10.12-11.43,15.35-1.37,1.96-2.72,3.94-4.05,5.93-.66.98-1.29,1.98-1.93,2.97-.34.52-.7,1.04-.96,1.6-.26.57-.53,1.13-.79,1.7-.21.46-.17.98.26,1.31.39.29.98.29,1.33-.08.76-.81,1.5-1.6,2.14-2.5.63-.89,1.27-1.78,1.91-2.66,1.26-1.74,2.5-3.5,3.77-5.23,2.52-3.44,5.05-6.88,7.64-10.27,1.26-1.64,2.47-3.21,3.81-4.9,1.31-1.66,2.64-3.31,3.97-4.95,2.69-3.3,5.44-6.56,8.23-9.78,2.85-3.28,5.77-6.52,8.71-9.72,2.43,1.57,4.82,3.19,7.17,4.88,1.39,1,2.77,2.01,4.13,3.05.14.11.28.21.42.32.09.07.19.14.28.22,0,0,.05.04.09.07.05.04.17.13.19.14.07.05.14.11.21.16.19.15.37.29.56.44.67.53,1.34,1.06,2.01,1.6,4.89,3.96,9.58,8.17,14.03,12.62-.32.56-.33,1.2-.42,1.84-.11.82-.23,1.62-.28,2.44-.1,1.53-.15,3.07-.2,4.6-.12,3.06-.18,6.13-.19,9.2-.01,6.07-.05,12.14-.03,18.2,0,2.15.04,4.3.12,6.44-.27,0-.54.02-.83.08-.42.08-.84.16-1.26.23-.84.15-1.68.31-2.51.47-1.67.32-3.35.62-5.03.91-3.36.58-6.72,1.11-10.09,1.59-1.69.24-3.03.42-4.79.63-1.69.21-3.38.41-5.07.62-3.39.4-6.78.72-10.17,1.05-1.93.19-3.85.36-5.78.52-1.31.11-2.63.23-3.93.45,0-.71-.06-1.43-.08-2.12-.03-1.25-.05-2.49-.11-3.74-.11-2.49-.29-4.98-.49-7.47-.4-5-.92-10-1.61-14.97-.19-1.37-.39-2.73-.6-4.09-.11-.71-.22-1.43-.34-2.14-.12-.74-.19-1.46-.57-2.13-.37-.67-1.61-.6-1.75.23-.21,1.25.21,2.61.41,3.85.2,1.23.39,2.46.58,3.7.36,2.44.71,4.88,1.01,7.33.61,4.89,1.08,9.8,1.41,14.72.09,1.38.2,2.75.3,4.13.05.72.09,1.44.14,2.17.02.29.03.59.04.88-.08.02-.16.04-.24.06-.83.21-.92,1.61,0,1.77,3.4.59,6.92.28,10.35.12,3.4-.16,6.79-.44,10.18-.74,6.9-.63,13.78-1.59,20.62-2.73,1.87-.31,3.74-.64,5.61-.99.97-.18,1.93-.36,2.89-.56.63-.13,1.28-.23,1.9-.41.01.19.02.37.03.56.11,1.64,2.45,1.65,2.56,0,.41-6.13.32-12.26.31-18.4-.01-6.07.07-12.14-.16-18.2-.07-1.73-.1-3.47-.21-5.2-.06-.89-.15-1.77-.27-2.66-.04-.29-.06-.6-.1-.91,2.53,2.58,4.99,5.24,7.4,7.94.6.67,1.83.66,2.43,0,.67-.73.62-1.69,0-2.43ZM492.48,126.82c-.53.65-1.06,1.31-1.58,1.97,0,0,0,0,0-.01.09-1.12.09-2.26.07-3.38-.04-2.33-.18-4.67-.54-6.97-.15-.99-.27-2.44-1.06-3.18.56-.37,1.11-.73,1.67-1.1.53-.34,1.05-.69,1.58-1.04.06.68.21,1.36.31,1.98.16,1.01.27,2.03.38,3.05.1,1.05.18,2.09.26,3.14.08,1.14.11,2.27.35,3.4.02.1.06.18.11.26-.51.63-1.03,1.25-1.54,1.88Z"/>
        <path fill="#e5decd" d="M511.03,143.34c-.16-.78-.36-1.55-.56-2.32-.21-.82-.39-1.67-.7-2.45-.16-.4-.32-.79-.48-1.19-.18-.43-.69-.81-1.16-.52-.47.29-.45.72-.46,1.21,0,.42-.04.84-.01,1.26.04.84.17,1.68.26,2.52.1.87.21,1.73.35,2.6.08.48.17.98.41,1.42.38.66,1.16,1.03,1.87.64,1.13-.62.7-2.14.5-3.15Z"/>
        <path fill="#e5decd" d="M521.41,140.94s-.15-.34-.16-.35c-.04-.11-.09-.21-.13-.32-.12-.3-.25-.6-.37-.9-.27-.66-.55-1.31-.83-1.97-.24-.57-.47-1.13-.95-1.49-.02-.02-.04-.04-.07-.06-.26-.25-.64-.33-.97-.18-.29.13-.43.35-.5.62-.27.66,0,1.43.18,2.08.18.62.36,1.23.54,1.85.18.62.37,1.23.53,1.85.2.75.48,1.58.98,2.18.36.44,1.09.5,1.57.3.53-.22.88-.73.88-1.31,0-.77-.38-1.62-.7-2.31Z"/>
        <path fill="#e5decd" d="M532.81,140.53c-.1-1.66-2.29-1.93-2.85-.39-.66,1.83-.93,3.74-1.32,5.64-.39,1.9-.81,3.79-1.26,5.68-.43,1.85-.87,3.7-1.32,5.54-.2.79-.4,1.58-.67,2.35-.06.18-.13.36-.2.53,0,.03-.04.09-.05.13-.02.04-.03.07-.05.11-.17.36-.35.72-.57,1.06-.09.15-.2.3-.3.44-.02.02-.18.22-.23.27-.22.24-.46.47-.71.67-.05.03-.2.14-.26.18-.14.09-.29.18-.44.27-.15.08-.3.16-.46.24-.02,0-.06.03-.1.05-.08.03-.22.08-.22.09-.33.12-.66.22-1,.3-.17.04-.34.07-.51.1-.07.01-.15.02-.22.04.41-.07.05,0-.04,0-.72.07-1.44.07-2.17,0,0,0,0,0,0,0-.09-.02-.19-.03-.28-.05-.19-.04-.39-.08-.58-.12-.41-.1-.81-.22-1.21-.35-.18-.06-.37-.13-.55-.21-.02,0-.02,0-.03-.01,0,0,0,0-.02,0-.08-.03-.15-.07-.23-.1-.41-.19-.81-.4-1.2-.61-1.49-.79-2.77-1.72-3.96-2.74-1.49-1.27-2.84-2.69-4.11-4.17-.64-.74-1.28-1.46-1.92-2.2-.66-.76-1.28-1.51-2.05-2.17-.4-.34-1.16-.03-.96.56.6,1.72,1.63,3.38,2.69,4.86,1.12,1.56,2.31,3.06,3.6,4.47,2.51,2.74,5.48,5.2,9.16,6.13,3.46.87,7.38.21,10.01-2.32,2.72-2.62,3.3-6.74,4.13-10.24.54-2.27,1.06-4.55,1.52-6.84.48-2.35,1.06-4.76.91-7.17Z"/>
      </g>
    </g>
  </g>
</svg>
