<?xml version="1.0" encoding="UTF-8"?>
<svg id="Layer_2" xmlns="http://www.w3.org/2000/svg" viewBox="0 0 222.18 27.96">
  <defs>
    <style>
      .cls-1 {
        fill: #e5decd;
      }
    </style>
  </defs>
  <g id="Layer_1-2" data-name="Layer_1">
    <g>
      <path class="cls-1" d="M0,16.54h4.27c0,1.44.72,2.38,3.45,2.38,2.48,0,3.36-.72,3.36-1.85,0-.56-.28-1-1.1-1.19-.82-.19-2.07-.31-3.61-.44-2.23-.19-3.95-.53-4.89-1.19-.88-.63-1.47-1.76-1.47-3.04,0-3.36,3.45-5.21,7.75-5.21,5.08,0,7.4,1.95,7.4,5.55h-4.2c-.03-1.63-.78-2.48-3.14-2.48-2.13,0-3.07.72-3.07,1.79,0,.66.25,1.16,1.13,1.38.78.19,2.16.31,3.83.47,1.91.19,3.26.38,4.42,1.04,1,.56,1.73,1.73,1.73,3.07,0,3.26-2.79,5.18-8.09,5.18S0,19.67,0,16.54Z"/>
      <path class="cls-1" d="M18.01,0h4.77v21.74h-4.77V0Z"/>
      <path class="cls-1" d="M25.04,17.29c0-2.54,1.82-4.39,5.93-4.39h5.05v-1.04c0-1.88-1.07-2.64-3.26-2.64-1.79,0-2.82.75-2.82,2.01,0,.09,0,.35.03.66h-4.39c-.03-.25-.06-.6-.06-.91,0-3.14,2.76-4.99,7.47-4.99s7.81,2.2,7.81,6.34v9.41h-4.77c.09-.78.22-2.2.22-3.14h-.03c-.47,2.2-2.23,3.39-5.05,3.39-3.61,0-6.12-1.57-6.12-4.71ZM36.02,15.78v-.31h-4.61c-1.29,0-2.07.6-2.07,1.47,0,1.19,1.04,1.82,2.76,1.82,2.48,0,3.92-1.1,3.92-2.98Z"/>
      <path class="cls-1" d="M42.73,16.54h4.27c0,1.44.72,2.38,3.45,2.38,2.48,0,3.36-.72,3.36-1.85,0-.56-.28-1-1.1-1.19-.82-.19-2.07-.31-3.61-.44-2.23-.19-3.95-.53-4.89-1.19-.88-.63-1.47-1.76-1.47-3.04,0-3.36,3.45-5.21,7.75-5.21,5.08,0,7.4,1.95,7.4,5.55h-4.2c-.03-1.63-.78-2.48-3.14-2.48-2.13,0-3.07.72-3.07,1.79,0,.66.25,1.16,1.13,1.38.78.19,2.16.31,3.83.47,1.91.19,3.26.38,4.42,1.04,1,.56,1.73,1.73,1.73,3.07,0,3.26-2.79,5.18-8.09,5.18s-7.75-2.32-7.75-5.46Z"/>
      <path class="cls-1" d="M60.74,0h4.77v6.84c0,.6-.09,2.35-.19,3.51h.06c.78-2.95,2.6-4.36,6.12-4.36,3.73,0,6.15,2.04,6.15,6.06v9.7h-4.77v-8.63c0-2.2-1.22-3.17-3.36-3.17-2.51,0-4.02,1.47-4.02,4.42v7.37h-4.77V0Z"/>
      <path class="cls-1" d="M87.15,6.24h4.77l-.09,3.17h.03c.6-2.13,2.57-3.42,5.24-3.42,4.33,0,7.15,3.07,7.15,7.66,0,5.02-2.82,8.35-7.19,8.35-2.82,0-4.58-1.16-5.27-3.04h-.03c.06,1.04.16,2.57.16,3.14v5.87h-4.77V6.24ZM99.52,13.84c0-2.51-1.44-4.2-3.61-4.2-2.38,0-3.98,1.73-3.98,4.33v.69c0,2.23,1.6,3.7,4.02,3.7,2.13,0,3.58-1.82,3.58-4.52Z"/>
      <rect class="cls-1" x="106.48" y=".82" width="4.77" height="3.8" rx="1.9" ry="1.9"/>
      <rect class="cls-1" x="106.48" y="6.24" width="4.77" height="15.5"/>
      <path class="cls-1" d="M113.76,6.24h4.77l-.19,4.11h.06c.78-2.95,2.6-4.36,6.12-4.36,3.73,0,6.15,2.04,6.15,6.06v9.7h-4.77v-8.63c0-2.2-1.26-3.17-3.36-3.17-2.51,0-4.02,1.47-4.02,4.42v7.37h-4.77V6.24Z"/>
      <path class="cls-1" d="M148.43,14.9h-11.01c.22,2.54,1.51,3.64,3.64,3.64,1.85,0,3.04-.66,3.17-2.16h4.2c-.09,3.55-3.04,5.62-7.47,5.62-5.15,0-8.35-2.92-8.35-7.84s3.2-8.16,8.44-8.16c4.33,0,7.37,2.48,7.37,7.56v1.35ZM144.22,12.11c0-1.76-1.19-2.67-3.17-2.67s-3.14.88-3.51,2.92h6.68v-.25Z"/>
      <path class="cls-1" d="M159.06,16.41v-6.46h-2.29v-3.7h1.85c.72,0,.97-.41,1.07-1.35l.22-2.16h3.92v3.51h4.96v3.7h-4.96v6.21c0,1.6.75,2.1,2.64,2.1.66,0,1.63-.09,2.16-.22v3.61c-.41.09-1.73.35-3.01.35-4.83,0-6.56-2.13-6.56-5.58Z"/>
      <path class="cls-1" d="M185.67,14.9h-11.01c.22,2.54,1.51,3.64,3.64,3.64,1.85,0,3.04-.66,3.17-2.16h4.2c-.09,3.55-3.04,5.62-7.47,5.62-5.15,0-8.35-2.92-8.35-7.84s3.2-8.16,8.44-8.16c4.33,0,7.37,2.48,7.37,7.56v1.35ZM181.46,12.11c0-1.76-1.19-2.67-3.17-2.67s-3.14.88-3.51,2.92h6.68v-.25Z"/>
      <path class="cls-1" d="M187.48,14.02c0-5.05,3.29-8.03,8.06-8.03s7.53,2.54,7.53,6.84h-4.2c-.03-2.01-1.22-3.2-3.17-3.2-2.23,0-3.45,1.54-3.45,4.36s1.26,4.36,3.36,4.36,3.26-1.16,3.29-3.14h4.2c0,4.46-3.17,6.78-7.75,6.78s-7.88-2.95-7.88-7.97Z"/>
      <path class="cls-1" d="M205.27,0h4.77v6.84c0,.6-.09,2.35-.19,3.51h.06c.78-2.95,2.6-4.36,6.12-4.36,3.73,0,6.15,2.04,6.15,6.06v9.7h-4.77v-8.63c0-2.2-1.22-3.17-3.36-3.17-2.51,0-4.02,1.47-4.02,4.42v7.37h-4.77V0Z"/>
    </g>
  </g>
</svg>