<?xml version="1.0" encoding="UTF-8"?>
<svg xmlns="http://www.w3.org/2000/svg" viewBox="0 0 55.12 55.12">
  <g>
    <g>
      <circle fill=" #e5decd" cx="27.56" cy="27.56" r="27.56"/>
      <g>
        <path fill="#282828" d="M37.41,35.62l-8.58-8.58c-.51-.51-1.34-.51-1.85,0l-8.58,8.58c-.51.51-.51,1.34,0,1.85.26.26.59.38.92.38s.67-.13.92-.38l7.66-7.66,7.66,7.66c.26.26.59.38.92.38s.67-.13.92-.38c.51-.51.51-1.34,0-1.85Z"/>
        <path fill="#282828" d="M42.2,25.93l-13.37-13.37c-.51-.51-1.34-.51-1.85,0l-13.37,13.37c-.51.51-.51,1.34,0,1.85.26.26.59.38.92.38s.67-.13.92-.38l12.44-12.44,12.44,12.44c.26.26.59.38.92.38s.67-.13.92-.38c.51-.51.51-1.34,0-1.85Z"/>
        <path fill="#282828" d="M37.51,14.17l-8.68-8.68c-.51-.51-1.34-.51-1.85,0l-8.68,8.68c-.51.51-.51,1.34,0,1.85.26.26.59.38.92.38s.67-.13.92-.38l7.76-7.76,7.76,7.76c.26.26.59.38.92.38s.67-.13.92-.38c.51-.51.51-1.34,0-1.85Z"/>
        <path fill="#282828" d="M43.29,37.25c-.33,0-.67-.13-.92-.38l-14.46-14.46-14.46,14.46c-.51.51-1.34.51-1.85,0-.51-.51-.51-1.34,0-1.85l15.38-15.38c.51-.51,1.34-.51,1.85,0l15.38,15.38c.51.51.51,1.34,0,1.85-.26.26-.59.38-.92.38Z"/>
      </g>
      <path fill="#282828" d="M27.91,20.07c-.72,0-1.31.59-1.31,1.31v33.71c.32.01.64.02.96.02.56,0,1.11-.02,1.66-.05V21.38c0-.72-.59-1.31-1.31-1.31Z"/>
    </g>
  </g>
</svg>
