<?xml version="1.0" encoding="UTF-8"?>
<svg xmlns="http://www.w3.org/2000/svg" viewBox="0 0 238.12 232">
  <g>
    <g>
      <path fill="#e5decd" d="M113.34.67c-.13-.9-1.69-.9-1.82,0-.21,1.49-.05,3.06-.03,4.56.02,1.5.04,3,.07,4.49.05,3.06.11,6.11.23,9.17.03.82,1.24.82,1.27,0,.12-3.06.19-6.11.23-9.17.02-1.5.04-3,.07-4.49.02-1.5.18-3.08-.03-4.56Z"/>
      <path fill="#e5decd" d="M157.49,126.83c-.04-.11-.08-.22-.16-.32-2.2-3.12-5.27-5.58-8.05-8.17-2.79-2.6-5.6-5.18-8.43-7.75-2.79-2.53-5.59-5.05-8.41-7.55-1.42-1.26-2.81-2.58-4.31-3.75-1.38-1.08-3.06-2.03-4.88-1.62-3.38.77-6.35,2.95-9.32,4.65-3.12,1.79-6.27,3.52-9.46,5.16-6.48,3.34-13.04,6.53-19.66,9.56-3.71,1.7-7.45,3.33-11.16,5.02-3.17,1.44-6.47,2.72-9.6,4.28-1.19.02-2.38.04-3.57.06-2.04.03-4.09.14-6.13.22-1.94.08-3.95,0-5.82.56-.47.14-.47.82,0,.96,1.61.48,3.28.46,4.95.53,1.9.08,3.79.17,5.69.23,3.5.11,7,.12,10.5.17,7,.11,14,.1,21.01.12,14,.05,28.01.07,42.01.08,8.04,0,16.04-.18,24.07-.49,1.14-.04,1.38-1.38.73-1.97ZM114.31,126.07c-14,.01-28.01-.08-42.01.15-1.41.02-2.82.04-4.23.07,1.66-.64,3.3-1.33,4.94-1.98,3.24-1.29,6.43-2.66,9.61-4.1,6.46-2.92,12.86-5.99,19.18-9.2,3.16-1.61,6.29-3.28,9.45-4.89,3.13-1.6,6.2-3.34,9.35-4.89,1.29-.63,2.72-1.16,4.08-.42.65.35,1.11.95,1.63,1.46.68.68,1.41,1.32,2.11,1.99,2.7,2.55,5.41,5.09,8.15,7.59,3.08,2.82,6.16,5.63,9.27,8.41,1.52,1.36,3.04,2.71,4.56,4.07.8.71,1.58,1.41,2.4,2.07-5.83-.2-11.66-.35-17.5-.35-7,0-14,.01-21.01.02Z"/>
      <path fill="#e5decd" d="M172.19,145.89c-.7-3.81-.97-7.66-1.62-11.47-.32-1.9-3.02-1.26-3.16.43-.27,3.31.1,6.62.64,9.89-5.47.66-10.94,1.11-16.45,1.26,0-.84-.01-1.69-.03-2.53,0-.26-.43-.34-.47-.06-.13.87-.25,1.74-.37,2.62-1.12.02-2.24.04-3.36.03-1.27,0-2.54-.04-3.81-.07-.12-.73-.25-1.45-.43-2.17-.25-.99-1.77-1-2.01,0-.17.69-.29,1.39-.4,2.09-3.87-.14-7.73-.38-11.59-.67-.1-.27-.21-.54-.28-.83-.15-.62-1.11-.62-1.25,0-.06.24-.15.47-.24.69-.96-.08-1.91-.15-2.87-.23-1.21-.1-2.43-.22-3.64-.32-.11-.78-.24-1.56-.29-2.35-.03-.59-.89-.6-.92,0-.04.75-.19,1.48-.29,2.22-7.33-.67-14.66-1.37-21.99-1.89-.05-.59-.1-1.18-.15-1.77-.04-.48-.71-.48-.75,0-.05.56-.1,1.12-.15,1.69-6.01-.41-12.03-.7-18.07-.72-4.42-.02-8.82.08-13.24.33-2.18.13-4.36.24-6.52.53-1.07.14-2.13.29-3.2.44-.26.04-.52.09-.77.16,0-.33,0-.66.03-.99.06-.84.09-1.69.08-2.53-.01-1.74-.3-3.53-.74-5.2-.07-.26-.46-.26-.53,0-.41,1.63-.9,3.23-1.37,4.84-.24.82-.51,1.63-.81,2.43-.14.37-.16.4-.39.8-.28.51-.56,1-.73,1.56-.33,1.11.39,2.46,1.54,2.72.99.23,1.97-.18,2.47-1.01.32.06.64.12.97.14,1.01.06,2.02.06,3.03.09,1.95.07,3.9.05,5.85.04,2.73,0,5.46.01,8.19.03-.03.22-.06.44-.08.66-.08,1.08-.09,2.18-.14,3.26-.08,1.96-.19,3.92-.22,5.88-.06,3.99-.12,7.98-.18,11.97-.12,7.98-.1,15.96-.12,23.94-.01,4.14,0,8.28.27,12.42-1.08.15-2.14.35-3.2.65-1.2.35-1.21,2.09,0,2.44,2.82.82,5.74.93,8.66,1.05,1,.04,1.99.09,2.99.13.57.65,1.56.68,2.17.09,1.05.04,2.11.08,3.16.12,5.69.17,11.38.31,17.07.37,11.24.11,22.48.24,33.71-.07,3.21-.09,6.42-.2,9.63-.35,3.2-.15,6.59.07,9.67-.82,1.71-.49,1.71-2.97,0-3.47-2.83-.82-5.86-.64-8.8-.78-1.31-.06-2.62-.12-3.93-.18.14-1.36.09-2.8.17-4.07.12-1.96.24-3.91.33-5.87.19-4.06.36-8.12.51-12.18.28-7.98.34-15.95.31-23.93-.01-2.32.03-4.7-.08-7.07.27,0,.55.02.82.02,1.79.02,3.6.01,5.4-.01-.58,5.2-.99,10.43-1.43,15.63-.64,7.61-.93,15.29-1.14,22.92-.12,4.37-.22,8.74-.31,13.1-.04,1.99,3.03,1.98,3.08,0,.4-15.21.96-30.41,1.09-45.63.02-2.01.06-4.03.08-6.05,6.46-.15,12.95-.67,19.24-2,1.09-.23,1.54-1.42,1.36-2.4ZM126.75,149.46c0,.12-.02.24-.03.37-.11,1.97-.19,3.94-.28,5.91-.19,3.87-.3,7.73-.37,11.6-.14,7.74-.05,15.47.04,23.21l.07,6.35c.01,1.09.02,2.19.03,3.28,0,1.05.16,1.93.42,2.89-1.73-.01-3.46-.04-5.19-.03.08-.17.13-.36.14-.58.51-7.84.36-15.72.33-23.58-.03-7.78.04-15.6-.37-23.36-.12-2.16-.25-4.33-.38-6.49,1.87.16,3.73.31,5.6.45ZM119.03,148.82c-.1,1.72-.2,3.43-.3,5.15-.22,3.92-.25,7.86-.33,11.79-.17,7.78-.21,15.58-.15,23.36.04,4.45.06,8.88.35,13.32.01.22.07.42.15.59-4.91.01-9.82.03-14.72.08.23-3.12.13-6.27.15-9.41.02-4.07.05-8.13.07-12.2.05-8.13-.07-16.27-.36-24.39-.08-2.32-.15-4.65-.3-6.97-.06-.88-.08-1.78-.13-2.68,5.2.42,10.39.9,15.59,1.36ZM98.76,147.1c.87.06,1.74.14,2.61.2-.04.66-.06,1.32-.1,1.97-.13,2.03-.22,4.06-.29,6.1-.15,4.07-.25,8.13-.31,12.2-.11,8.13-.1,16.26-.06,24.39.02,3.72-.13,7.48.16,11.2-.75.01-1.5.02-2.26.03.3-16.01.11-32.06-.33-48.06-.08-2.71-.25-5.41-.46-8.11.35.02.7.04,1.05.07ZM73.88,204c.49-7.52.24-15.1.22-22.63-.02-7.98-.13-15.96-.25-23.94-.03-2.18-.12-4.35-.21-6.53-.05-1.16-.1-2.32-.15-3.48-.02-.44-.08-.87-.15-1.3.75,0,1.5.01,2.26.02,1.64.02,3.28.05,4.92.09-.16,1.26-.34,2.52-.38,3.8-.07,2.11-.14,4.21-.21,6.32-.14,4.14-.27,8.28-.35,12.42-.16,8.21-.22,16.41-.26,24.62-.02,3.41-.14,6.91.02,10.36-.47.02-.93.03-1.4.05-1.36.06-2.71.11-4.06.2ZM83.02,203.6c.1-2.82.02-5.67.03-8.48.02-4.14-.05-8.28-.07-12.42-.05-8.21-.22-16.41-.49-24.62-.08-2.32-.16-4.65-.23-6.97-.04-1.09-.01-2.21-.18-3.29-.08-.52-.15-1.04-.22-1.57,4.68.13,9.37.35,14.04.65-.18,2.16-.33,4.32-.39,6.48-.12,4.14-.25,8.29-.3,12.43-.11,8.36-.14,16.72-.13,25.09,0,4.11,0,8.23.06,12.34-2.52.05-5.03.11-7.55.18-1.52.05-3.04.11-4.56.17ZM138.36,203.26c-2.85-.08-5.7-.14-8.54-.18.22-.74.4-1.45.4-2.25,0-.95.01-1.9.02-2.85.02-1.97.04-3.94.06-5.91.04-3.87.09-7.73.13-11.6.07-7.73,0-15.48-.37-23.2-.1-2.12-.2-4.23-.31-6.35-.02-.42-.05-.84-.08-1.26,3.53.24,7.06.43,10.6.55-.09,1.81-.11,3.63-.15,5.42-.09,4.06-.2,8.12-.34,12.19-.27,7.97-.48,15.95-.82,23.92-.1,2.25-.19,4.49-.29,6.74-.06,1.52-.3,3.18-.29,4.79-.01,0-.02,0-.04,0Z"/>
      <path fill="#e5decd" d="M177.01,123.68c-12.5-11.15-27.14-19.45-40.36-29.64,0-.05,0-.1,0-.15.06-2.45.02-4.93-.08-7.38-.09-2.38-.11-4.8-.36-7.17-.03-.32-.1-1.85-.38-3.08.49.04.97.08,1.46.12,1.2.11,2.4.23,3.6.37,1.34.15,2.6.51,3.95.24,1.14-.23,1.28-1.9.32-2.44-1.01-.57-2.09-.63-3.22-.79-1.13-.16-2.25-.33-3.38-.48-.87-.12-1.75-.22-2.63-.32-.43-4.96-3.45-9.74-6.59-13.46-1.6-1.89-3.47-3.82-5.56-5.4.63-3.11.74-6.39.82-9.54.04-1.71.08-3.42.1-5.12.02-1.25.53-3.95-1.26-4.26-.33-.06-.63,0-.88.13-.36-2.67-1.47-5.25-2.52-7.7-.57-1.33-1.19-2.64-1.86-3.92-.57-1.09-1.13-2.29-2.03-3.15-2.16-2.07-4.82-.62-6.84.87-2,1.47-3.69,3.38-5.03,5.46-1.15,1.79-2.32,4.05-2.56,6.27-.39-.07-.82.11-1.07.45-.47.64-.39,1.49-.46,2.26-.07.82-.11,1.65-.17,2.47-.1,1.53-.23,3.06-.32,4.59-.1,1.53-.14,3.06-.23,4.59-.08,1.47-.4,3.28.04,4.7.03.11.11.18.19.24-4.72,1.6-9.23,3.97-12.72,7.59-1.97,2.04-3.72,4.42-4.82,7.05-.54,1.28-.95,2.56-1.16,3.94-.05.37-.11.73-.16,1.09-1.71.15-3.41.34-5.13.48-.99.08-1.4,1.71-.25,1.88,2.23.34,4.42.76,6.67.94.73.06,1.47.1,2.2.14-.08.56-.16,1.12-.2,1.68-.08,1.15-.2,2.31-.27,3.46-.14,2.31-.21,4.62-.35,6.93-.14,2.31-.26,4.61-.36,6.92-.09,2.12-.3,4.36-.03,6.47-.32.18-.64.36-.97.54-9.75,5.35-19.7,10.34-29.37,15.82-2.78,1.57-5.56,3.15-8.34,4.72-1.46.83-2.9,1.68-4.34,2.54-1.28.76-2.52,1.37-3.34,2.6-1.24-.17-2.52-.19-3.75-.26-1.52-.08-3.04-.15-4.56-.21-3.04-.12-6.08-.21-9.12-.27-3.04-.06-6.08-.08-9.12-.02-1.52.03-3.04.03-4.56.11-.71.04-1.42.1-2.13.16-.74.06-1.51.03-2.19.38-.45.23-.49,1.02,0,1.24.69.32,1.43.27,2.19.31.71.03,1.42.08,2.13.09,1.38.03,2.76.02,4.13.04,0,.13,0,.26,0,.39-.02.78-.03,1.56-.03,2.33,0,.75,0,1.5.04,2.25.04.8.17,1.51.39,2.28-1.25-.06-2.5-.13-3.75-.15-1.88-.04-3.74.15-5.62.14-1.14,0-1.11,1.66,0,1.75,1.81.15,3.6.5,5.4.67,1.72.16,3.46.27,5.18.42,3.53.31,7.05.66,10.57,1.03,3.45.35,6.89.75,10.33,1.19,3.35.43,6.79.74,10.04,1.71.12.12.24.25.36.37.93.9,2.35,1.08,3.48.45.1-.05.2-.11.29-.16,1.5-.84,1.66-2.89.53-4.09-.08-.08-.16-.17-.24-.25-.92-.97-2.35-1.01-3.48-.45-.12.06-.24.13-.36.19-3.36,0-6.72-.59-10.05-.97-.03-1.29-.16-2.57-.33-3.86-.19-1.55-.4-3.09-.6-4.64.26.01.51.02.77.04,1.5.08,3.06.27,4.55.16.63-.05,1.04-.58,1.11-1.12.91-.16,1.73-.56,2.64-.98,1.33-.61,2.67-1.2,4-1.82,2.64-1.24,5.27-2.52,7.91-3.78,5.1-2.44,10.14-5.01,15.15-7.61,9.87-5.13,19.66-10.43,29.3-15.96,5.49-3.15,11.11-6.26,15.94-10.38.63-.54.6-1.57.13-2.18-.54-.7-1.37-.77-2.14-.43-5.16,2.26-9.94,5.3-14.81,8.13-3.34,1.94-6.7,3.84-10.08,5.72.2-1.54.22-3.15.29-4.64.1-2.31.14-4.61.11-6.92-.04-2.31-.05-4.62-.18-6.93-.06-1.16-.19-2.31-.3-3.46-.05-.53-.14-1.06-.23-1.58.95.04,1.9.08,2.86.1,4.49.12,9.01.02,13.5-.12,9.05-.29,18.09-.38,27.14.15,1.36.08,2.72.18,4.07.28-.05.29-.07.58-.11.87-.16,1.15-.27,2.32-.31,3.47-.09,2.31-.19,4.63-.2,6.95,0,1.28-.01,2.57,0,3.85-1.09-.89-2.17-1.79-3.23-2.72-2.06-1.8-4.04-3.69-6.21-5.37-1.06-.82-1.82-1.8-3.33-1.37-.94.27-1.51,1.3-2.4,1.49-1.94.43-1.12,3.38.82,2.97.97-.2,1.42-.91,2.23-1.34.53-.28,1.44.47,2.04.89,2.03,1.4,3.81,3.11,5.68,4.71,1.46,1.25,2.95,2.45,4.46,3.64,0,.07,0,.13,0,.2.09,2.14-.19,4.71.78,6.67.37.75,1.64.77,2.01,0,.59-1.23.7-2.71.71-4.17,1.01.75,2.02,1.49,3.03,2.23,7.66,5.51,15.63,10.59,23.46,15.85,4.48,3.01,8.93,6.12,13.18,9.46.47.37,1.15-.26.68-.68ZM18.02,129.76c-.05.74-.1,1.49-.15,2.23-.1,1.5-.28,3.01-.2,4.51-2.01-.14-4.01-.26-6.02-.36-.06,0-.11,0-.17,0,0,0,0,0,0,0,.16-.76.26-1.47.24-2.25-.02-.78-.07-1.55-.13-2.33-.06-.75-.12-1.5-.2-2.25-.02-.15-.03-.3-.04-.46,2.25.03,4.5.06,6.75.1-.03.27-.06.54-.08.81ZM22.21,136.84c-.98-.08-1.95-.15-2.93-.22,0-.03.02-.05.02-.08.08-1.51-.1-3.04-.2-4.56-.05-.74-.1-1.49-.15-2.23-.02-.27-.05-.53-.08-.8.12,0,.23,0,.35,0,1.43.03,2.85.06,4.28.11.03,2.65.1,5.33.57,7.95-.62-.06-1.24-.12-1.85-.17ZM31.16,134.15c.04,1.21.11,2.41.26,3.6-1.87-.2-3.73-.39-5.6-.57,0-.02,0-.03,0-.05-.01-2.68-.46-5.37-.95-8.01,1.1.04,2.21.07,3.31.12.95.04,1.89.09,2.84.13.04,1.6.08,3.19.13,4.79ZM105.03,31.52c.52-1.15,1.12-2.26,1.83-3.31,1.47-2.14,3.45-3.97,5.64-5.36.35-.22.88-.66,1.32-.52.46.15.81.82,1.03,1.19.78,1.32,1.46,2.71,2.1,4.1,1.05,2.27,1.77,4.69,2.69,7-2.65-.1-5.3-.3-7.94-.59-1.6-.18-3.19-.36-4.79-.57-.79-.11-1.65-.32-2.51-.45.2-.5.39-1,.62-1.49ZM101.36,47.77c.22-1.55.46-3.11.63-4.67.18-1.59.29-3.18.42-4.77.07-.82.13-1.65.17-2.47,0-.08,0-.17.02-.25.31.05.64-.07.85-.44.01-.02.02-.04.03-.06.28.06.55.11.83.17.84.17,1.69.33,2.53.48,1.56.27,3.12.51,4.69.68,3.3.36,6.62.56,9.94.62.18,0,.36-.05.53-.14.02.04.02.08.04.12.2.4.06,1.39.08,1.86.02.79.04,1.59.06,2.38.03,1.52.03,3.05.09,4.57.08,2.47.08,4.96.35,7.42-1.89-1.25-3.95-2.18-6.14-2.54-1.28-.21-2.53-.28-3.82-.16-1.45.13-2.9.04-4.35.14-2.66.18-5.33.71-7.88,1.52,0,0-.02,0-.02,0,.7-1.28.77-3.04.97-4.45ZM131.77,72.55c-4.47-.36-8.95-.56-13.43-.67-9.07-.22-18.13-.28-27.2-.19-2.55.03-5.11.09-7.66.23.4-.89.84-1.77,1.32-2.62,1.08-1.92,2.36-3.76,3.88-5.36,3.13-3.3,7.11-5.78,11.26-7.6,2.15-.94,4.38-1.7,6.62-2.4,1.19-.37,2.38-.71,3.61-.93,1.37-.25,2.63-.04,3.96.31,4.39,1.14,8.36,4.52,11.38,7.79,1.65,1.78,3.12,3.71,4.37,5.79,1.14,1.88,2.09,3.87,3.18,5.78-.43-.04-.86-.09-1.29-.12Z"/>
      <path fill="#e5decd" d="M136.83,210.67c-7.83-.72-15.77-.41-23.63-.43-7.88-.03-15.75-.12-23.63,0-2.26.03-4.52.03-6.78.14-1.93.1-4.61-.16-6.24,1.05-.43.32-.43.84,0,1.15,1.44,1.07,3.67.93,5.37,1.01,1.97.1,3.94.13,5.91.16,3.94.06,7.87.08,11.81.06,7.88-.03,15.75-.05,23.63-.08,4.54-.01,9.04.01,13.56-.4,1.72-.16,1.72-2.51,0-2.67Z"/>
      <path fill="#e5decd" d="M139.38,216.75c-7.91-.38-15.85-.52-23.77-.51-7.92.01-15.85-.12-23.77.06-2.18.05-4.36.07-6.54.14-1.16.04-2.33.14-3.49.21-.51.03-1.02.04-1.53.11-.62.09-1.39.58-1.96.6-.31,0-.31.47,0,.48.52.01,1.11.44,1.64.56.39.08.8.08,1.2.11,1.02.06,2.04.13,3.05.19,2.03.13,4.07.12,6.11.17,3.92.08,7.85.06,11.78.07,7.92.01,15.85.02,23.77-.09,4.51-.07,9.01-.18,13.52-.4,1.08-.05,1.08-1.63,0-1.68Z"/>
      <path fill="#e5decd" d="M134.91,220.92c-8.7-.66-17.51-.32-26.23-.31-8.75,0-17.49.15-26.23.67-.79.05-.79,1.19,0,1.23,8.73.52,17.48.67,26.23.67,8.72,0,17.53.35,26.23-.31,1.25-.1,1.26-1.86,0-1.95Z"/>
      <path fill="#e5decd" d="M183.92,158.98c-.18-.82-.83-1.19-1.62-1.26-.73-.07-1.45-.12-2.18-.25-.76-.14-1.51-.42-2.28-.42-.39,0-.67.17-.85.42-.21-.09-.53.06-.55.34-.22,2.74-.51,5.48-.77,8.22-.13,1.33-.3,2.65-.5,3.97-.1.66-.17,1.27.34,1.79.53.53,1.34.51,2.04.53,1.29.02,2.73,0,4-.24,1.4-.26,1.63-1.41,1.79-2.62.36-2.73.38-5.52.53-8.26.04-.69.2-1.51.05-2.19ZM181.37,161.31c-.04.7-.07,1.4-.11,2.1-.07,1.31-.14,2.62-.21,3.93-.04.7-.04,1.39-.02,2.1,0,.01,0,.23,0,.43-.1,0-.21,0-.31,0-.7,0-1.4-.02-2.11-.05-.35-.01-.7-.03-1.05-.03,0,0,0,0,0,0,.03-.24.07-.49.08-.64.04-.56.08-1.13.11-1.69.06-1.09.08-2.17.05-3.26-.04-1.69-.17-3.35-.4-5.02.71.43,1.63.59,2.44.73.53.1,1.06.15,1.59.21,0,.04,0,.09,0,.13-.02.35-.04.7-.06,1.05Z"/>
      <path fill="#e5decd" d="M206.05,187.88c-.18-.82-.83-1.19-1.62-1.26-.73-.07-1.45-.12-2.18-.25-.76-.14-1.51-.42-2.28-.42-.39,0-.67.17-.85.42-.21-.09-.53.06-.55.34-.22,2.74-.51,5.48-.77,8.22-.13,1.33-.3,2.65-.5,3.97-.1.66-.17,1.27.34,1.79.53.53,1.34.51,2.04.53,1.29.02,2.73,0,4-.24,1.4-.26,1.63-1.41,1.79-2.62.36-2.73.38-5.52.53-8.26.04-.69.2-1.51.05-2.19ZM203.5,190.2c-.04.7-.07,1.4-.11,2.1-.07,1.31-.14,2.62-.21,3.93-.04.7-.04,1.39-.02,2.1,0,.01,0,.23,0,.43-.1,0-.21,0-.31,0-.7,0-1.4-.02-2.11-.05-.35-.01-.7-.03-1.05-.03,0,0,0,0,0,0,.03-.24.07-.49.08-.64.04-.56.08-1.13.11-1.69.06-1.09.08-2.17.05-3.26-.04-1.69-.17-3.35-.4-5.02.71.43,1.63.59,2.44.73.53.1,1.06.15,1.59.21,0,.04,0,.09,0,.13-.02.35-.04.7-.06,1.05Z"/>
      <path fill="#e5decd" d="M205.51,158.56c-.02-1.39.06-2.89-.39-4.22-.14-.41-.51-.74-.96-.73-2.43.07-4.86.21-7.27.51-1.23.15-2.41.72-2.47,2.13-.04,1.01.48,1.99,1.39,2.43-.06.59-.11,1.17-.12,1.76-.02,1.29-.04,2.58-.06,3.87-.02,1.24-.04,2.48-.06,3.72,0,.54-.06,1.1.21,1.59.31.55.87.8,1.48.82,1.19.04,2.4,0,3.59.01,1.12.02,2.82.35,3.7-.53.41-.41.46-.95.5-1.49.05-.66.13-1.31.18-1.97.1-1.22.15-2.44.2-3.67.05-1.41.08-2.83.05-4.24ZM202.96,164.35c-.06.8-.14,1.6-.23,2.4-.02.22-.16.66-.18.99-.14.01-.3.04-.4.04l-2.39.04c-.42,0-.85.02-1.27.02-.09,0-.18,0-.27,0,0-.13,0-.25-.01-.38-.02-.52-.04-1.05-.06-1.57-.04-1.05-.08-2.1-.12-3.15-.04-1.04-.02-2.11-.11-3.15-.08-.87-.08-1.98-.6-2.71.57-.11,1.7-.41,1.87-.44,1.28-.26,2.58-.48,3.87-.67-.04,1.16.08,2.35.08,3.5,0,1.7-.05,3.39-.19,5.09Z"/>
      <path fill="#e5decd" d="M186.97,190.77c-.05-.94-.07-1.97-.97-2.53-.79-.5-1.74-.32-2.63-.26-.87.05-1.75.11-2.62.16-.55.03-1.11.06-1.67.1-.14-.09-.3-.17-.48-.19-.33-.04-.72.07-.99.31-.79.09-1.56.24-2.37.26-1.17.03-1.17,1.78,0,1.82.64.02,1.23.1,1.84.19-.29,2.6-.34,5.23-.48,7.85l-.12,2.38c-.04.77-.22,1.69.21,2.39.53.86,1.48.79,2.34.68l2.31-.28c1.35-.16,2.87-.12,3.84-1.22.54-.61.72-1.43.93-2.19.21-.76.37-1.5.48-2.27.22-1.6.4-3.22.42-4.84.01-.78-.02-1.56-.06-2.33ZM183.62,192.72c-.02.99-.04,1.99-.12,2.98-.07.95-.21,1.89-.3,2.83-.05.51-.08,1.02-.14,1.53-.03.25-.07.51-.09.76,0,.01,0,.03,0,.04-.1.01-.2.01-.32.02-.51.03-1.03.06-1.54.1-.6.04-1.21.08-1.82.12.03-.66.08-1.33.11-1.98.05-1.1.09-2.21.14-3.31.07-1.66.17-3.32.16-4.98.14,0,.27.01.41.02.79.05,1.57.1,2.36.14.39.02.77.05,1.16.07,0,.07,0,.14,0,.21,0,.48,0,.95,0,1.43Z"/>
      <path fill="#e5decd" d="M38.02,161.18c.14,2.75.16,5.54.53,8.26.16,1.22.39,2.36,1.79,2.62,1.27.24,2.71.27,4,.24.7-.01,1.51,0,2.04-.53.52-.52.44-1.13.34-1.79-.2-1.32-.37-2.64-.5-3.97-.26-2.74-.55-5.48-.77-8.22-.02-.28-.34-.43-.55-.34-.18-.25-.46-.42-.85-.42-.77,0-1.53.28-2.28.42-.72.14-1.44.19-2.18.25-.79.07-1.44.44-1.62,1.26-.15.69,0,1.5.05,2.19ZM40.47,160.26s0-.09,0-.13c.53-.05,1.06-.11,1.59-.21.81-.15,1.72-.3,2.44-.73-.23,1.66-.36,3.32-.4,5.02-.03,1.09,0,2.17.05,3.26.03.56.07,1.13.11,1.69.01.15.05.39.08.64,0,0,0,0,0,0-.35,0-.7.02-1.05.03-.7.03-1.4.05-2.11.05-.1,0-.21,0-.31,0,0-.19,0-.42,0-.43.02-.7.02-1.39-.02-2.1-.07-1.31-.14-2.62-.21-3.93-.04-.7-.07-1.4-.11-2.1-.02-.35-.04-.7-.06-1.05Z"/>
      <path fill="#e5decd" d="M12.2,190.07c.14,2.75.16,5.54.53,8.26.16,1.22.39,2.36,1.79,2.62,1.27.24,2.71.27,4,.24.7-.01,1.51,0,2.04-.53.52-.52.44-1.13.34-1.79-.2-1.32-.37-2.64-.5-3.97-.26-2.74-.55-5.48-.77-8.22-.02-.28-.34-.43-.55-.34-.18-.25-.46-.42-.85-.42-.77,0-1.53.28-2.28.42-.72.14-1.44.19-2.18.25-.79.07-1.44.44-1.62,1.26-.15.69,0,1.5.05,2.19ZM14.65,189.15s0-.09,0-.13c.53-.05,1.06-.11,1.59-.21.81-.15,1.72-.3,2.44-.73-.23,1.66-.36,3.32-.4,5.02-.03,1.09,0,2.17.05,3.26.03.56.07,1.13.11,1.69.01.15.05.39.08.64,0,0,0,0,0,0-.35,0-.7.02-1.05.03-.7.03-1.4.05-2.11.05-.1,0-.21,0-.31,0,0-.19,0-.42,0-.43.02-.7.02-1.39-.02-2.1-.07-1.31-.14-2.62-.21-3.93-.04-.7-.07-1.4-.11-2.1-.02-.35-.04-.7-.06-1.05Z"/>
      <path fill="#e5decd" d="M16.43,162.8c.04,1.22.1,2.45.2,3.67.05.66.13,1.31.18,1.97.04.54.09,1.08.5,1.49.88.88,2.58.54,3.7.53,1.19-.02,2.4.03,3.59-.01.61-.02,1.17-.27,1.48-.82.27-.49.22-1.05.21-1.59-.02-1.24-.04-2.48-.06-3.72l-.06-3.87c0-.59-.05-1.17-.12-1.76.91-.44,1.43-1.42,1.39-2.43-.06-1.41-1.23-1.98-2.47-2.13-2.41-.3-4.84-.44-7.27-.51-.45-.01-.82.32-.96.73-.45,1.33-.37,2.82-.39,4.22-.02,1.41,0,2.83.05,4.24ZM18.75,159.27c0-1.15.12-2.34.08-3.5,1.3.19,2.59.41,3.87.67.17.03,1.3.33,1.87.44-.52.72-.52,1.84-.6,2.71-.1,1.04-.08,2.11-.11,3.15-.04,1.05-.08,2.1-.12,3.15-.02.52-.04,1.05-.06,1.57,0,.13,0,.25-.01.38-.09,0-.18,0-.27,0-.42,0-.85-.01-1.27-.02l-2.39-.04c-.1,0-.26-.03-.4-.04-.02-.33-.15-.77-.18-.99-.09-.8-.17-1.6-.23-2.4-.14-1.69-.19-3.39-.19-5.09Z"/>
      <path fill="#e5decd" d="M34.86,193.11c.02,1.62.2,3.24.42,4.84.11.78.27,1.52.48,2.27.21.77.4,1.58.93,2.19.97,1.11,2.49,1.06,3.84,1.22l2.31.28c.87.11,1.81.18,2.34-.68.43-.7.25-1.61.21-2.39-.04-.79-.08-1.59-.12-2.38-.13-2.61-.19-5.25-.48-7.85.61-.09,1.21-.17,1.84-.19,1.17-.03,1.17-1.78,0-1.82-.81-.02-1.58-.17-2.37-.26-.27-.23-.66-.35-.99-.31-.19.02-.34.1-.48.19-.56-.03-1.11-.06-1.67-.1-.87-.05-1.75-.11-2.62-.16-.89-.05-1.83-.24-2.63.26-.89.56-.91,1.59-.97,2.53-.04.78-.07,1.56-.06,2.33ZM38.26,191.29c0-.07,0-.14,0-.21.39-.02.77-.05,1.16-.07.79-.05,1.57-.1,2.36-.14.14,0,.27-.01.41-.02-.02,1.66.09,3.31.16,4.98.05,1.1.09,2.21.14,3.31.03.65.08,1.32.11,1.98-.61-.04-1.21-.09-1.82-.12-.51-.03-1.03-.06-1.54-.1-.12,0-.22-.01-.32-.02,0-.01,0-.03,0-.04-.02-.25-.06-.51-.09-.76-.06-.51-.09-1.02-.14-1.53-.09-.95-.24-1.88-.3-2.83-.07-.99-.09-1.99-.12-2.98-.01-.48-.01-.95,0-1.43Z"/>
      <path fill="#e5decd" d="M221.51,134.45c-4.21-.68-8.41-1.44-12.61-2.17-.18-.24-.47-.41-.87-.41-.23,0-.43.06-.59.16-2.59-.45-5.18-.89-7.78-1.28-3.72-.56-7.47-.86-11.24-.93-1.85-.04-3.67.07-5.52.14-.98.04-1.96.06-2.93.23-.86.15-1.81.2-2.57.66-.51.31-.5,1.05,0,1.36.74.46,1.72.56,2.57.73.41.08.82.14,1.23.2.02.36.04.71.06,1.07.03.57,0,1.16.06,1.73.06.6.16,1.2.24,1.8.01.08.03.16.07.23-2.91-.28-5.82-.73-8.66-1.42-1.54-.38-2.14,1.86-.65,2.36,11.17,3.73,23.05,2.8,34.64,2.86,3.3.02,6.58.25,9.88.17,1.06-.02,1.3-1.57.25-1.86-2.79-.79-5.66-1-8.55-1.17-2.93-.17-5.86-.22-8.79-.25-5.73-.07-11.44-.13-17.15-.6.07-.09.12-.2.12-.33-.02-.6,0-1.2-.05-1.8-.04-.58-.16-1.15-.22-1.73-.04-.31-.07-.62-.1-.93.05,0,.09.01.14.02,1.79.21,3.58.54,5.37.79.62.09,1.24.18,1.85.28.04.54.08,1.07.12,1.61.03.34.29.61.65.57.35-.05.55-.38.48-.72-.09-.44-.19-.87-.28-1.31,2.4.37,4.79.78,7.18,1.18.07.27.13.54.2.81.03.12.08.22.16.31.06.1.15.18.25.23.1.07.21.1.33.11.12.03.24.02.36-.02.07-.03.14-.06.22-.09.14-.08.24-.19.32-.32.03-.07.06-.14.09-.22.04-.16.04-.32,0-.48,7.01,1.24,14.08,2.9,21.22,2.14.93-.1,1.73-.64,1.85-1.63.1-.84-.41-1.92-1.35-2.07Z"/>
      <path fill="#e5decd" d="M237.41,229.56c-30.68-1.1-61.39-.92-92.09-.92-30.46,0-60.93-.04-91.39.13,2.13-2.53,4.1-5.15,6.03-7.84,1.16-1.62,2.31-3.24,3.44-4.89l1.73-2.53c.57-.83,1.22-1.59,1.29-2.63.04-.57-.64-1.13-1.2-.91-.97.38-1.48,1.19-2.11,1.99-.63.8-1.26,1.6-1.88,2.41-1.24,1.59-2.46,3.19-3.67,4.8-2.33,3.13-4.57,6.27-6.59,9.61-16.32.09-32.65.19-48.96.77-.94.03-.94,1.43,0,1.46,30.67,1.1,61.4.91,92.09.91,30.54,0,61.08.16,91.62-.04,17.23-.11,34.46-.26,51.68-.88.94-.03.94-1.43,0-1.46Z"/>
      <path fill="#e5decd" d="M173.24,226.59c-4.48-5.88-8.81-12-12.58-18.36-.43-.73-1.47-.09-1.12.65,1.62,3.4,3.39,6.72,5.47,9.87,2.07,3.15,4.41,6.05,6.95,8.83.61.67,1.85-.24,1.28-.99Z"/>
    </g>
  </g>
</svg>
