<?xml version="1.0" encoding="UTF-8"?>
<svg id="Layer_2" xmlns="http://www.w3.org/2000/svg" viewBox="0 0 203.7 117">
  <defs>
    <style>
      .cls-1 {
        fill: #282828;
      }
    </style>
  </defs>
  <g id="Layer_1-2" data-name="Layer_1">
    <g>
      <g>
        <g>
          <path class="cls-1" d="M73.01,11.93c1.67,0,2.99-.4,3.97-1.21.98-.81,1.47-1.88,1.47-3.23s-.49-2.41-1.47-3.2c-.98-.79-2.3-1.19-3.97-1.19s-2.97.39-3.95,1.17c-.98.78-1.47,1.85-1.47,3.21s.49,2.42,1.47,3.23,2.3,1.21,3.95,1.21Z"/>
          <path class="cls-1" d="M80.53,36.53c-.16-.22-.43-.4-.81-.54l-.75-.26c-.29-.12-.5-.31-.63-.58-.13-.27-.19-.71-.19-1.33V15.35c0-.58-.18-1.07-.53-1.44-.35-.38-.88-.57-1.59-.57-.34,0-.75.06-1.23.19-.47.13-1.11.35-1.92.66l-5.24,1.99c-.53.21-.9.41-1.1.62s-.3.49-.3.85c0,.29.07.53.22.72s.39.34.74.44l.95.13c.31.07.53.21.67.43.14.22.21.57.21,1.07v14.58c0,.6-.07,1.03-.19,1.3-.49,1.08-3.34,1.42-4.01,0-.13-.27-.19-.71-.19-1.33V1.99c0-.58-.18-1.06-.53-1.43-.35-.37-.88-.56-1.59-.56-.34,0-.75.06-1.23.18-.47.12-1.11.34-1.92.65l-5.24,1.99c-.53.21-.9.41-1.1.62s-.3.49-.3.85c0,.29.07.53.22.72s.39.34.74.44l.95.13c.31.07.53.21.67.43.14.22.21.57.21,1.07v26.78c0,.6-.06,1.04-.19,1.3-.13.27-.33.46-.61.58l-.8.26c-.36.14-.62.32-.79.54-.16.22-.25.49-.25.8,0,.41.13.74.4.97.27.23.7.35,1.3.35h24.47c.58,0,1.01-.12,1.29-.35.27-.23.41-.55.41-.97,0-.31-.08-.58-.25-.8Z"/>
        </g>
        <path class="cls-1" d="M128.25,1.99v31.83c0,.62.06,1.06.19,1.33.13.27.34.46.63.58l.75.26c.38.14.65.32.81.54.16.22.25.49.25.8,0,.41-.14.74-.41.97-.28.23-.71.35-1.29.35h-10.14c-.6,0-1.04-.12-1.3-.35-.27-.23-.4-.55-.4-.97,0-.31.08-.58.25-.8.16-.22.43-.4.79-.54,0,0,.49-.1.62-.37.13-.27.16-1.17.16-1.77V7.07c0-.5-.07-.85-.21-1.07-.14-.22-.36-.36-.67-.43l-.95-.13c-.34-.1-.59-.25-.74-.44s-.22-.43-.22-.72c0-.36.1-.64.3-.85s.56-.41,1.1-.62l5.24-1.99c.81-.31,1.45-.52,1.92-.65.47-.12.88-.18,1.23-.18.71,0,1.23.18,1.59.56.35.37.53.85.53,1.43Z"/>
        <path class="cls-1" d="M153.97,29.41c-.22,0-.45.07-.67.21-.22.14-.54.41-.95.8-.76.95-1.66,1.63-2.7,2.06s-2.22.64-3.55.64c-2.51,0-4.51-.78-6-2.33-.56-.59-1.01-1.31-1.35-2.15-.41-1.02.36-2.14,1.46-2.14h11.26c1.12,0,1.97-.29,2.57-.87.59-.58.89-1.41.89-2.49,0-1.91-.44-3.61-1.32-5.09-.88-1.49-2.17-2.65-3.88-3.5-1.71-.84-3.81-1.26-6.28-1.26-2.87,0-5.33.57-7.38,1.72-2.05,1.14-3.61,2.74-4.7,4.79-1.08,2.05-1.62,4.43-1.62,7.15,0,2.48.58,4.64,1.74,6.5,1.16,1.86,2.75,3.3,4.76,4.33,2.01,1.03,4.3,1.55,6.86,1.55,2.3,0,4.33-.38,6.07-1.15s3.12-1.79,4.11-3.07,1.51-2.67,1.55-4.17c0-.41-.07-.77-.21-1.07-.14-.3-.36-.45-.67-.45ZM138.44,19.67c.38-1.07.89-1.88,1.55-2.43.65-.54,1.39-.81,2.22-.81,1.12,0,2.01.52,2.67,1.57.66,1.05.99,2.67.99,4.88,0,.84-.46,1.26-1.37,1.26h-5c-.91,0-1.65-.78-1.59-1.69.07-1.06.25-1.99.53-2.79Z"/>
      </g>
      <g>
        <path class="cls-1" d="M10.92,49c-1.1,0-1.94.25-2.52.76-.58.51-.86,1.14-.86,1.9,0,.46.09.89.28,1.28.19.39.58.74,1.19,1.06s1.51.6,2.73.84c2.94.55,5.19,1.25,6.75,2.1,1.56.85,2.63,1.85,3.23,2.99.59,1.14.89,2.43.89,3.86,0,2.6-.91,4.65-2.73,6.15-1.82,1.5-4.5,2.26-8.02,2.26-1.22,0-2.21-.1-2.97-.3-.76-.2-1.37-.4-1.84-.59-.47-.2-.89-.3-1.25-.3-.4,0-.72.1-.97.3s-.49.4-.74.61c-.24.21-.55.31-.93.31s-.66-.11-.85-.32c-.19-.22-.36-.6-.52-1.15l-1.55-4.85c-.22-.77-.29-1.39-.19-1.84s.37-.77.84-.94c.48-.17.9-.18,1.26-.01.36.16.7.5,1.01.99.77,1.24,1.59,2.25,2.46,3.02.87.77,1.78,1.35,2.73,1.72.95.37,1.93.55,2.93.55,1.32,0,2.31-.26,2.97-.77s.98-1.2.98-2.06c0-.53-.13-1-.4-1.41-.27-.4-.79-.77-1.57-1.11-.78-.34-1.94-.66-3.47-.97-2.36-.47-4.23-1.1-5.62-1.9-1.39-.8-2.39-1.78-3-2.93-.61-1.15-.92-2.5-.92-4.05s.43-3.03,1.29-4.23,2.04-2.14,3.53-2.8c1.5-.66,3.23-.99,5.19-.99,1.26,0,2.26.1,3.01.31.75.21,1.36.42,1.83.63.47.22.93.32,1.38.32s.79-.11,1.07-.32c.28-.22.55-.43.81-.63s.58-.31.95-.31c.33,0,.6.12.81.35.21.23.37.62.48,1.17l1.03,4.67c.14.76.16,1.34.06,1.74s-.37.69-.81.86c-.46.19-.87.18-1.23-.03s-.72-.58-1.1-1.13c-1.12-1.77-2.34-3.01-3.68-3.73-1.33-.71-2.65-1.07-3.96-1.07Z"/>
        <path class="cls-1" d="M83.13,69.41c-.16-.22-.43-.4-.79-.54l-.72-.26c-.29-.12-.51-.31-.64-.58-.14-.27-.21-.72-.21-1.35v-12.46c0-2.42-.69-4.37-2.08-5.84s-3.21-2.21-5.48-2.21c-1.46,0-3.05.43-4.76,1.29-.88.45-2.65,1.79-3.79,2.68-.43.34-1.06.04-1.08-.51-.04-1.14-.12-2.62-.33-2.85-.34-.38-.84-.57-1.5-.57-.45,0-.91.07-1.38.21-.47.14-1.1.35-1.87.64l-5.24,1.99c-.53.21-.9.41-1.1.62s-.3.49-.3.85c0,.29.07.53.22.72s.39.34.74.44l.95.13c.31.07.53.21.67.43.14.22.21.57.21,1.07v13.41c0,.6-.06,2.1-.19,2.36-.88,1.77-3.33,1.37-3.66,0-.07-.29-.19-1.77-.19-2.39v-18.47c0-.58-.17-1.06-.52-1.43s-.84-.56-1.5-.56c-.45,0-.91.07-1.38.19-.47.13-1.1.34-1.87.63l-5.21,1.99c-.55.21-.92.41-1.12.62s-.3.49-.3.85c0,.29.08.53.23.72s.4.34.72.44l.98.13c.29.07.51.21.64.43s.21.57.21,1.07v11.93c-.59.46-1.19.83-1.81,1.08-.74.29-1.44.44-2.11.44-1.07,0-1.91-.32-2.53-.97-.62-.65-.93-1.62-.93-2.93v-14.63c0-.58-.18-1.06-.53-1.43-.35-.37-.88-.56-1.59-.56-.34,0-.75.06-1.23.18-.47.12-1.11.33-1.92.64l-5.24,1.99c-.53.21-.9.41-1.1.62s-.3.49-.3.85c0,.29.07.53.22.72s.39.34.74.44l.95.13c.31.07.53.21.67.43.14.22.21.57.21,1.07v10.84c0,2.41.69,4.35,2.08,5.83,1.38,1.48,3.2,2.22,5.46,2.22,1.46,0,3.04-.43,4.75-1.29,1.34-.67,2.86-1.77,4.57-3.24.12.98.49,1.83,1.13,2.55.79.88,1.73,1.32,2.81,1.32h18.6c1.15,0,1.73-.46,1.73-1.39,0-.55-.28-.96-.83-1.24l-.72-.28c-.29-.12-.5-.31-.63-.58-.13-.27-.19-.71-.19-1.33v-11.11c0-1.43.76-2.78,2.04-3.43.09-.04.17-.08.25-.11.75-.29,1.46-.44,2.13-.44,1.07,0,1.91.33,2.54.98.63.65.94,1.63.94,2.94v11.15c0,.62-.06,1.07-.19,1.34-.13.27-.34.47-.63.59l-.75.28c-.55.28-.83.69-.83,1.24,0,.93.58,1.39,1.73,1.39h10.71c.58,0,1.01-.12,1.28-.35.27-.23.4-.55.4-.97,0-.31-.08-.58-.25-.8Z"/>
        <path class="cls-1" d="M93.95,49c-1.1,0-1.94.25-2.52.76-.58.51-.86,1.14-.86,1.9,0,.46.09.89.28,1.28.19.39.58.74,1.19,1.06s1.51.6,2.73.84c2.94.55,5.19,1.25,6.75,2.1,1.56.85,2.63,1.85,3.23,2.99.59,1.14.89,2.43.89,3.86,0,2.6-.91,4.65-2.73,6.15-1.82,1.5-4.5,2.26-8.02,2.26-1.22,0-2.21-.1-2.97-.3-.76-.2-1.37-.4-1.84-.59-.47-.2-.89-.3-1.25-.3-.4,0-.72.1-.97.3s-.49.4-.74.61c-.24.21-.55.31-.93.31s-.66-.11-.85-.32c-.19-.22-.36-.6-.52-1.15l-1.55-4.85c-.22-.77-.29-1.39-.19-1.84s.37-.77.84-.94c.48-.17.9-.18,1.26-.01.36.16.7.5,1.01.99.77,1.24,1.59,2.25,2.46,3.02.87.77,1.78,1.35,2.73,1.72.95.37,1.93.55,2.93.55,1.32,0,2.31-.26,2.97-.77s.98-1.2.98-2.06c0-.53-.13-1-.4-1.41-.27-.4-.79-.77-1.57-1.11-.78-.34-1.94-.66-3.47-.97-2.36-.47-4.23-1.1-5.62-1.9-1.39-.8-2.39-1.78-3-2.93-.61-1.15-.92-2.5-.92-4.05s.43-3.03,1.29-4.23,2.04-2.14,3.53-2.8c1.5-.66,3.23-.99,5.19-.99,1.26,0,2.26.1,3.01.31.75.21,1.36.42,1.83.63.47.22.93.32,1.38.32s.79-.11,1.07-.32c.28-.22.55-.43.81-.63s.58-.31.95-.31c.33,0,.6.12.81.35.21.23.37.62.48,1.17l1.03,4.67c.14.76.16,1.34.06,1.74s-.37.69-.81.86c-.46.19-.87.18-1.23-.03s-.72-.58-1.1-1.13c-1.12-1.77-2.34-3.01-3.68-3.73-1.33-.71-2.65-1.07-3.96-1.07Z"/>
        <g>
          <path class="cls-1" d="M141.44,49.93c1.67,0,2.99-.4,3.97-1.21.98-.81,1.47-1.88,1.47-3.23s-.49-2.41-1.47-3.2c-.98-.79-2.3-1.19-3.97-1.19s-2.97.39-3.95,1.17c-.98.78-1.47,1.85-1.47,3.21s.49,2.42,1.47,3.23,2.3,1.21,3.95,1.21Z"/>
          <path class="cls-1" d="M179.51,69.41c-.16-.22-.43-.4-.79-.54l-.72-.26c-.29-.12-.51-.31-.64-.58-.14-.27-.21-.72-.21-1.35v-12.46c0-2.42-.69-4.37-2.08-5.84s-3.21-2.21-5.48-2.21c-1.46,0-3.05.43-4.76,1.29-1.01.51-2.13,1.26-3.35,2.23-.53.42-1.32.07-1.35-.61-.05-.95-.18-2-.5-2.29-.38-.35-.84-.57-1.5-.57-.45,0-.91.07-1.38.21-.47.14-1.1.35-1.87.64l-5.24,1.99c-.53.21-.9.41-1.1.62s-.3.49-.3.85c0,.29.07.53.22.72s.39.34.74.44l.95.13c.31.07.53.21.67.43.14.22.21.57.21,1.07v14.48c0,.6-.05,1.04-.19,1.3-.81,1.44-3.59,1.16-4.08,0-.12-.27-.19-.71-.19-1.33v-15.37c0-.58-.18-1.07-.53-1.44-.35-.38-.88-.57-1.59-.57-.34,0-.75.06-1.23.19-.47.13-1.11.35-1.92.66l-5.24,1.99c-.53.21-.9.41-1.1.62s-.3.49-.3.85c0,.29.07.53.22.72s.39.34.74.44l.95.13c.31.07.53.21.67.43.14.22.21.57.21,1.07v10.31c0,.6-.06,1.04-.19,1.3-.75,1.41-3.29,1.23-3.83,0-.12-.27-.21-.72-.21-1.35v-13.52c0-2.42-.69-4.37-2.08-5.84s-3.21-2.21-5.48-2.21c-1.46,0-3.05.43-4.76,1.29-1,.5-2.1,1.24-3.31,2.19-.55.44-1.38.05-1.38-.66v-11.38c0-.08.01-.16.02-.24v-4.58c0-.56-.67-.86-1.08-.48-.84.79-2.02,1.72-2.94,1.72-.83,0-1.47-.32-1.92-.97-.46-.65-.68-1.58-.68-2.8v-12.54c0-.53.46-.94.98-.89l2.73.27c1.24,0,2.13-.19,2.67-.57s.81-.84.81-1.39c0-.38-.14-.67-.41-.86-.28-.2-.64-.3-1.11-.3l-4.72.32c-.52.04-.95-.37-.95-.89v-4.54c0-.52-.12-.92-.36-1.2s-.58-.42-1.01-.42c-.4,0-.8.12-1.21.36-.41.24-.85.62-1.32,1.14l-3.48,4.1c-.38.43-.71.73-.99.89-.28.16-.61.24-.97.24h-1.5c-.06,0-.1.02-.16.02-.06,0-1.05-.02-1.12-.02h-3.74c-1.07,0-1.93-.86-1.93-1.93v-3.18c0-.52-.12-.92-.36-1.2s-.58-.42-1.01-.42c-.4,0-.8.12-1.21.36-.41.24-.85.62-1.32,1.14l-3.48,4.1c-.38.43-.71.73-.99.89-.28.16-.61.24-.97.24h-1.5c-.46,0-.84.11-1.13.34-.29.22-.44.54-.44.95,0,.31.09.57.27.79.18.22.48.39.89.53l.98.34c.41.15.71.34.89.57.18.22.27.58.27,1.06v13.31c0,2.48.7,4.33,2.09,5.56,1.39,1.23,3.34,1.85,5.86,1.85,1.67,0,3.15-.31,4.45-.92s2.32-1.43,3.06-2.45c.74-1.02,1.11-2.15,1.11-3.37,0-.5-.09-.85-.27-1.06-.18-.21-.42-.31-.71-.31-.38,0-.68.15-.89.44-.22.29-.43.62-.64.99-.22.37-.5.7-.85.99-.35.29-.85.44-1.48.44-.83,0-1.47-.32-1.92-.97s-.68-1.58-.68-2.8v-11.22c0-1.07.86-1.93,1.93-1.93h1.78c4.3,0,4.96.96,4.96,1.44v13.31c0,2.48.7,4.33,2.09,5.56.57.5,1.75.99,2.74,1.32.95.33,1.61,1.2,1.65,2.21.06,1.29.13,2.87.13,3.16v22.61c0,.6-.06,1.04-.19,1.3-.13.27-.33.46-.61.58l-.8.26c-.36.14-.62.32-.79.54-.16.22-.25.49-.25.8,0,.41.13.74.4.97.27.23.7.35,1.3.35h10.68c1.15,0,1.73-.46,1.73-1.39,0-.55-.28-.96-.83-1.24l-.72-.28c-.29-.12-.5-.31-.63-.58-.13-.27-.19-.71-.19-1.33v-11.16c0-1.38.73-2.69,1.96-3.34.12-.06.23-.11.32-.15.75-.29,1.46-.44,2.13-.44,1.07,0,1.91.33,2.54.98.63.65.94,1.63.94,2.94v11.15c0,.62-.06,1.07-.19,1.34-.13.27-.34.47-.63.59l-.75.28c-.55.28-.83.69-.83,1.24,0,.93.58,1.39,1.73,1.39h36.68c1.15,0,2.38-.46,2.38-1.39,0-.55-.28-.96-.83-1.24l-.72-.28c-.29-.12-.5-.31-.63-.58-.13-.27-.19-.71-.19-1.33l.09-11.46c.01-1.36.82-2.63,2.08-3.15.79-.32,1.54-.48,2.24-.48,1.07,0,1.91.33,2.54.98.63.65.94,1.63.94,2.94v11.15c0,.62-.06,1.07-.19,1.34-.13.27-.34.47-.63.59l-.75.28c-.55.28-.83.69-.83,1.24,0,.93-.07,1.39,1.08,1.39h10.71c.58,0,1.66-.12,1.92-.35.27-.23.4-.55.4-.97,0-.31-.08-.58-.25-.8Z"/>
        </g>
        <path class="cls-1" d="M202.74,62.29c-.22,0-.45.07-.67.21-.22.14-.54.41-.95.8-.76.95-1.66,1.63-2.7,2.06s-2.22.64-3.55.64c-2.51,0-4.51-.78-6-2.33-.53-.56-.96-1.24-1.3-2.02-.46-1.08.38-2.28,1.55-2.28h11.11c1.12,0,1.97-.29,2.57-.87.59-.58.89-1.41.89-2.49,0-1.91-.44-3.61-1.32-5.09-.88-1.49-2.17-2.65-3.88-3.5-1.71-.84-3.81-1.26-6.28-1.26-2.87,0-5.33.57-7.38,1.72s-3.61,2.74-4.7,4.79c-1.08,2.05-1.62,4.43-1.62,7.15,0,2.48.58,4.64,1.74,6.5,1.16,1.86,2.75,3.3,4.76,4.33,2.01,1.03,3.65,1.55,6.21,1.55,2.3,0,4.98-.38,6.72-1.15s3.12-1.79,4.11-3.07,1.51-2.67,1.55-4.17c0-.41-.07-.77-.21-1.07-.14-.3-.36-.45-.67-.45ZM187.21,52.55c.38-1.07.89-1.88,1.55-2.43.65-.54,1.39-.81,2.22-.81,1.12,0,2.01.52,2.67,1.57.66,1.05.99,2.67.99,4.88,0,.84-.46,1.26-1.37,1.26h-4.9c-.97,0-1.76-.82-1.69-1.79.08-1.02.25-1.91.52-2.69Z"/>
      </g>
      <g>
        <path class="cls-1" d="M36.15,85.51c-.94-1.85-2.21-3.29-3.82-4.33-1.61-1.04-3.44-1.56-5.48-1.56-2.27,0-4.97.59-6.71,2.24-1.93,1.83-1.68-.2-1.68-.2,0-.58.03-1.04-.32-1.42s-.88-.57-1.59-.57c-.4,0-.83.06-1.32.19-.48.13-1.09.35-1.83.66l-4.82,2.01c-.53.22-.9.43-1.1.62-.2.19-.3.46-.3.82,0,.29.07.53.22.72s.39.34.74.44l.95.13c.31.07.53.21.67.43.14.22.21.57.21,1.07v25.44c0,.6-.06,1.04-.19,1.3-.13.27-.33.46-.61.58l-.8.26c-.36.14-.62.32-.79.54-.16.22-.25.49-.25.8,0,.41.13.73.4.97s.7.35,1.3.35h11.14c.6,0,1.04-.12,1.32-.35.27-.23.41-.55.41-.97,0-.31-.09-.58-.26-.8-.17-.22-.44-.4-.8-.54l-.95-.26c-.29-.1-.5-.29-.63-.57-.13-.27-.19-.72-.19-1.34v-6.55c0-.7.68-1.19,1.34-.95,1.23.43,3.04.98,4.31.98,2.41,0,4.58-.57,6.53-1.7,1.94-1.13,3.48-2.73,4.6-4.8,1.13-2.06,1.69-4.49,1.69-7.27,0-2.39-.47-4.51-1.41-6.36ZM27.44,98.13c-.43,1.37-1.03,2.37-1.79,3.01-.77.64-1.65.95-2.64.95-.7,0-2.09-.65-3.03-1.18-.56-.31-.89-.91-.89-1.55v-11.89c0-.92.57-1.66,1.28-2.25,2.11-1.73,4.54-.76,5.29-.15.76.61,1.35,1.55,1.78,2.83.43,1.27.64,2.92.64,4.93,0,2.17-.22,3.93-.64,5.3Z"/>
        <path class="cls-1" d="M93.33,102.86c-.16-.22-.43-.4-.79-.54l-.72-.26c-.29-.12-.51-.31-.64-.58-.14-.27-.21-.72-.21-1.35v-12.46c0-2.42-.69-4.37-2.08-5.84-1.38-1.47-3.21-2.21-5.48-2.21-1.46,0-3.05.43-4.76,1.29-.81.41-2.32,1.6-3.4,2.5-.52.44-1.31.09-1.37-.59-.08-1.11-.23-2.36-.43-2.59-.34-.38-.84-.57-1.5-.57-.45,0-.91.07-1.38.21-.47.14-1.1.35-1.87.64l-5.24,1.99c-.53.21-.9.41-1.1.62s-.3.49-.3.85c0,.29.07.53.22.72s.39.34.74.44l.95.13c.31.07.53.21.67.43.14.22.21.57.21,1.07v11.19c0,2.14.24,4.51-.51,5.11-.62.5-2.49.68-2.91-.57-.09-.28-.16-.99-.16-1.38v-14.15c0-2.24-.83-4.01-2.49-5.33-1.66-1.32-4.19-1.97-7.6-1.97-2.85,0-5.24.36-7.15,1.08-1.91.72-3.34,1.63-4.31,2.72s-1.44,2.2-1.44,3.31c0,1.03.33,1.84.99,2.43.66.58,1.66.88,2.98.88,1.55,0,2.74-.34,3.57-1.02.83-.68,1.25-1.64,1.25-2.88v-2.55c0-.48.22-.89.67-1.21.45-.33,1.03-.49,1.75-.49.86,0,1.53.27,2.03.8.49.53.74,1.26.74,2.19v6.61c0,.51-.45.9-.95.82-.77-.11-1.83-.24-2.48-.24-3.65,0-6.48.67-8.51,2.03-2.03,1.35-3.04,3.15-3.04,5.4,0,1.79.72,3.25,2.15,4.4,1.44,1.14,3.32,1.72,5.66,1.72,4.37,0,6.42-1.77,7.45-2.85.24-.25.65-.21.82.09.26.47.65.89,1.16,1.25,1.07.75,2.47,1.12,4.19,1.12,1.41,0,15.89-.29,15.89-.29,1.15,0,1.73-.46,1.73-1.39,0-.55-.28-.96-.83-1.24l-.72-.28c-.29-.12-.5-.31-.63-.58-.13-.27-.19-.71-.19-1.33v-11.11c0-1.43.76-2.78,2.04-3.43.09-.04.17-.08.25-.11.75-.29,1.46-.44,2.13-.44,1.07,0,1.91.33,2.54.98.63.65.94,1.63.94,2.94v11.15c0,.62-.06,1.07-.19,1.34-.13.27-.34.47-.63.59l-.75.28c-.55.28-.83.69-.83,1.24,0,.93.58,1.39,1.73,1.39h10.71c.58,0,1.01-.12,1.28-.35.27-.23.4-.55.4-.97,0-.31-.08-.58-.25-.8ZM49.68,101.63c-.95,0-1.71-.31-2.28-.94-.58-.63-.86-1.54-.86-2.72s.32-2.08.97-2.72c.64-.65,1.53-.97,2.67-.97.31,0,.86.09,1.33.19s.79.5.79.97v4.67c0,.42-.25.81-.65.97-.61.25-1.5.56-1.96.56Z"/>
        <path class="cls-1" d="M132.02,81.14c-.94-1.01-2.27-1.52-4.01-1.52-1.34,0-2.58.42-3.73,1.25-1.14.83-2.95,4.32-3.04,4.58l-.38-3.77c-.1-.72-.27-1.24-.49-1.55-.2-.27-.49-.4-.84-.44.09-.03.12-.04.05-.04l-13.39.45c-1.6.05-2.92-1.23-2.92-2.83v-2.07c0-.52-.12-.92-.36-1.2s-.58-.42-1.01-.42c-.4,0-.8.12-1.21.36-.41.24-.85.62-1.32,1.14l-3.48,4.1c-.38.43-.71.73-.99.89-.28.16-.61.24-.97.24h-1.5c-.46,0-.84.11-1.13.34-.29.22-.44.54-.44.95,0,.31.09.57.27.79.18.22.48.39.89.53l.98.34c.41.15.71.34.89.57.18.22.27.58.27,1.06v13.31c0,2.48.7,4.33,2.09,5.56,1.39,1.23,3.34,1.85,5.86,1.85,1.67,0,3.15-.31,4.45-.92,1.3-.61,2.32-1.43,3.06-2.45.74-1.02,1.11-2.15,1.11-3.37,0-.5-.09-.85-.27-1.06-.18-.21-.42-.31-.71-.31-.38,0-.68.15-.89.44-.22.29-.43.62-.64.99-.22.37-.5.7-.85.99-.35.29-.85.44-1.48.44-.83,0-1.47-.32-1.92-.97s-.68-1.58-.68-2.8v-9.88c0-1.81.8-4.28,3.28-4.28h2.48c1.81,0,3.28,2.47,3.28,4.28h0s.01.08.01.13v13.34c0,.6-.06,1.04-.19,1.3-.13.27-.33.46-.61.58l-.8.26c-.36.14-.62.32-.79.54-.16.22-.25.49-.25.8,0,.41.13.74.4.97.27.23.7.35,1.3.35h13.16c.57,0,1-.12,1.29-.35.29-.23.44-.56.44-.99,0-.4-.11-.7-.34-.93-.22-.22-.57-.38-1.03-.47l-2.06-.39c-.59-.1-.97-.27-1.15-.52-.18-.24-.27-.64-.27-1.19v-9.34c0-1.38.13-2.48.39-3.33.26-.84.59-1.46,1.01-1.86s.85-.59,1.32-.59.8.13,1.02.37c.22.25.33.62.35,1.1v1.03c0,1.15.32,2.05.95,2.7.64.64,1.57.97,2.81.97s2.24-.46,3.01-1.37c.76-.91,1.15-2.31,1.15-4.21s-.47-3.47-1.41-4.49Z"/>
        <path class="cls-1" d="M146.02,85.57v14.61c0,.62.06,1.06.19,1.33.13.27.34.46.63.58l.75.26c.38.14.65.32.81.54.16.22.25.49.25.8,0,.41-.14.74-.41.97-.28.23-.71.35-1.29.35h-10.96c-.6,0-1.04-.12-1.3-.35-.27-.23-.4-.55-.4-.97,0-.31.08-.58.25-.8.16-.22.43-.4.79-.54l.8-.26c.27-.12.48-.31.61-.58.13-.27.19-.7.19-1.3v-9.55c0-.5-.07-.85-.21-1.07-.14-.22-.36-.36-.67-.43l-.95-.13c-.34-.1-.59-.25-.74-.44s-.22-.43-.22-.72c0-.36.1-.64.3-.85s.56-.41,1.1-.62l5.24-1.99c.81-.31,1.45-.53,1.92-.66.47-.13.88-.19,1.23-.19.71,0,1.23.19,1.59.57.35.38.53.86.53,1.44ZM140.89,82.97c-1.65,0-2.97-.4-3.95-1.21s-1.47-1.88-1.47-3.23.49-2.43,1.47-3.21c.98-.78,2.3-1.17,3.95-1.17s2.99.4,3.97,1.19c.98.79,1.47,1.86,1.47,3.2s-.49,2.42-1.47,3.23c-.98.81-2.3,1.21-3.97,1.21Z"/>
        <path class="cls-1" d="M171.97,95.74c-.22,0-.45.07-.67.21-.22.14-.54.41-.95.8-.76.95-1.66,1.63-2.7,2.06s-2.22.64-3.55.64c-2.51,0-4.51-.78-6-2.33-1-1.04-1.63-2.5-1.96-4.3h13.32c1.12,0,1.97-.29,2.57-.87.59-.58.89-1.41.89-2.49,0-1.91-.44-3.61-1.32-5.09-.88-1.49-2.17-2.65-3.88-3.5-1.71-.84-3.81-1.26-6.28-1.26-2.87,0-5.33.57-7.38,1.72-2.05,1.14-3.61,2.74-4.7,4.79-1.08,2.05-1.62,4.43-1.62,7.15,0,2.48.58,4.64,1.74,6.5,1.16,1.86,2.75,3.3,4.76,4.33,2.01,1.03,4.3,1.55,6.86,1.55,2.3,0,4.33-.38,6.07-1.15s3.12-1.79,4.11-3.07,1.51-2.67,1.55-4.17c0-.41-.07-.77-.21-1.07-.14-.3-.36-.45-.67-.45ZM156.44,86c.38-1.07.89-1.88,1.55-2.43.65-.54,1.39-.81,2.22-.81,1.12,0,2.01.52,2.67,1.57.66,1.05.99,2.67.99,4.88,0,.84-.46,1.26-1.37,1.26h-6.6c0-.19-.03-.35-.03-.54,0-1.55.19-2.86.57-3.93Z"/>
        <path class="cls-1" d="M185.31,82.13c-1.1,0-1.94.25-2.52.76-.58.51-.86,1.14-.86,1.9,0,.46.09.89.28,1.28.19.39.58.74,1.19,1.06s1.51.6,2.73.84c2.94.55,5.19,1.25,6.75,2.1,1.56.85,2.63,1.85,3.23,2.99.59,1.14.89,2.43.89,3.86,0,2.6-.91,4.65-2.73,6.15-1.82,1.5-4.5,2.26-8.02,2.26-1.22,0-2.21-.1-2.97-.3-.76-.2-1.37-.4-1.84-.59-.47-.2-.89-.3-1.25-.3-.4,0-.72.1-.97.3s-.49.4-.74.61c-.24.21-.55.31-.93.31s-.66-.11-.85-.32c-.19-.22-.36-.6-.52-1.15l-1.55-4.85c-.22-.77-.29-1.39-.19-1.84s.37-.77.84-.94c.48-.17.9-.18,1.26-.01.36.16.7.5,1.01.99.77,1.24,1.59,2.25,2.46,3.02.87.77,1.78,1.35,2.73,1.72.95.37,1.93.55,2.93.55,1.32,0,2.31-.26,2.97-.77.65-.52.98-1.2.98-2.06,0-.53-.13-1-.4-1.41-.27-.4-.79-.77-1.57-1.11-.78-.34-1.94-.66-3.47-.97-2.36-.47-4.23-1.1-5.62-1.9s-2.39-1.78-3-2.93c-.61-1.15-.92-2.5-.92-4.05s.43-3.03,1.29-4.23,2.04-2.14,3.53-2.8c1.5-.66,3.23-.99,5.19-.99,1.26,0,2.26.1,3.01.31.75.21,1.36.42,1.83.63.47.22.93.32,1.38.32s.79-.11,1.07-.32c.28-.22.55-.43.81-.63s.58-.31.95-.31c.33,0,.6.12.81.35.21.23.37.62.48,1.17l1.03,4.67c.14.76.16,1.34.06,1.74s-.37.69-.81.86c-.46.19-.87.18-1.23-.03s-.72-.58-1.1-1.13c-1.12-1.77-2.34-3.01-3.68-3.73-1.33-.71-2.65-1.07-3.96-1.07Z"/>
      </g>
    </g>
  </g>
</svg>