<?xml version="1.0" standalone="no"?>
<!DOCTYPE svg PUBLIC "-//W3C//DTD SVG 20010904//EN"
 "http://www.w3.org/TR/2001/REC-SVG-20010904/DTD/svg10.dtd">
<svg version="1.0" xmlns="http://www.w3.org/2000/svg"
 width="251.000000pt" height="251.000000pt" viewBox="0 0 251.000000 251.000000"
 preserveAspectRatio="xMidYMid meet">
<metadata>
Created by potrace 1.14, written by Peter Selinger 2001-2017
</metadata>
<g transform="translate(0.000000,251.000000) scale(0.100000,-0.100000)"
fill="#000000" stroke="none">
<path d="M1858 2505 c-2 -2 -26 -5 -55 -9 -168 -20 -344 -148 -425 -311 -48
-95 -61 -154 -62 -266 l-1 -107 -105 -5 c-123 -6 -139 -9 -244 -44 -309 -101
-534 -356 -601 -679 -16 -77 -21 -239 -10 -309 61 -371 317 -652 686 -752 99
-27 327 -24 439 5 280 74 509 278 618 552 13 31 25 69 28 85 3 16 7 32 10 36
17 28 24 253 11 344 -39 272 -212 517 -462 656 -33 18 -102 48 -155 66 -85 29
-91 32 -55 33 22 0 58 5 80 11 22 5 49 12 60 14 93 22 254 150 314 249 64 106
84 178 85 303 1 61 -2 114 -5 118 -6 6 -146 15 -151 10z"/>
</g>
</svg>
